<?xml version="1.0" encoding="utf-8"?>
<!-- Generator: Adobe Adobe Illustrator 24.2.0, SVG Export Plug-In . SVG Version: 6.00 Build 0)  -->
<svg version="1.1" id="Layer_1" xmlns="http://www.w3.org/2000/svg" xmlns:xlink="http://www.w3.org/1999/xlink" x="0px" y="0px"
	 viewBox="0 0 1728 1296" style="enable-background:new 0 0 1728 1296;" xml:space="preserve">
<g>
	<path d="M1244.93,193.64c-2.64-7.75-13.63-7.4-20.12-5.87c-11.98,2.82-22.43,11.59-31.41,19.54
		c-22.01,19.49-39.58,43.58-55.6,68.06c-11.35,17.34-21.36,35.72-33.56,52.48c-22.63,31.1-44.94,62.42-66.48,94.29
		c-8.54-7.1-13.64-18.01-17.11-28.3c-5.52-16.36-7.68-33.74-8.82-50.9c-0.55-8.27-0.81-16.57-0.86-24.86
		c18.88-41.31,35.14-86.33,27.18-132.18c-1.22-7.05-3-13.94-5.62-20.61c-1.09-2.79-13.48,7.79-13.73,8.02
		c-5.67,5.15-12.01,11.09-15.37,18.09c-5.5,11.46-8.38,24.37-10.99,36.74c-3.86,18.29-6.52,36.83-8.44,55.42
		c-2.08,20.09-3.52,40.61-3.44,61.08c-7.22,15.75-15,31.26-23.61,46.3c-0.47,0.82-0.95,1.64-1.42,2.46c0.03-0.06-1.18,1.99-1.42,2.4
		c-1.54,2.56-3.1,5.09-4.7,7.61c-2.81,4.43-5.75,8.77-8.77,13.06c-0.17,0.24-0.3,0.43-0.41,0.59c-0.02,0.02-0.03,0.04-0.05,0.06
		c-0.78,1.04-1.56,2.07-2.35,3.1c-0.67,0.87-1.35,1.73-2.03,2.58c-0.19,0.24-0.87,1.06-1.43,1.75c-0.44,0.51-0.94,1.08-1.15,1.33
		c-0.17,0.2-0.35,0.39-0.53,0.58c-0.22,0.25-0.45,0.5-0.65,0.71c-0.01,0.01-0.03,0.03-0.04,0.04c0,0-0.01,0.01-0.01,0.01
		c-0.05,0.05-0.09,0.1-0.14,0.14c-0.05,0.05-0.09,0.09-0.14,0.14c0.05-0.06,0.11-0.12,0.15-0.18c-0.35,0.29-0.71,0.6-1.05,0.91
		c-0.74,0.45-1.49,0.94-2.18,1.45c-0.17,0.1-0.33,0.19-0.5,0.28c-0.71,0.35-1.41,0.72-2.13,1.06c-0.78,0.36-1.56,0.69-2.36,1
		c-0.48,0.16-0.97,0.32-1.46,0.44c-6.61,1.7-12.99,1.29-19.23-1.56c-15.19-6.93-24.07-23.42-30.02-38.17
		c-7.68-19.03-11.91-39.41-14.73-59.68c-0.63-4.54-1.19-9.09-1.69-13.66c1.15-3.27,2.28-6.54,3.38-9.81
		c7.16-21.2,13.61-42.75,18.5-64.59c6.2-27.69,10.12-56.96,4.55-85.1c-1.28-6.49-3.08-12.82-5.52-18.98
		c-1.49-3.76-21.29,15.54-21.61,15.9c-9.16,10.28-15.77,21.53-20.1,34.56c-3.83,11.51-5.96,23.55-7.48,35.55
		c-3,23.61-3.4,47.43-3.84,71.2c-0.29,16.07,0.23,32.37,1.82,48.58c-3.37,9.42-6.95,18.76-10.81,28
		c-4.25,10.18-8.82,20.24-13.81,30.08c-2.45,4.83-5,9.61-7.67,14.33c-0.25,0.43-1.15,2.01-1.39,2.44c-0.23,0.37-1.18,1.98-1.45,2.42
		c-1.43,2.36-2.89,4.69-4.4,7c-1.37,2.1-2.77,4.19-4.2,6.25c-0.71,1.02-1.44,2.02-2.15,3.04c2.4-3.47-0.49,0.63-1.13,1.46
		c-1.32,1.72-3.41,3.57-4.42,5.49c-0.64,0.73-1.3,1.44-1.95,2.16c-0.04,0.04-0.07,0.07-0.11,0.11c-0.17,0.17-0.52,0.51-0.88,0.86
		c-0.34,0.31-0.66,0.61-0.82,0.76c-0.07,0.07-0.12,0.11-0.18,0.16c-0.75,0.59-1.5,1.18-2.25,1.77c-0.04,0.03-0.07,0.05-0.12,0.08
		c-0.89,0.59-1.76,1.2-2.65,1.77c-0.43,0.28-0.87,0.54-1.29,0.81c-16.15,8.82-34.95,10.78-52.92,3.47c-1.47-0.6-2.91-1.25-4.34-1.93
		c-12.67-32.43-26.85-64.28-42.29-95.52c-29.24-59.15-62.69-116.23-99.6-170.92c-2.28-3.37-16.3,10.35-17.78,11.85
		c-3.46,3.52-6.91,7.19-9.61,11.34c-1.06,1.63-3.25,4.4-2.24,6.43c26.84,54.35,29.14,117.41,59.14,170.51
		c10.29,18.21,21.17,36.18,34,52.74c13.26,17.11,29.06,33.81,48.88,43.24c5.6,14.41,10.9,28.93,15.87,43.55
		c19.11,56.25,33.56,113.99,45.38,172.18c11.74,57.78,21.79,116.23,28.78,174.79c7.71,64.62,9.29,131.26-11.03,193.86
		c-0.88,2.71,3.36,0.97,3.78,0.79c3.62-1.62,7.36-4.89,10.22-7.49c6.06-5.51,13.54-12.24,16.16-20.3
		c18.17-56.01,18.87-115.49,13.23-173.6c-5.69-58.67-15.91-117.2-27.03-175.06c-11.24-58.5-24.8-116.62-42.82-173.42
		c-3.17-10.01-6.51-19.96-9.98-29.86c5.84-1.17,11.6-3.08,17.21-5.78c24.12-11.62,44.38-32.46,60.67-53.28
		c12.88-16.46,23.69-34.34,33.03-53.02c2.17,10.7,4.88,21.26,8.28,31.56c5.54,16.8,13.65,35.95,29.06,46.02
		c15.38,10.04,31.87,4.99,45.94-4.77c28.32-19.65,49.86-47.81,67.48-77.98c0.91,10.1,2.31,20.13,4.31,30.03
		c3.73,18.44,11.77,42.46,28.91,51.02c-35.34,54.13-68.54,109.77-97.81,167.39c-34.5,67.92-60.67,140.1-79.77,213.8
		c-9.41,36.31-17.96,73.36-22.94,110.57c-4.57,34.17-4.51,68.78-9.01,102.97c-5.12,4.7-10.85,10.39-12.78,16.89
		c-3.41,11.46-3.94,23.69,1.51,34.64c1.37,2.76,13.22-7.59,13.62-7.95c5.36-4.87,12.57-11.03,15.24-17.94
		c12.21-31.59,14.54-65.89,16.77-99.37c1.12-16.87,2.1-33.77,4.09-50.57c2.02-17.08,5.32-34.02,8.69-50.88
		c14.32-71.79,35.1-142.43,63.31-210c28.39-68,64.96-132.46,104.09-194.79c2.43-3.87,4.87-7.73,7.32-11.58
		c2.4,0.11,4.92-0.03,7.58-0.46c13.98-2.26,26.52-13.4,36.44-22.69c13.14-12.32,24.78-26.04,35.51-40.49
		c4.52-6.09,8.95-12.25,13.38-18.41c0.79-1.1,1.58-2.2,2.38-3.3c0.24-0.34,0.49-0.67,0.73-1.01c1.53-1.99,3-4.01,4.57-5.97
		c5.73-7.13,11.69-14.09,17.59-21.09c0.68-0.81,1.36-1.62,2.05-2.43c0.2-0.23,0.45-0.53,0.76-0.9c1.75-2.07,3.5-4.15,5.25-6.22
		c3.57-4.22,7.13-8.45,10.69-12.69c20.67-24.65,40.61-49.9,58.62-76.58c6.13-9.08,12.07-18.46,16.75-28.38
		C1243.12,211.54,1247.69,201.77,1244.93,193.64z M1215.05,230.42c-0.96,4.82-1.76,6.36-3.91,10.91c-0.98,2.09-2.04,4.14-3.14,6.16
		c-0.56,1.04-1.15,2.06-1.72,3.09c-0.18,0.33-0.31,0.56-0.39,0.71c-0.09,0.15-0.24,0.38-0.46,0.75c-2.53,4.13-5.14,8.19-7.85,12.2
		c-6.07,8.96-12.35,17.83-18.06,25.42c-11.28,14.99-23.18,29.5-35.23,43.87c-1.41,1.68-2.82,3.35-4.23,5.03
		c-0.81,0.96-1.61,1.91-2.42,2.87c-0.02,0.03-0.37,0.44-0.69,0.81c-0.47,0.56-1.35,1.6-1.52,1.8c-0.61,0.72-1.21,1.43-1.82,2.15
		c-2.49,2.95-4.98,5.9-7.47,8.85c-5.92,7.02-11.87,14.02-17.66,21.15c-7.29,8.99-13.78,18.63-20.59,27.99
		c-0.35,0.47-1.88,2.54-2.19,2.95c-0.94,1.26-1.89,2.51-2.85,3.76c-2.06,2.69-4.15,5.35-6.3,7.97c-0.18,0.22-0.37,0.47-0.57,0.72
		c-0.14,0.15-0.3,0.33-0.51,0.57c-1.02,1.15-2.04,2.3-3.07,3.45c-0.05,0.06-0.08,0.09-0.13,0.14c-0.01,0.01-0.02,0.01-0.03,0.03
		c-0.24,0.24-0.48,0.48-0.73,0.73c-0.29,0.23-0.67,0.52-0.98,0.79c-1.15,0.67-3.42,1.93-1.05,0.75c-1.18,0.59-2.33,1.21-3.55,1.71
		c-1.24,0.5-0.11,0.16-1.75,0.53c-0.93,0.21-1.86,0.4-2.81,0.53c-1.63,0.23-3.28,0.34-4.92,0.34c-3.04,0-5.85-0.42-8.58-1.31
		c11.06-16.76,22.33-33.38,33.77-49.87c10.66-15.36,21.46-30.61,32.39-45.78c7.42-10.29,15.2-20.36,22.06-31.03
		c11.98-18.65,23.21-37.76,35.85-55.98c1.69-2.44,3.43-4.84,5.15-7.26c0.32-0.43,0.64-0.86,0.96-1.29c0.97-1.29,1.94-2.57,2.93-3.85
		c1.69-2.18,3.42-4.32,5.15-6.46c0.02-0.03,0.03-0.04,0.05-0.07c0.12-0.14,0.24-0.28,0.4-0.46c0.91-1.04,1.82-2.07,2.75-3.09
		c0.51-0.49,1.01-0.99,1.51-1.49c0.04-0.03,0.06-0.05,0.1-0.08c-0.02,0.02-0.04,0.04-0.06,0.06c0.02-0.02,0.05-0.05,0.07-0.07
		c0.01-0.01,0.01-0.01,0.02-0.02c0.76-0.45,1.58-0.97,2.28-1.5c-2.87,2.18-0.39,0.25,0.59-0.23c0.7-0.35,1.42-0.66,2.15-0.96
		c0.24-0.07,1.05-0.35,1.46-0.44c0.77-0.18,1.54-0.34,2.33-0.46c2.52-0.39,5.27-0.63,7.81-0.28c2.9,0.4,5.61,1.84,7.05,4.48
		C1216.03,224.27,1215.66,227.36,1215.05,230.42z"/>
	<path d="M931.99,427.18c0.22-0.24,0.43-0.48,0.65-0.71c1.06-1.2,1.94-2.35-0.83,0.87c0.04-0.03,0.08-0.07,0.12-0.1
		C931.96,427.22,931.97,427.2,931.99,427.18z"/>
	<path d="M1190.91,221.22C1189.58,222.53,1187.38,224.98,1190.91,221.22L1190.91,221.22z"/>
</g>
</svg>
