<?xml version="1.0" encoding="utf-8"?>
<!-- Generator: Adobe Adobe Illustrator 24.2.0, SVG Export Plug-In . SVG Version: 6.00 Build 0)  -->
<svg version="1.1" id="Layer_1" xmlns="http://www.w3.org/2000/svg" xmlns:xlink="http://www.w3.org/1999/xlink" x="0px" y="0px"
	 viewBox="0 0 1728 1296" style="enable-background:new 0 0 1728 1296;" xml:space="preserve">
<g>
	<path d="M797.05,703.63c0.01-0.01,0.02-0.02,0.03-0.03c-2.29,0.7-3.04,2.52-1.41,1.32C796,704.42,796.48,703.89,797.05,703.63z"/>
	<path d="M1062.93,507.71c-6-26.82-44.7,6.13-53.78,13.81c-20.41,17.26-37.04,37.87-51.5,59.95c2.29-5.3,4.48-10.62,6.57-15.96
		c7.11-18.21,13.53-37.13,16-56.56c1.58-12.43,2.17-28.44-6.2-38.9c-3.35-4.19-8.2-7.26-13.62-8.01c-7.98-1.1-15.5,4.4-21.44,8.91
		c-15.66,11.89-28.43,27.08-36.83,44.55c-1-18.1-6.78-39.94-26.55-39.22c-15.5,0.57-30.11,14.6-40.4,24.38
		c-11.46,10.9-22.42,23.65-29.41,37.85c-5.85,11.89-8.58,25.52-10.74,38.45c-2.87,17.23-4.27,34.73-4.29,52.19
		c-0.02,17.12,1.31,34.38,5.39,51.06c1.42,5.79,3.26,11.89,5.87,17.6c-0.89,1.09-1.78,2.18-2.66,3.27
		c-0.75,0.83-1.51,1.66-2.26,2.49c0.09-0.03,0.19-0.06,0.29-0.09c-0.11,0.03-0.21,0.07-0.31,0.12c-0.17,0.18-0.33,0.37-0.5,0.55
		c-0.35,0.32-0.64,0.56-0.88,0.74c-0.02,0.03-0.04,0.06-0.06,0.09c-0.73,0.5-1.81,1.27-1.87,1.31c-0.43,0.26-0.74,0.46-0.96,0.59
		c-0.68,0.37-1.36,0.73-2.06,1.07c-3.5,1.71-7.23,2.89-11.03,3.51c-2.08-23.38-5.35-46.67-9.38-69.7
		c-3.17-18.15-7.12-36.14-10.91-54.17c-4.05-19.28-8.51-38.9-16.5-57.04c-3.29-7.46-7.42-16.03-14.33-20.93
		c-7.6-5.39-16.08-2.7-23.31,1.94c-14.58,9.35-29.62,24.31-35.79,40.72c-3.64,9.67-4.88,19.9-5.31,30.15
		c-0.73,17.58,0.94,35.16,3.58,52.54c3.82,25.17,9.39,51.04,20.96,74c10.31,20.45,29.9,40.54,54.81,38.65
		c0.36,4.37,0.69,8.75,0.96,13.13c2.92,46.63,1.87,95.3-12.57,140.21c-2.93,9.1-6.62,17.96-11.07,26.45
		c-0.64,1.23-1.31,2.45-1.98,3.66c0.03-0.06-0.64,1.11-1.06,1.84c-0.44,0.71-1.13,1.84-1.1,1.79c-0.73,1.15-1.48,2.29-2.25,3.42
		c-0.62,0.91-1.34,1.79-1.91,2.73c-0.68,0.85-1.36,1.7-2.04,2.56c-1.86,2.06-14.36,15.79-7.97,16.45c3.12,0.32,8.42-4.44,10.36-5.97
		c5.06-3.98,9.86-8.39,14.14-13.18c18.23-20.39,31.69-43.23,40.36-68.97c8.07-23.96,11.93-49.18,13.64-74.3
		c1.51-22.16,1.4-44.42,0.09-66.64c1.4-1.06,2.78-2.12,4.13-3.2c7.86-6.25,15.27-13.06,22.27-20.25c2.12,2.9,4.57,5.53,7.45,7.74
		c11.62,8.95,26.31,6.78,39.05,1.57c15.55-6.36,28.8-18.98,40.08-31.96c0.77,0.84,1.56,1.66,2.38,2.45
		c-32.07,54.25-59.92,112.22-69.66,174.62c-4.99,31.95-4.69,64.42,1.35,96.21c1.19,6.27,15.07-6.31,16.9-7.94
		c4.79-4.28,9.48-8.82,13.42-13.88c1.75-2.25,6.64-7.22,6.08-10.17c-11.42-60.08-1.17-121.18,21.69-177.52
		c7.13-17.56,15.4-34.53,24.26-51.21c10.46,5.42,22.58,7.75,35.11,6.09c16.02-2.12,30.29-9.78,42.85-19.43
		c15.33-11.79,29.39-26.61,39.69-42.88c14.24-22.48,21.61-47.96,27.49-73.58c2.37-10.35,4.77-20.72,6.47-31.2
		C1063.65,526.97,1065.03,517.06,1062.93,507.71z"/>
	<path d="M718.21,659.5c-8.33-21.9-12.85-45.16-15.67-68.31c-1.54-12.62-2.42-25.37-2.05-38.09c1.55,2.37,2.9,4.86,4.1,7.23
		c4.22,8.26,7.29,17.09,9.98,25.92c4.55,14.96,7.63,30.23,10.95,45.47c4.42,20.28,8.31,40.67,11.47,61.16
		C728.62,683.24,722.69,671.26,718.21,659.5z"/>
	<path d="M914.93,596.72c0.73-16.05,2.61-32.08,5.26-47.93c2.77-16.57,6.42-33.07,11.86-49.02c3.92,2.33,7.01,5.84,9.02,9.87
		c5.46,10.95,3.94,24.68,2,36.39c-4.51,27.29-14.8,53.4-27.28,78.39c-0.01-0.06-0.03-0.11-0.05-0.17c-0.09-0.47-0.17-0.94-0.23-1.41
		c-0.32-2.4-0.54-4.8-0.67-7.22C914.51,609.34,914.64,603.02,914.93,596.72z"/>
	<path d="M830.67,549.86c1.01-6.75,2.23-13.48,3.81-20.13c0.68-2.86,1.42-5.7,2.25-8.52c0.34-1.16,0.72-2.31,1.08-3.46
		c0.13-0.4,0.27-0.8,0.41-1.19c0.11-0.32,0.24-0.66,0.32-0.85c0.49-1.14,0.99-2.27,1.51-3.39c2.69-0.5,5.5-0.47,8.06,0.39
		c9.06,3.05,13.4,13.27,15.59,21.6c3.14,11.94,2.66,24.79,0.85,36.9c-3.93,26.27-14.76,51.19-27.47,74.45
		c-1.12,2.05-2.23,4.02-3.34,5.96c-0.79-2.48-1.48-4.97-2.06-7.44C824.49,613.78,826.1,580.52,830.67,549.86z"/>
	<path d="M884.42,678.19c-0.86,1.22-1.75,2.43-2.62,3.65c-0.3,0.38-0.6,0.76-0.89,1.15c-0.33,0.13-0.8,0.31-1.12,0.44
		c-0.62,0.19-1.98,0.63-2.19,0.69c-17.49,4.86-29.31-3.82-36.93-16.66c12.78-17.49,24.39-35.84,34.34-54.98
		c1.9-3.66,3.77-7.38,5.58-11.15c-1.1,10.12-1.82,20.23-2.18,30.23c-0.48,13.5-0.32,26.5,5.83,38.88c0.76,1.53,1.58,3.01,2.45,4.46
		C885.94,675.99,885.19,677.09,884.42,678.19z"/>
	<path d="M1026.22,565.1c-1.41,9.7-3.56,19.29-5.71,28.85c-4.78,21.34-9.88,43-20.2,62.52c-0.57,1.08-1.17,2.14-1.77,3.2
		c-0.17,0.25-1.09,1.78-1.43,2.33c-1.04,0.51-2.07,1.01-3.13,1.47c-2.35,1.01-4.73,1.8-7.21,2.46c-6.51,1.73-13.3,2.54-20.04,2.16
		c-12.36-0.71-23.39-5.92-32.17-13.76c11.11-19.18,22.4-38.29,32.99-57.76c6.53-12.01,12.81-23.32,19.72-34.09
		c2.94-4.58,6.01-9.07,9.19-13.49c0.46-0.61,1.73-2.32,1.92-2.57c1.05-1.35,2.15-2.66,3.21-4c0.03-0.04,0.07-0.09,0.1-0.13
		c0.19-0.21,0.38-0.42,0.57-0.63c0.68-0.43,1.53-1.5,2.16-2.23c0.35-0.25,1.88-1.35,2.52-1.83c0.89-0.57,2.11-1.38,2.03-1.32
		c0.39-0.26,0.67-0.44,0.89-0.6c0.21-0.08,0.46-0.19,0.83-0.36c2.84-1.27,2.76-1.54,4.9-1.91c5.85-1,9.58,1.73,11.17,7.72
		C1028.76,548.7,1027.33,557.53,1026.22,565.1z"/>
</g>
</svg>
