<?xml version="1.0" encoding="utf-8"?>
<!-- Generator: Adobe Adobe Illustrator 24.2.0, SVG Export Plug-In . SVG Version: 6.00 Build 0)  -->
<svg version="1.1" id="Layer_1" xmlns="http://www.w3.org/2000/svg" xmlns:xlink="http://www.w3.org/1999/xlink" x="0px" y="0px"
	 viewBox="0 0 1728 1296" style="enable-background:new 0 0 1728 1296;" xml:space="preserve">
<path d="M1203.48,442.28c-0.33-1.61-1.28-2.74-2.86-3.38c-18.46-8.2-40.68-7.69-59.76-1.79c-14.97,4.63-28.17,13.27-40.5,22.72
	c-28.2,21.62-52.13,48.79-74.69,76.07c-9.47,11.45-18.57,23.18-27.61,34.95c-0.01,0-0.03-0.01-0.04-0.01
	c-0.06-0.02-0.28-0.1-0.51-0.18c-0.41-0.17-0.92-0.38-1.08-0.46c-1.25-0.59-2.49-1.18-3.7-1.83c-2.65-1.41-5.19-3-7.67-4.7
	c-8.76-5.97-17.15-15.63-23.28-25.03c-6.47-9.91-11.67-21.75-14.19-34c4.79-13.82,6.95-28.32,4.46-42.47
	c-1.07-6.07-13.99-6.41-18.17-6.59c-4.41-0.19-9.03-0.13-13.36,0.8c-2.61,0.56-8.36,1.32-9.63,4.01
	c-6.58,13.92-7.72,28.82-5.15,43.31c-3.35,9.56-7.97,18.72-13.1,27.13c-13.47,22.07-31.99,42.47-54.04,55.71
	c-2.4,1.44-4.85,2.8-7.35,4.07c-1.22,0.61-2.45,1.21-3.69,1.78c-0.53,0.24-1.06,0.47-1.59,0.7c-0.25,0.1-0.58,0.23-0.93,0.36
	c-0.61,0.22-4.83,1.33-6.82,2.03c-0.6-0.19-1.19-0.38-1.78-0.59c-0.73-0.26-1.79-0.7-1.98-0.77c-2.11-0.97-4.19-1.99-6.23-3.12
	c-18.98-10.58-35.28-29.02-46.29-48.87c-1.5-2.7-2.94-5.56-4.29-8.54c9.21-15.32,16.06-33.81,7.43-49.95
	c-2.65-4.95-6.71-8.38-11.14-11.69c-5.04-3.76-15.24-3.44-20.88-3.2c-4.41,0.19-14.57,0.42-17.42,4.8
	c-11.91,18.3-8.29,40.33-0.28,59.42c-11.6,18.92-27.59,35.5-44.39,49.73c-5.9,5-10.52,8.78-16.67,12.66
	c-13.44-24.64-28.71-48.4-46.3-70.12c-23.8-29.39-54.25-57.81-92.81-64.61c-11.37-2.01-23.09-2.97-34.61-1.92
	c-7.92,0.72-18.11,2.34-23.82,8.54c-8.14,8.85-3.87,25.93-0.95,36c8.77,30.19,31,54.57,55.58,73.14
	c27.19,20.54,59.47,34.83,93.34,39.41c6.2,0.84,12.5,1.41,18.83,1.64c34.62,68.59,56.49,144.96,58.98,221.94
	c0.3,9.4,0.29,18.81-0.02,28.21c-0.08,2.59,4.55,4.21,6.14,4.74c4.53,1.53,10.09,2.03,14.82,1.96c4.95-0.07,10.09-0.38,14.82-1.96
	c2.12-0.71,6.05-1.98,6.14-4.74c2.72-83.88-19.06-167.67-55.16-242.98c-1.79-3.74-3.63-7.47-5.5-11.18
	c10.47-2.77,20.49-7.07,29.62-13.33c14.72-10.1,28.55-22.1,40.71-35.44c9.71,12.36,21.53,23.14,34.76,31.24
	c26.33,16.11,60.07,17.49,88.46,6c27.19-11,50.13-31.47,67.35-54.97c13.79,18.72,33.64,32.44,56.86,36.92
	c1.95,0.38,3.9,0.69,5.85,0.97c-4.11,5.35-8.23,10.7-12.39,16.01c-34.44,44-62.81,92.15-86.29,142.82
	c-13.33,28.77-24.94,58.24-36.02,87.94c-11.06,29.66-22.16,60.78-21.19,92.89c0.2,6.57,16.82,6.76,20.95,6.7
	c4.95-0.07,10.09-0.38,14.82-1.96c2.01-0.67,6.22-2.02,6.14-4.74c-0.83-27.3,7.21-53.98,16.27-79.44
	c9.1-25.57,18.84-50.98,29.62-75.88c21.65-50.03,47.55-98.39,79.44-142.67c10.42-14.46,21.25-28.73,32.24-42.85
	c22.72-4.38,44.42-14.25,63.81-27.41c12.81-8.69,24.73-18.52,36.85-28.12c8.85-7.02,17.82-13.89,26.46-21.18
	c11.28-9.52,22.35-19.61,31.49-31.25C1196.83,466.41,1204.31,454.53,1203.48,442.28z M622.08,603.65c-0.01,0-0.02,0-0.03,0
	c-0.49-0.24-1.26-0.3-1.95-0.34C619.26,602.94,620.28,602.56,622.08,603.65z M610.81,601.5c-0.61-0.16-1.24-0.32-1.31-0.34
	c-0.81-0.22-1.62-0.45-2.43-0.69c-1.83-0.53-3.65-1.1-5.47-1.69c-3.47-1.14-6.89-2.42-10.3-3.74c-0.14-0.05-0.51-0.21-0.82-0.34
	c-0.64-0.27-1.28-0.55-1.92-0.83c-2-0.88-3.99-1.8-5.97-2.75c-6.77-3.26-13.36-6.91-19.73-10.91
	c-23.99-15.06-45.86-35.88-58.89-61.31c-5.85-11.42-9.62-24.49-9.65-37.39c-0.01-4.04,0.26-6.52,1.68-8.94
	c0.02,0,0.04,0.01,0.05,0.01c0.24,0.05,0.96,0.24,1.47,0.36c0.4,0.12,0.8,0.24,0.96,0.29c0.89,0.27,1.77,0.56,2.65,0.86
	c0.95,0.33,1.9,0.67,2.84,1.03c0.36,0.15,1.41,0.58,1.76,0.73c7.6,3.43,14.77,7.8,21.48,12.73c13.9,10.2,26.02,22.99,37.05,36.17
	c19.94,23.83,36.83,50.4,51.56,77.82c-0.49-0.1-0.99-0.18-1.48-0.28C613.97,602.22,611.71,601.7,610.81,601.5z M1152.33,467.86
	c-6.86,9.69-15.33,18.22-24.07,26.21c-16.52,15.11-34.54,28.78-52.17,42.56c-6.15,4.81-12.46,9.47-18.96,13.82
	c19.73-24.58,40.41-48.6,63.55-70.01c12.89-11.92,23.64-21.06,39.03-29.22c0.38-0.2,0.76-0.39,1.14-0.58
	C1159.4,456.85,1156.06,462.58,1152.33,467.86z"/>
</svg>
