<svg xmlns="http://www.w3.org/2000/svg" width="21.503" height="20.451" viewBox="0 0 21.503 20.451">
  <g id="Path_750" data-name="Path 750" transform="translate(-4727.447 -3956.549)" fill="none" stroke-miterlimit="10">
    <path d="M4738.2,3973.507l-6.645,3.493,1.269-7.4-5.376-5.24,7.429-1.08,3.323-6.732,3.322,6.732,7.429,1.08-5.375,5.24,1.269,7.4Z" stroke="none"/>
    <path d="M 4733.54638671875 3974.25830078125 L 4737.5009765625 3972.17919921875 L 4738.19921875 3971.812255859375 L 4738.8974609375 3972.17919921875 L 4742.8515625 3974.25830078125 L 4742.0966796875 3969.8544921875 L 4741.96337890625 3969.077392578125 L 4742.5283203125 3968.527099609375 L 4745.7275390625 3965.408203125 L 4741.3056640625 3964.765625 L 4740.525390625 3964.65234375 L 4740.17626953125 3963.945068359375 L 4738.19921875 3959.9384765625 L 4736.2216796875 3963.945068359375 L 4735.87255859375 3964.65234375 L 4735.09228515625 3964.765625 L 4730.6708984375 3965.408203125 L 4733.8701171875 3968.52685546875 L 4734.43505859375 3969.077392578125 L 4734.3017578125 3969.854736328125 L 4733.54638671875 3974.25830078125 M 4744.84375 3977.000244140625 L 4738.19921875 3973.5068359375 L 4731.55419921875 3977.000244140625 L 4732.8232421875 3969.60107421875 L 4727.447265625 3964.36083984375 L 4734.87646484375 3963.28125 L 4738.19921875 3956.549072265625 L 4741.521484375 3963.28125 L 4748.95068359375 3964.36083984375 L 4743.5751953125 3969.60107421875 L 4744.84375 3977.000244140625 Z" stroke="none" fill="#719500"/>
  </g>
</svg>
