<svg xmlns="http://www.w3.org/2000/svg" width="21.503" height="20.451" viewBox="0 0 21.503 20.451">
  <g id="Path_750" data-name="Path 750" transform="translate(-4727.447 -3956.549)" fill="#719500" stroke-miterlimit="10">
    <path d="M 4744.1796875 3976.086181640625 L 4738.43212890625 3973.064208984375 L 4738.19921875 3972.94189453125 L 4737.96630859375 3973.064208984375 L 4732.21826171875 3976.086181640625 L 4733.31591796875 3969.685546875 L 4733.3603515625 3969.426513671875 L 4733.17236328125 3969.242919921875 L 4728.52197265625 3964.7099609375 L 4734.9482421875 3963.776123046875 L 4735.20849609375 3963.73828125 L 4735.32470703125 3963.50244140625 L 4738.19921875 3957.678955078125 L 4741.0732421875 3963.50244140625 L 4741.189453125 3963.73828125 L 4741.44970703125 3963.776123046875 L 4747.87646484375 3964.7099609375 L 4743.22607421875 3969.2431640625 L 4743.0380859375 3969.426513671875 L 4743.08251953125 3969.685546875 L 4744.1796875 3976.086181640625 Z" stroke="none"/>
    <path d="M 4743.515625 3975.17236328125 L 4742.58935546875 3969.77001953125 L 4742.5009765625 3969.251953125 L 4742.876953125 3968.885009765625 L 4746.8017578125 3965.05908203125 L 4741.37744140625 3964.270751953125 L 4740.857421875 3964.1953125 L 4740.62451171875 3963.723876953125 L 4738.19921875 3958.80859375 L 4735.77294921875 3963.723876953125 L 4735.54052734375 3964.1953125 L 4735.0205078125 3964.270751953125 L 4729.59619140625 3965.05908203125 L 4733.521484375 3968.885009765625 L 4733.89794921875 3969.251953125 L 4733.80908203125 3969.77001953125 L 4732.88232421875 3975.17236328125 L 4737.73388671875 3972.62158203125 L 4738.19921875 3972.376953125 L 4738.66455078125 3972.621826171875 L 4743.515625 3975.17236328125 M 4744.84375 3977.000244140625 L 4738.19921875 3973.5068359375 L 4731.55419921875 3977.000244140625 L 4732.8232421875 3969.60107421875 L 4727.447265625 3964.36083984375 L 4734.87646484375 3963.28125 L 4738.19921875 3956.549072265625 L 4741.521484375 3963.28125 L 4748.95068359375 3964.36083984375 L 4743.5751953125 3969.60107421875 L 4744.84375 3977.000244140625 Z" stroke="none" fill="#719500"/>
  </g>
</svg>
