<?xml version="1.0" encoding="utf-8"?>
<!-- Generator: Adobe Adobe Illustrator 24.2.0, SVG Export Plug-In . SVG Version: 6.00 Build 0)  -->
<svg version="1.1" id="Layer_1" xmlns="http://www.w3.org/2000/svg" xmlns:xlink="http://www.w3.org/1999/xlink" x="0px" y="0px"
	 viewBox="0 0 1728 1296" style="enable-background:new 0 0 1728 1296;" xml:space="preserve">
<style type="text/css">
	.st0{fill:#FFFFFF;}
	.st1{fill:none;stroke:#000000;stroke-miterlimit:10;}
</style>
<g>
	<path d="M945.94,957.03c-1.08-3.77-2.56-7.43-4.17-11.01c-2.71,0.49-5.42,0-7.51-1.76c-23.62,30.41-71.64,38.46-107.09,44.16
		c-48.68,7.82-105.37,12.5-146.63-20.32c-35.35-28.11-51.25-77.78-41.5-121.73c10.16-45.81,45.54-83.33,88.35-100.47
		c37.13-14.86,78.16-14.08,115.8-2.18c1.46,0.38,2.92,0.74,4.4,1.04c0.85,0.17,1.7,0.32,2.56,0.46c0.05,0,0.09,0,0.14,0.01
		c1.31,0.07,2.61,0.23,3.92,0.32c0.22,0.02,0.44,0.03,0.66,0.04c-36.31-38.63-86.86-62.79-139.93-65.87
		c-5.03-0.29-6.41-6.94-2.93-9.97c18.35-16,39.69-28.56,62.59-36.68c22.37-7.93,45.28-11.12,68.92-11.29
		c18.39-0.13,40.77,0.54,54.17-14.53c11.77-13.23,10.66-32.46,6.69-48.58c-4.82-19.6-15.15-37.09-25.05-54.43
		c-10.91-19.12-22.1-38.12-31.53-58.05c-9.45-19.97-17.12-41.05-20.47-62.99c-3.75-24.51-1.32-49.29,0.23-73.87
		c2.16-34.39,1.45-76.66-24.31-102.23c-6.92-4.56-14.07-8.48-21.72-11.12c-4.28-0.38-8.62-0.4-12.99-0.07
		c-27.55,2.07-53.4,13.37-80.1,19.61c-28.6,6.68-58.18,9.11-87.49,7.47c-28.42-1.59-56.16-7.44-83.19-16.31
		c-23.81-7.82-48.47-17.48-73.89-17.27c-23.37,0.19-44.18,12.45-53.34,34.49c-8.42,20.27-7.72,43.47-4.99,64.85
		c3.6,28.22,10.39,56.21,16.79,83.89c1.4,6.08,2.85,12.16,4.29,18.23c2.06,7.41,4.01,14.85,5.74,22.34
		c1.65,7.13,3.26,14.28,4.85,21.42c2.25,9.2,4.49,18.41,6.71,27.62c14.57,60.47,25.96,121.28,35.67,182.72
		c9.4,59.53,18.53,119.28,33.86,177.62c26.81,102.08,75.42,204.63,165.33,264.62c41.91,27.96,91.18,45.66,141.77,45.8
		c24.49,0.06,52.24-3.03,73.05-17.13c9.06-6.14,17.05-15.71,21.32-26.4c0.09-1.82,0.65-3.65,1.79-5.4
		c2.45-9.12,2.03-18.75-2.81-27.54c-42.28-7.86-84.57-15.72-126.85-23.57c-0.79-0.15-1.5-0.49-2.13-0.94
		c-0.45,0.1-0.94,0.1-1.48-0.06c-4.14-1.19-8.24-2.46-12.32-3.85c-0.54-0.18-0.95-0.46-1.26-0.79c-5.02,0.41-6.06-7.61-0.78-8.67
		c7.5-1.51,15.04-3.32,22.68-3.99c0.75-0.84,1.85-1.44,3.33-1.58c42.25-4.07,84.5-8.15,126.75-12.22
		c16.46-1.59,37.8-0.34,44.3-19.23C948.9,973.68,948.24,965.04,945.94,957.03z"/>
	<path d="M1478.88,555.64c-8.93-16.22-19.82-31.2-30.31-46.44c0,0,0,0,0,0c-0.28-0.4-0.57-0.79-0.84-1.19
		c-0.25-0.36-0.49-0.73-0.73-1.1c-0.2-0.27-0.41-0.53-0.61-0.8c-0.18-0.23-0.37-0.45-0.55-0.68c-13.85-18.06-21.1-40.56-26.24-62.46
		c-5.93-25.28-9.73-51.18-11.78-77.05c-1.38-17.43-1.89-34.92-1.7-52.4c-0.13-1.31-0.27-2.62-0.39-3.93
		c-0.8-8.35-1.32-16.67-1.17-25.06c0.15-8.28,0.77-16.55,1.58-24.79c1.59-16.27,3.88-32.5,4.46-48.85
		c0.3-8.51,0.21-17.04,0.41-25.56c0.17-7.08,0.39-14.17,0.39-21.25c0-2.22-0.03-4.55-0.29-6.84c-1.32-3.98-4.75-6.85-8.85-7.88
		c-4.28,0.9-8.49,2.06-12.62,3.49c-4.77,1.65-9.43,3.56-14.24,5.11c-3.54,1.14-7.1,2.19-10.68,3.21c-0.13,0.05-0.26,0.09-0.39,0.14
		c-0.12,0.02-0.25,0.06-0.37,0.08c-2.59,0.73-5.19,1.45-7.78,2.17c-0.76,0.27-1.51,0.56-2.26,0.85c-3.68,1.47-7.35,2.95-11.02,4.44
		c-3.98,1.83-7.97,3.63-11.98,5.38c-11.21,4.88-22.58,9.52-34.15,13.58c-57.08,23.38-114.16,46.76-171.24,70.13
		c-33.21,13.6-68.58,27.36-98.24,48.43c-1.89,1.73-3.79,3.44-5.7,5.15c0.08,0.07,0.15,0.14,0.22,0.21
		c-0.81,0.58-1.61,1.17-2.42,1.75c-1,0.89-2,1.78-2.99,2.67c-1.98,2.55-3.98,5.08-5.98,7.61c-9.68,12.29-20.03,25.88-23.77,41.14
		c-0.75,6.01-0.96,12.08-0.93,18.14c0.18,0.74,0.37,1.48,0.56,2.22c3.93,14.74,10.39,28.64,15.11,43.12
		c4.19,12.84,7.46,25.97,9.74,39.28c4.48,26.22,5.21,53.13,2.38,79.58c-5.37,50.21-24.34,99.05-54.42,139.64
		c31.7,2.24,63.66,0.73,95.09-3.82c16.82-2.43,33.49-5.82,49.93-10.1c16.75-4.36,32.85-10.56,49.46-15.29
		c0.36-0.1,0.7-0.15,1.02-0.17c0.2-0.3,0.4-0.59,0.6-0.89c2.65-3.96,8.53,0.33,5.99,4.28c-0.86,1.42-1.72,2.89-2.58,4.37
		c-0.06,0.55-0.23,1.12-0.56,1.68c-1.89,3.27-3.79,6.54-5.75,9.77l-0.09-0.06c-0.26,0.3-0.55,0.54-0.86,0.73
		c-1.96,3.01-4.05,5.89-6.37,8.47c-0.19,0.21-0.4,0.39-0.62,0.54c-24.39,35.51-56.08,65.53-92.92,87.91
		c17,12.02,37.33,18.05,58.19,19.22c98.96,5.57,166.46-81,247.82-121.85c5.65-2.84,10.81,5.78,5.75,9.46
		c-20.84,15.2-29.06,41.05-32.04,65.67c-3.72,30.75-0.7,62.23-9.83,92.23c-13.21,43.44-49.61,77.01-90.47,94.71
		c-24.36,10.55-50.85,15.92-77.27,17.63c-26.96,1.75-53.19-1.07-79.96-3.62c-8.61-0.82-21.44-1.67-27.09,6.47
		c-6.62,9.54,2.18,21.5,10.78,25.89c10.92,5.57,24.39,5.72,36.35,6.4c13.93,0.79,27.91,0.89,41.85,0.24
		c54.89-2.57,108.93-15.9,158.71-39.15c6.07-2.84,10.04,5.32,5.75,9.46c-12.61,12.19-26.39,23.1-41.19,32.51
		c-49.99,31.8-109.84,47.13-168.92,42.25c-0.52,8.99,1.09,17.83,4.8,26.2c9.53,21.51,30.13,37.18,52.09,44.47
		c26.38,8.76,55.65,3.75,81.21-5.43c27.24-9.78,52.72-24.32,77.49-39.11c21.62-12.91,42.66-27,61.87-43.31
		c19.06-16.17,36.24-34.71,49-56.3c14.13-23.9,20.41-50.45,22.95-77.89c2.76-29.87,2.13-60.13,8.09-89.65
		c5.59-27.65,16.35-53.8,26.55-79.98c9.81-25.17,19.58-50.94,22.23-78.02C1498.86,605.3,1492.11,579.66,1478.88,555.64z
		 M1328.2,423.38c-0.03,0.22-0.07,0.43-0.1,0.65c-3.35,5.91-6.65,11.82-9.66,17.91c-0.19,0.12-0.38,0.25-0.58,0.37
		c-14.2,25.39-42.07,39.92-69.69,48.6c-35.09,11.04-74.44,15.59-103.2,40.55c-4.62,4.01-9.93-1.41-8.74-6.32
		c3.93-16.28,9.26-32.18,15.99-47.52c22.92-52.25,60.99-97.7,108.86-128.8c0.37-0.53,0.89-1.03,1.59-1.46
		c13.08-8.09,29.19-9.03,43.28-2.72c14.14,6.33,23.83,18.83,27.81,33.67C1337.82,393.45,1335.53,409.6,1328.2,423.38z"/>
</g>
<path d="M1177.01-66.82c-0.78,0-0.78,1.21,0,1.21C1177.79-65.61,1177.79-66.82,1177.01-66.82z"/>
<path class="st0" d="M754.48,425.46c-3.98-11.78-10.45-22.58-17.98-32.42c-2.17-2.84-4.44-5.62-6.77-8.33
	c-0.29-0.33-0.62-0.46-0.94-0.46c-1.03-1.27-2.23-2.41-3.55-3.38c-0.89-0.97-1.88-1.84-3-2.57c-4.25-2.77-8.77-2.65-13.13-1.1
	c-2.81,0.67-5.33,2.42-7.58,4.15c-3.85,2.96-7.44,6.25-11.13,9.4c-18.39,15.73-37.17,31.01-54.85,47.56
	c-15.31,14.33-29.55,29.76-43.03,45.82c-12.67,15.1-24.68,31.15-33.2,49.01c-7.97,16.72-12.83,35.57-8.83,54.03
	c0.48,2.21,1.08,4.38,1.8,6.52c0.22,0.66,0.98,1.26,1.72,0.98c8.66-3.34,17.38-6.53,26.08-9.75c10.23-3.79,20.44-7.62,30.59-11.61
	c11.09-4.36,22.12-8.9,33.01-13.74c0.05-0.02,0.1-0.05,0.15-0.07c3.61-1.24,7.06-2.91,10.44-4.78c7.44-3.48,14.8-7.12,22.04-11
	c10.33-5.53,20.44-11.52,30.08-18.21c8.96-6.22,17.56-13.04,25.26-20.77c6.97-6.99,13.26-14.78,18-23.46
	c0.4-0.74,0.78-1.48,1.15-2.23c3.48-5.07,5.89-11.36,6.04-16.72c0.56-2.51,0.99-5.05,1.25-7.62
	C759.08,444.84,757.64,434.84,754.48,425.46z"/>
<path class="st0" d="M1033.81-214.85c-0.52-0.67-1.54-0.94-2.29-0.46c-2.02,1.29-3.51,3.01-4.42,5.23
	c-0.88,2.15-0.88,4.51-0.53,6.78c0.15,1,1.46,1.64,2.38,1.35c1.09-0.35,1.51-1.3,1.35-2.38c0-0.03-0.01-0.05-0.01-0.07
	c-0.01-0.11-0.03-0.23-0.04-0.34c-0.02-0.22-0.03-0.45-0.04-0.67c-0.02-0.46-0.01-0.92,0.03-1.37c0.01-0.1,0.02-0.19,0.03-0.29
	c0-0.01,0-0.01,0.01-0.03c0.05-0.22,0.08-0.45,0.14-0.67c0.1-0.41,0.23-0.82,0.38-1.22c0.01-0.03,0.05-0.12,0.07-0.16
	c0.01-0.02,0.02-0.05,0.03-0.06c0.1-0.2,0.2-0.4,0.31-0.59c0.1-0.17,0.21-0.35,0.32-0.51c0.06-0.09,0.13-0.18,0.19-0.28c0,0,0,0,0,0
	c0.61-0.7,1.22-1.36,1.96-1.93C1034.37-213.06,1034.29-214.23,1033.81-214.85z"/>
<path class="st0" d="M695.52,318.94c-1.37-7.81-4.86-15.14-7.59-22.52c-0.81-2.18-1.58-4.38-2.29-6.6c-0.4-1.26-1.62-1.59-2.61-1.27
	c-2.39-4.74-4.79-9.48-7.21-14.2c-0.96-1.87-3.62-0.84-3.73,1.01c-0.6,10.27-2.49,20.42-5.68,30.2
	c-3.02,9.27-7.18,18.11-12.18,26.47c-5,8.36-10.81,16.22-17.1,23.65c-6.48,7.65-13.44,14.88-20.63,21.87
	c-7.27,7.07-14.78,13.89-22.31,20.68c-7.58,6.82-15.19,13.6-22.65,20.55c-7.33,6.83-14.52,13.83-21.31,21.19
	c-6.67,7.22-12.96,14.81-18.57,22.89c-5.47,7.87-10.25,16.23-14,25.05c-3.88,9.13-6.67,18.68-8.14,28.49
	c-0.38,2.57-0.69,5.15-0.92,7.74c-0.18,2.09,2.74,2.56,3.73,1.01c11.87-18.61,24.14-36.98,37.22-54.77
	c12.83-17.44,26.48-34.29,41.15-50.22c7.55-8.2,15.37-16.16,23.44-23.85c4.04-3.84,8.11-7.63,12.49-11.09
	c4.17-3.3,8.56-6.33,13.01-9.22c8.92-5.8,18.19-11.03,27.16-16.75c4.48-2.85,8.88-5.82,13.1-9.03c4.02-3.06,7.84-6.29,10.9-10.35
	C695.44,333.71,696.84,326.44,695.52,318.94z"/>
<path class="st0" d="M861.71,353.8c-1.55,0-1.55,2.41,0,2.41C863.26,356.21,863.26,353.8,861.71,353.8z"/>
<path d="M693.36,297.37c0.07-0.25,0.09-0.51,0.07-0.77c0.55-0.16,1.06-0.51,1.43-0.97c1.81,0.24,3.84-1.67,2.66-3.76
	c-0.32-0.57-0.63-1.16-0.93-1.75c1.5-0.22,2.9-1.89,2.02-3.7c-1.43-2.92-2.15-6.13-3.57-9.06c-0.56-1.16-2.22-1.47-3.27-0.86
	c-0.14,0.08-0.26,0.17-0.38,0.27c-0.64-0.3-1.32-0.52-2.06-0.62c-1.56-0.19-2.53,1.62-2.23,2.92c0.03,0.11,0.06,0.22,0.08,0.33
	c-0.38,0.14-0.72,0.36-1.01,0.65c-0.38-0.07-0.76-0.05-1.12,0.06c-0.66-0.27-1.37-0.15-1.96,0.22c-0.38,0.03-0.77,0.18-1.12,0.46
	c-0.79,0.63-1.08,1.66-0.73,2.6c-0.13,0.59-0.01,1.22,0.48,1.79c0.02,0.33,0.12,0.67,0.35,1.02c0.44,0.65,0.86,1.3,1.28,1.95
	c0.46,1.05,0.95,2.06,1.57,3.01c3.12,6.2,6.45,12.3,9.78,18.4c1.41,2.58,5.13,0.31,3.9-2.28
	C696.99,303.91,695.19,300.63,693.36,297.37z"/>
<g>
	<path class="st0" d="M1431.05,631.91c-2.58-10.94-10.02-21.27-20.9-25.04c-10.13-3.51-21.52-1.46-31.61,1.12
		c-4.55,1.16-9.04,2.57-13.57,3.81c-1.74,0.48-3.5,0.94-5.28,1.26c-0.17,0.03-0.33,0.06-0.5,0.08c-0.02,0-0.03,0.01-0.05,0.01
		c-0.3,0.02-0.59,0.07-0.89,0.08c-0.46,0.03-1-0.05-1.47-0.01c0.18,0,0.17,0.08,0.05,0.09c0.03,0.02,0.01,0.03-0.09-0.01
		c-0.03-0.01-0.07-0.02-0.1-0.04c0,0,0,0,0,0c-0.01,0-0.01,0-0.02-0.01c0,0-0.01,0-0.01-0.01c0,0,0,0,0,0c0,0,0,0,0,0c0,0,0,0,0,0
		c-0.02-0.01-0.04-0.02-0.07-0.04c-0.04-0.03-0.05-0.05-0.07-0.06c-1.16-0.77-2.9-0.14-3.56,0.99c-0.15,0.25-0.23,0.5-0.29,0.75
		c-2.62,0.33-3.43,4.63-0.36,5.47c14.39,3.96,28.59,8.66,41.02,17.02c2.82,1.9,4.91,3.52,7.44,5.92c2.39,2.26,4.34,4.51,5.97,6.9
		c0.84,1.24,1.61,2.53,2.3,3.87c0.85,1.65,1.15,2.35,1.72,3.96c1.09,3.11,1.68,6.12,1.87,8.98c0.6,8.8-1.73,17.37-5.32,25.53
		c-0.56,1.28-0.48,2.71,0.72,3.6c1.05,0.78,2.74,0.85,3.67-0.22c7.35-8.46,12.82-18.6,16.46-29.18
		C1431.92,655.69,1433.76,643.42,1431.05,631.91z M1392.43,629.63c0.11,0.26,0.23,0.52,0.35,0.78c-0.53-0.32-1.06-0.63-1.6-0.94
		C1391.6,629.54,1392.01,629.6,1392.43,629.63z"/>
	<path class="st0" d="M1356.63,613.24c-0.01,0-0.01,0-0.01,0c0,0,0,0,0,0C1356.62,613.24,1356.63,613.24,1356.63,613.24
		c0.01,0.01,0.01,0.01,0.01,0.02c0.04,0.02,0.08,0.04,0.1,0.05c0.03,0.01,0.06,0.01,0.09,0.01c-0.02-0.02-0.06-0.05-0.12-0.08
		c0.02,0,0.04,0,0.06-0.01c-0.02,0-0.04,0-0.07,0c-0.14-0.09-0.31-0.17-0.24-0.09c0.02,0.01,0.05,0.02,0.07,0.04
		C1356.59,613.2,1356.62,613.22,1356.63,613.24z"/>
</g>
<path class="st0" d="M1578.79,657.14c-0.11-1.07-0.84-2-2-2c-0.99,0-2.11,0.92-2,2c1.16,11.04,0.12,22.46-5.52,32.23
	c-5,8.67-12.96,15.02-21.66,19.75c-5.35,2.91-10.97,5.24-16.71,7.26c-0.16,1.41-0.32,2.82-0.48,4.22c0.25,0.02,0.53-0.01,0.83-0.11
	c10.76-3.74,21.39-8.51,30.19-15.87c8.18-6.83,14.05-15.99,16.4-26.42C1579.4,671.31,1579.53,664.16,1578.79,657.14z"/>
<g>
	<path d="M1368.52,608.16c-0.23-0.84-1.23-1.5-2.1-1.19c-0.22,0.08-0.45,0.15-0.67,0.23c-0.22,0-0.45,0.03-0.67,0.1
		c-0.01-0.04-0.02-0.09-0.03-0.13c-0.4-1.23-1.78-2.25-3.12-1.77c-1.3,0.46-2.59,0.94-3.89,1.39c-1.2,0.2-2.41,0.35-3.63,0.47
		c-2.46,0.24-5.02,0.3-7.45,0.77c-0.78,0.15-1.34,1-1.34,1.76c0,0.47,0.24,1.03,0.62,1.39c-0.01,0.08-0.02,0.16-0.02,0.22
		c-0.01,0.42,0.12,0.85,0.34,1.22c-1.14,0.33-2.28,0.62-3.45,0.87c-0.15-0.14-0.31-0.27-0.49-0.38c-0.18-0.1-0.38-0.19-0.57-0.24
		c-0.12-0.03-0.67-0.02-0.93-0.01c-0.75,0.17-1.38,0.69-1.55,1.44c-0.84,0.48-1.39,1.29-1.23,2.34c0.17,1.14,1.1,1.99,2.28,2.01
		c4.16,0.06,8.39-1.57,12.14-3.21c1.06-0.47,2.11-0.98,3.14-1.5c0.88-0.23,1.75-0.49,2.62-0.77c2.81-0.56,5.57-1.31,8.13-2.55
		c0.11-0.06,0.22-0.13,0.31-0.21c0.13-0.04,0.25-0.08,0.38-0.13C1368.2,609.95,1368.78,609.1,1368.52,608.16z"/>
	<path d="M1341.12,612.84c0.11-0.02,0.21-0.04,0.32-0.05C1340.9,612.84,1340.92,612.84,1341.12,612.84z"/>
</g>
<path d="M648.36,703.83c0.35-0.01,0.71-0.25,0.73-0.67c0.04-1.04-0.15-2.08-0.12-3.12c0.02-0.65-0.71-0.82-1.12-0.52
	c-0.05-0.07-0.11-0.13-0.18-0.16c-0.02-0.06-0.03-0.12-0.05-0.18c-0.01-0.23-0.04-0.46-0.04-0.69c0-0.3-0.15-0.48-0.35-0.58
	c0,0,0-0.01,0-0.01c-0.03-0.1-0.06-0.2-0.1-0.3c-0.21-0.88-0.4-1.76-0.57-2.65c-0.05-0.24-0.28-0.4-0.52-0.43
	c-0.02-0.02-0.04-0.02-0.06-0.03c-0.01-0.03-0.02-0.07-0.03-0.1c-0.15-0.71-1.22-0.41-1.08,0.3c0.26,1.28,0.58,2.54,0.97,3.79
	c0.08,0.67,0.17,1.34,0.3,2c0.02,0.12,0.07,0.25,0.1,0.38c0,0.04-0.02,0.08-0.01,0.13c0.01,0.06,0.02,0.12,0.03,0.19c0,0,0,0,0,0
	c0,0.01,0,0.01,0,0.02c0.03,0.23,0.08,0.46,0.14,0.69c0.03,0.22,0.07,0.44,0.11,0.66c0,1.21,0.17,2.41,0.35,3.61
	c0.03,0.18,0.05,0.36,0.07,0.54c0.01,0.15,0.02,0.31,0.03,0.46c0,0.05,0.03,0.07,0.04,0.11c0.01,0.11,0.03,0.23,0.04,0.34
	c-0.01,0.17-0.01,0.33-0.01,0.5c0.01,1.86,0.11,3.81,0.79,5.57c0.16,0.42,0.81,0.26,0.68-0.19c0-0.02-0.01-0.03-0.01-0.05
	c0.17-0.04,0.3-0.19,0.23-0.41c-0.11-0.35-0.19-0.71-0.26-1.07c0.02-0.05,0.02-0.11,0.01-0.17c0.11-0.07,0.19-0.19,0.15-0.37
	c-0.13-0.59-0.24-1.18-0.34-1.77c0.12-0.05,0.22-0.15,0.21-0.31c-0.03-0.42-0.08-0.83-0.12-1.25c0.28-0.01,0.55-0.24,0.48-0.6
	c-0.13-0.73-0.2-1.47-0.36-2.2c-0.08-0.39-0.18-0.79-0.27-1.18C648.3,704.02,648.35,703.94,648.36,703.83z"/>
<path d="M643.46,692.72c-0.22-0.06-0.51,0.08-0.56,0.32c-0.11,0.62-0.23,1.24-0.35,1.86c-0.04-0.01-0.09-0.03-0.13-0.03
	c-0.28,0-0.44,0.22-0.47,0.47c-0.09,0.67-0.14,1.34-0.2,2.01c-0.06,0.67-0.17,1.34-0.2,2c-0.01,0.31,0.27,0.44,0.51,0.39
	c-0.02,0.35-0.03,0.7-0.06,1.05c-0.01,0.2-0.03,0.39-0.04,0.59c-0.06,0.07-0.1,0.15-0.1,0.27c0,0.07-0.01,0.15-0.01,0.22
	c0,0,0,0,0,0c-0.25-0.01-0.51,0.14-0.5,0.47c0.03,1.06,0.12,2.13,0.18,3.21c-0.02,0.29-0.04,0.58-0.07,0.87
	c-0.11,1.2-0.25,2.42-0.28,3.63c-0.02,0.06-0.03,0.12-0.04,0.18c-0.04,0.14-0.02,0.26,0.03,0.35c0,0,0,0.01,0,0.01
	c0,0.19,0.13,0.33,0.28,0.39c0,0.02,0,0.04,0,0.06c-0.01,0.53,0.73,0.49,0.8,0c0.24-1.75,0.35-3.52,0.42-5.3
	c0.26-1.6,0.37-3.24,0.43-4.86c0.03-0.86,0.03-1.73,0.03-2.6c0.18-1.44,0.37-2.89,0.55-4.33c0-0.03-0.01-0.06-0.01-0.09
	c0.03-0.2,0.07-0.39,0.1-0.59C643.82,693.04,643.71,692.8,643.46,692.72z"/>
<path d="M598.27,923.11c-0.77-0.71-1.46-1.47-2.11-2.26c-0.4-1.05-0.97-2.06-1.43-3.01c-0.23-0.46-0.44-0.93-0.65-1.41
	c-0.01-0.03-0.02-0.05-0.02-0.08c-0.03-0.1-0.07-0.18-0.12-0.24c-0.23-0.55-0.46-1.11-0.66-1.67c-0.08-0.28-0.17-0.56-0.24-0.85
	c-0.03-0.1-0.07-0.18-0.13-0.24c-0.27-0.82-0.52-1.64-0.73-2.47c-0.04-0.14-0.12-0.24-0.22-0.3c-0.29-0.43-1.07-0.21-1.11,0.37
	c-0.01,0.15,0,0.31,0.01,0.46c-0.54-1.28-1.05-2.57-1.54-3.85c-1.32-3.41-2.46-6.88-3.4-10.42c-0.85-3.22-1.46-6.49-2.25-9.73
	c-0.36-1.45-0.75-3.01-0.98-4.59c0.26-0.03,0.48-0.33,0.32-0.6c-0.1-0.16-0.16-0.34-0.22-0.52c0.03-0.04,0.05-0.08,0.06-0.13
	c0.35,0,0.7-0.28,0.6-0.74c-0.05-0.24-0.11-0.48-0.16-0.72c0.23-0.04,0.43-0.2,0.41-0.5c-0.06-1.02-0.05-2.04-0.06-3.05
	c0-0.39-0.38-0.53-0.66-0.43c0.08-0.4,0.15-0.81,0.25-1.21c0.06-0.24-0.02-0.42-0.17-0.54c0.14-0.9,0.31-1.79,0.44-2.69
	c0.05-0.37-0.09-0.75-0.48-0.85c-0.11-0.03-0.23-0.02-0.35,0.01c-0.3-0.04-0.59,0.09-0.66,0.48c-0.31,1.77-0.65,3.54-0.8,5.33
	c-0.07,0.91-0.1,1.82-0.01,2.72c0,0.04,0.01,0.09,0.02,0.14c0,0.07,0,0.15,0.01,0.22c-0.2,2.21,0.28,4.53,0.76,6.63
	c0.34,1.47,0.73,2.93,1.06,4.41c0.4,1.79,0.73,3.59,1.18,5.38c0.92,3.7,2.07,7.33,3.41,10.9c1.14,3.03,2.36,6.07,3.78,8.97
	c0.19,0.39,0.39,0.78,0.59,1.18c0.66,2.13,1.5,4.22,2.56,6.16c-0.33-0.27-0.65-0.54-0.98-0.81c-0.92-0.74-1.82-1.49-2.71-2.27
	c-0.59-0.84-1.2-1.67-1.81-2.47c-0.69-0.91-1.42-1.78-2.17-2.64c-0.16-0.27-0.32-0.53-0.48-0.8c-0.89-1.52-1.78-3.05-2.83-4.48
	c-0.03-0.04-0.06-0.05-0.09-0.08c-0.06-0.11-0.12-0.21-0.18-0.32c-0.06-0.11-0.11-0.21-0.17-0.32c-0.28-0.52-0.55-1.03-0.8-1.56
	c-0.05-0.11-0.13-0.17-0.21-0.22c-0.19-0.41-0.38-0.81-0.55-1.23c-0.2-0.53-1.04-0.32-0.87,0.24c0.05,0.17,0.12,0.33,0.18,0.5
	c-0.2,0.04-0.37,0.19-0.42,0.37c-0.28,0.04-0.53,0.34-0.35,0.67c1.04,1.84,2.12,3.66,3.24,5.45c0.33,0.67,0.65,1.33,0.99,1.99
	c0.73,1.45,1.44,3.03,2.43,4.32c0.22,0.29,0.54,0.26,0.73,0.08c0.34,0.47,0.71,0.92,1.13,1.33c0.05,0.05,0.11,0.09,0.18,0.11
	c0.1,0.13,0.2,0.26,0.3,0.39c0.21,0.26,0.41,0.52,0.62,0.78c0.2,0.29,0.42,0.57,0.66,0.82c0.74,0.91,1.49,1.81,2.32,2.63
	c0.37,0.37,0.83,0.05,0.85-0.36c0.35,0.33,0.77,0.03,0.77-0.34c0.56,0.54,1.11,1.09,1.65,1.66c0.27,0.29,0.68,0.11,0.8-0.19
	c0.03,0.01,0.06,0.03,0.1,0.04c0.01,0.01,0.01,0.03,0.02,0.04c0.2,0.33,0.6,0.27,0.78,0.02c0.21-0.1,0.36-0.32,0.26-0.56
	c-0.15-0.38-0.31-0.75-0.48-1.13c0.19-0.14,0.29-0.38,0.13-0.64c-0.11-0.18-0.23-0.35-0.34-0.53c0.08,0.05,0.16,0.12,0.24,0.17
	C598.12,924.42,598.78,923.58,598.27,923.11z"/>
<path class="st0" d="M1656.72-200.79c-20.62,11.69-41.48,22.95-62.42,34.06c-20.89,11.08-41.85,22.03-62.71,33.14
	c-20.89,11.13-41.68,22.43-62.21,34.2c-5.16,2.96-10.31,5.96-15.44,8.98c-4.16,2.46-8.24,5.13-12.52,7.38
	c-6.41,3.38-13.3,5.87-20.06,8.45c-7.48,2.86-14.99,5.68-22.23,9.11c-5.88,2.78-12.06,5.99-16.54,10.82c-0.86,0.93-1.64,1.93-2.31,3
	c-0.34,0.55,0.52,1.05,0.86,0.5c3.31-5.32,9.28-8.75,14.69-11.57c7.1-3.7,14.59-6.6,22.06-9.46c6.88-2.64,13.83-5.15,20.51-8.25
	c3.42-1.59,6.61-3.5,9.84-5.44c5.04-3.01,10.09-5.99,15.17-8.93c20.32-11.79,40.93-23.09,61.64-34.18
	c20.77-11.12,41.64-22.03,62.46-33.04c20.79-10.99,41.52-22.09,62.03-33.59c2.56-1.44,5.12-2.88,7.67-4.33
	C1657.79-200.24,1657.28-201.1,1656.72-200.79z"/>
<path class="st0" d="M647.03,707.5c-0.09-1.88-0.27-3.76-0.52-5.63c-0.02-0.18-0.06-0.35-0.12-0.52c0.08-0.4,0.05-0.83,0-1.23
	c-0.06-0.49-0.16-0.98-0.27-1.47c-0.18-0.75-0.46-1.48-0.81-2.17c-0.1-0.26-0.22-0.51-0.34-0.76c-0.03-0.05-0.06-0.09-0.1-0.12
	c-0.01-0.02-0.01-0.05-0.02-0.07c-0.03-0.11-0.11-0.21-0.21-0.28c-0.11-0.52-0.85-0.55-1.01-0.07c-0.11,0.08-0.19,0.21-0.2,0.37
	c-0.02,0.2-0.03,0.4-0.05,0.59c-0.01,0.02-0.03,0.03-0.03,0.06c-0.19,1.13-0.45,2.24-0.65,3.37c-0.17,0.94-0.31,1.97-0.2,2.94
	c-0.05,0.12-0.08,0.25-0.08,0.39c0,0.24,0,0.48,0,0.72c-0.01,0.04-0.03,0.09-0.04,0.13c-0.04,0.13-0.05,0.26-0.02,0.39
	c0,0.07,0.04,0.12,0.06,0.18c0,0.91,0.01,1.83,0.1,2.74c0.01,0.06,0.03,0.11,0.04,0.17c-0.03,3.06-0.1,6.13-0.23,9.2
	c-0.24,1.7-0.5,3.39-0.75,5.09c-0.23,1.57-0.52,3.16-0.69,4.74c-0.1,0.48-0.2,0.96-0.31,1.44c-1.53,5.31-3.68,10.42-6.25,15.32
	c-6.64,12.68-15.65,23.92-23.98,35.5c-9.03,12.56-17,25.83-23.08,40.08c-6.24,14.63-10.6,30.12-11.61,46.05
	c-0.9,14.22,1.1,28.64,6.54,41.81c0.05,0.18,0.1,0.36,0.16,0.54c0.46,1.46,1,2.97,1.78,4.32c0.28,0.66,0.65,1.27,1.06,1.84
	c0.43,0.82,0.92,1.61,1.47,2.35c-0.01,0.09,0,0.17,0.06,0.25c0.3,0.41,0.53,0.87,0.8,1.3c0.23,0.35,0.5,0.72,0.84,0.98
	c0.33,0.44,0.69,0.86,1.06,1.27c0.02,0.08,0.05,0.15,0.13,0.22c0.28,0.25,0.55,0.51,0.83,0.78c0,0,0,0,0,0
	c0.08,0.12,0.17,0.2,0.27,0.26c0.24,0.24,0.49,0.47,0.73,0.71c0.34,0.38,0.68,0.75,1.05,1.09c0.08,0.08,0.17,0.12,0.26,0.16
	c0.02,0.03,0.04,0.07,0.06,0.1c0.17,0.24,0.38,0.37,0.61,0.42c0.51,0.41,1.05,0.78,1.62,1.1c0.07,0.04,0.14,0.05,0.2,0.04
	c0.47,0.35,0.95,0.68,1.44,1.01c0.27,0.2,0.54,0.4,0.82,0.58c0.03,0.02,0.06,0.02,0.1,0.02c0.24,0.15,0.47,0.3,0.71,0.45
	c0.17,0.17,0.35,0.33,0.54,0.49c0.12,0.1,0.25,0.11,0.36,0.08c0.07,0.04,0.14,0.09,0.21,0.13l0.21,0.21
	c0.06,0.06,0.16,0.08,0.24,0.07c0.16,0.1,0.33,0.2,0.49,0.31c0.13,0.08,0.25,0.08,0.35,0.03c0.03,0.03,0.07,0.07,0.1,0.1
	c0.13,0.12,0.35,0.13,0.47,0c0.12-0.14,0.13-0.34,0-0.47c-0.56-0.57-1.12-1.14-1.68-1.71c-0.04-0.04-0.11-0.05-0.16-0.07
	c-0.01-0.03-0.02-0.06-0.04-0.09c-1.08-1.45-2.51-2.57-3.67-3.95c-0.03-0.03-0.06-0.06-0.1-0.07c-0.25-0.34-0.48-0.68-0.74-1.01
	c-0.02-0.05-0.04-0.11-0.09-0.16c-0.12-0.13-0.23-0.27-0.34-0.41c-0.16-0.21-0.33-0.42-0.49-0.62c-0.55-0.76-1.03-1.56-1.48-2.39
	c-0.01-0.04,0-0.09-0.02-0.14c-1.69-3.67-3.32-7.35-4.75-11.11c-0.16-0.6-0.32-1.2-0.49-1.79c-0.6-2.1-1.23-4.19-1.84-6.29
	c-0.69-4.74-1.86-9.42-2.89-14.1c-0.14-1.07-0.34-2.14-0.5-3.19c-0.16-1.02-0.32-2.05-0.48-3.07c0-0.07,0-0.13,0-0.2
	c0.01-6.19,0.73-12.37,1.77-18.47c2.28-13.42,6.57-26.54,13.33-38.39c6.58-11.52,15.23-21.66,22.68-32.59
	c7.75-11.38,14.8-23.53,20.12-36.24c3-7.16,5.19-14.43,6.17-22.14c0.2-1.59,0.33-3.18,0.43-4.77c0.12-1.06,0.2-2.14,0.25-3.21
	C646.94,716.59,647.26,712.08,647.03,707.5z"/>
<path d="M604.1,928.14c-0.56-0.8-1.41-1.34-2.1-2.02c-0.46-0.45-0.9-0.91-1.34-1.37c0.32-0.29,0.41-0.83-0.07-1.04
	c-0.96-0.41-1.81-1.04-2.58-1.75c-0.01-0.02-0.02-0.05-0.04-0.08c-0.62-0.8-1.21-1.65-1.94-2.36c-0.01-0.01-0.01-0.01-0.02-0.02
	c-0.09-0.12-0.18-0.24-0.27-0.36c-0.01-0.01-0.02-0.02-0.02-0.03c-0.23-0.31-0.46-0.62-0.69-0.93c0,0,0,0,0,0
	c-0.04-0.05-0.07-0.09-0.1-0.14c-0.04-0.04-0.08-0.07-0.12-0.09c-0.01-0.02-0.02-0.03-0.02-0.05c-0.05-0.16-0.15-0.26-0.27-0.31
	c-0.03-0.05-0.07-0.09-0.11-0.14c-0.08-0.11-0.2-0.18-0.32-0.22c-0.78-1.2-1.47-2.46-2.09-3.74c-0.27-0.56-0.53-1.12-0.78-1.69
	c0.42,0.08,0.91-0.24,0.73-0.75c-0.38-1.12-1.06-2.1-1.66-3.11c-0.64-1.07-1.16-2.15-1.6-3.31c-0.12-0.31-0.23-0.63-0.35-0.94
	c-0.41-1.44-0.79-2.88-1.14-4.33c-0.18-0.75-0.34-1.5-0.49-2.25c0-0.02,0.01-0.04,0.01-0.06c0-0.59-0.21-1.17-0.37-1.73
	c-0.01-0.03-0.01-0.06-0.02-0.09c-0.02-0.1-0.04-0.21-0.06-0.31c0.04-0.09,0.06-0.19,0.06-0.31c0-0.53-0.06-1.04-0.16-1.55
	c0.1-0.11,0.16-0.27,0.1-0.47c-0.27-0.99-0.44-1.99-0.84-2.94c0-0.01,0-0.01,0-0.02c0,0,0,0,0,0c-0.02-0.04-0.03-0.08-0.05-0.12
	c-0.07-0.16-0.2-0.23-0.35-0.24c-0.13-0.68-0.28-1.36-0.45-2.04c0.01-0.06,0.03-0.11,0.04-0.17c0.01-1.54-0.42-2.97-0.69-4.47
	c-0.05-0.25-0.21-0.37-0.4-0.39c-0.12-0.08-0.26-0.09-0.4-0.07c-0.08-0.46-0.15-0.93-0.21-1.4c0.19-0.1,0.35-0.29,0.37-0.57
	c0.13-1.71,0.16-3.43,0.11-5.15c0.04-0.34,0.07-0.68,0.14-1.01c0.09-0.45-0.31-0.73-0.65-0.69c0-0.43,0.02-0.86,0.02-1.29
	c0-0.25-0.17-0.38-0.36-0.41c-0.27-0.11-0.66,0.03-0.68,0.41c-0.02,0.4-0.06,0.79-0.09,1.19c-0.04,0.07-0.07,0.15-0.07,0.25
	c0,0.21-0.02,0.43-0.03,0.64c-0.06,0.07-0.1,0.16-0.11,0.27c-0.08,1.23-0.27,2.45-0.33,3.68c-0.02,0.41-0.02,0.83,0,1.24
	c0,0.07-0.01,0.15-0.01,0.22c0,0.4,0.02,0.81,0.08,1.22c0.02,0.93,0.13,1.87,0.27,2.81c0.03,0.66,0.11,1.31,0.32,1.93
	c0,0,0,0.01,0.01,0.01c0.15,0.77,0.3,1.54,0.44,2.3c0.44,2.33,0.82,4.73,1.57,6.98c0.01,0.02,0.01,0.04,0.02,0.06
	c0.75,3.6,1.67,7.13,3,10.58c0.58,1.51,1.24,2.99,1.99,4.43c1.37,3.68,3.09,7.27,5.54,10.33c0.51,0.64,1.07,1.26,1.64,1.85
	c0.8,0.93,1.68,1.79,2.54,2.66c1.11,1.13,2.19,2.36,3.4,3.41c-1.96-0.89-3.88-1.88-5.7-3.02c-0.07-0.05-0.15-0.11-0.22-0.17
	c-1.64-1.22-3.25-2.48-4.68-3.95c-2.87-2.92-5.04-6.36-6.93-9.97c-1.13-2.16-2.13-4.39-3.35-6.5c-0.29-0.51-1.2-0.17-0.98,0.41
	c0.05,0.13,0.09,0.26,0.13,0.39c-0.1,0.14-0.14,0.33-0.04,0.53c0.41,0.81,0.61,1.68,0.91,2.53c0.26,0.74,0.55,1.47,0.89,2.18
	c0.18,0.58,0.37,1.16,0.62,1.72c0.95,2.1,2.43,3.96,3.83,5.78c1.02,1.44,2.19,2.77,3.43,4.03c0.07,0.07,0.14,0.14,0.21,0.21
	c-0.03,0.15-0.02,0.31,0.09,0.46c0.55,0.76,1.3,1.28,2.06,1.82c0.7,0.5,1.35,1.06,2.16,1.37c0,0,0.01,0,0.01,0.01c0,0,0,0,0,0
	c0.06,0.02,0.11,0.05,0.17,0.07c0.18,0.06,0.34,0.04,0.48-0.03c0.16,0.1,0.33,0.2,0.49,0.3c1.59,1.2,3.23,2.38,5.06,3.14
	c0.26,0.11,0.46,0.04,0.61-0.1c0.46,0.2,0.93,0.38,1.4,0.55c0.47,0.17,0.85-0.3,0.85-0.72C603.96,929.11,604.4,928.56,604.1,928.14z
	"/>
<path class="st1" d="M383.7,1133.03V149.34h1113.05v983.69H383.7z"/>
</svg>
