<?xml version="1.0" encoding="utf-8"?>
<!-- Generator: Adobe Adobe Illustrator 24.2.0, SVG Export Plug-In . SVG Version: 6.00 Build 0)  -->
<svg version="1.1" id="Layer_1" xmlns="http://www.w3.org/2000/svg" xmlns:xlink="http://www.w3.org/1999/xlink" x="0px" y="0px"
	 viewBox="0 0 1728 1296" style="enable-background:new 0 0 1728 1296;" xml:space="preserve">
<style type="text/css">
	.st0{fill:none;stroke:#000000;stroke-miterlimit:10;}
	.st1{fill:#FFFFFF;}
</style>
<g>
	<path d="M1199.44,455.06c3.01-6.09,6.31-12,9.66-17.91c0.03-0.22,0.07-0.43,0.1-0.65c7.33-13.77,9.62-29.92,5.55-45.08
		c-3.98-14.84-13.67-27.34-27.81-33.67c-14.09-6.31-30.2-5.37-43.28,2.72c-0.7,0.43-1.22,0.93-1.59,1.46
		c-47.87,31.11-85.94,76.55-108.86,128.8c-6.73,15.34-12.05,31.24-15.99,47.52c-1.19,4.91,4.12,10.33,8.74,6.32
		c28.77-24.96,68.11-29.51,103.2-40.55c27.62-8.69,55.49-23.21,69.69-48.6C1199.05,455.32,1199.24,455.19,1199.44,455.06z"/>
	<path d="M1224.21,292.05c-1.4,0.88-2.83,1.72-4.28,2.52c-0.1,0.04-0.21,0.09-0.31,0.13c-1.11,0.44-2.24,0.83-3.33,1.29
		c-1.6,0.68-3.2,1.37-4.8,2.06c-0.74,0.32-1.48,0.62-2.23,0.91c-0.19,0.07-0.38,0.14-0.57,0.21c-2.11,0.8-4.24,1.49-6.46,2.05
		c-0.2,0.05-0.4,0.1-0.6,0.15c-2.81,0.69-5.65,1.3-8.48,1.91c-10.84,1.87-21.79,2.44-32.8,1.41c-0.15-0.01-0.28,0-0.4,0.03
		c-31.4-2.62-63.17,5.96-89.3,23.64c-28.18,19.07-47.56,48.86-55.16,81.88c-4.26,18.51-5.31,38.61-0.29,57.05
		c1.64,6.02,10.62,4.98,9.79-1.5c-0.03-0.23-0.05-0.45-0.08-0.68c0.24-0.26,0.46-0.58,0.64-0.96c2.28-4.95,3.14-10.83,4.22-16.28
		c0.41-0.54,0.74-1.18,0.9-1.96c10.63-49.91,47.76-92.7,94.32-112.8c1.19-0.51,2.37-0.99,3.56-1.46c1.67-0.39,3.33-0.79,5-1.17
		c2.57-0.59,5.14-1.15,7.71-1.69c2.1-0.26,4.2-0.52,6.3-0.79c6.18-0.81,12.27-1.95,18.23-3.64c0.64-0.15,1.29-0.31,1.92-0.49
		c0.67-0.19,1.31-0.44,1.95-0.69c0.98-0.32,1.95-0.66,2.92-1.02c0.84-0.31,1.68-0.64,2.52-0.98c4.2-1.28,8.28-3.27,12.07-5.05
		c8.53-4.01,16.87-8.42,24.98-13.21c4.56-2.7,9.04-5.52,13.45-8.45C1227.11,293.47,1225.75,291.09,1224.21,292.05z"/>
	<path d="M1297.19,614.15c-24.49-22.12-62.53-8.8-86.97,6.37c-2.03,1.26-2.4,3.77-1.67,5.92c3.98,1.04,7.91,2.25,11.79,3.64
		c4.23,1.04,8.37,2.41,12.39,4.1c4.23,1.63,8.34,3.56,12.3,5.76c27.21,10.33,47.72,37.08,49.22,66.57c0.28,5.6,9.07,6.23,10.7,1.12
		C1314.59,677.51,1324.26,638.6,1297.19,614.15z"/>
	<path d="M1397.94,584.61c-8.3-21.82-20.81-40.62-33.52-60.02c-6.13-9.35-12-18.9-16.61-29.11c-4.27-9.47-7.16-19.6-9.79-29.63
		c-11.93-45.35-18.25-91.43-18.07-138.36c0.18-45.8,4.25-91.47,6.48-137.19c1.02-20.82-0.01-44.63-17.26-59.12
		c-15.53-13.05-37.54-14.07-54.87-4.48c-20.23,3.4-38.68,13.07-57.01,22.25c-8.44,4.23-17.03,8.12-25.65,11.95
		c-3.98,1.46-7.86,3.14-11.6,5.13c-0.92,0.41-1.84,0.82-2.76,1.23c-10.16,3.57-20.02,7.95-29.75,12.67
		c-13.13,4.18-26.37,8.24-39.02,12.62c-20.26,7.02-40.32,14.93-58.17,26.42c-5.64,1.82-11.22,3.84-16.73,5.99
		c-14.14,5.51-28.66,11.76-41.08,20.77c-4.47,1.81-8.94,3.61-13.5,5.18c-14.27,4.91-29.04,8.78-43.94,11.19
		c-14.35,2.33-28.87,3.69-43.39,4.12c-4.45,0.13-8.95,0.69-13.45,1.29c-22.65-1.83-45.04-6.4-66.78-13.25
		c-2.52-1.05-5.03-2.12-7.5-3.27c-12.28-5.67-23.71-12.59-34.48-20.78c-3.95-3-7.89-6.01-11.91-8.88
		c-4.15-3.16-8.37-6.22-12.74-9.08c-6.89-4.51-13.89-8.94-20.98-13.16c-2.16-1.46-4.36-2.86-6.65-4.15
		c-5.75-3.23-11.72-6.59-18.12-8.22c-1.09-0.9-2.5-1.51-4.24-1.62c-1.95-0.13-3.89-0.27-5.82-0.41c-2.81-0.9-5.68-1.66-8.63-2.25
		c-22.89-4.54-44.92-0.15-67.01,6c-22.08,6.15-44.5,11.67-67.37,13.72c-23.64,2.12-46.45-0.83-69.84-3.99
		c-23.64-3.19-47.26-6.7-70.62-11.58c-23.2-4.85-47.05-14.3-71.07-12.69c-21.24,1.42-41.07,10.54-55.69,26.09
		c-15.01,15.96-23.07,35.47-25.88,57c-1.61,12.31-2.66,24.53-2.5,36.79c1.03,4.94,2.06,9.88,3.1,14.81
		c0.76,3.11,1.53,6.21,2.29,9.32c0.73,1.73,1.46,3.45,2.19,5.18c0.47,2,0.96,3.99,1.45,5.98c2.36,9.56,5.14,19.02,8,28.45
		c5.94,19.58,12.2,39.09,17.5,58.86c11.12,41.45,18.95,84.02,27.04,126.15c8.14,42.43,15.53,85,22.33,127.67
		c6.75,42.38,12.29,84.96,19.98,127.19c4.15,22.8,8,46.02,15.21,68.09c3.62,11.08,7.91,22,12.57,32.68
		c4.43,10.17,10.06,19.84,14.06,30.19c0.2,0.52,0.44,1.03,0.7,1.51c1.46,4.03,2.97,8.03,4.7,11.93
		c6.66,15.05,14.27,29.78,21.8,44.41c12.57,24.42,28.09,47.23,45.54,68.42c35.52,43.13,80.62,79.1,132.43,100.54
		c27.69,11.46,57.43,17.94,87.42,18.37c22.49,4.72,48.01,1.04,69.77-4.86c11.61-3.14,23.23-7.54,33.38-14.06
		c10.13-6.51,17.51-15.08,25.71-23.68c14.15-14.85,36.73-18.94,56.9-22.61c21.65-3.94,43.87-6.4,65.91-4.99
		c23.19,1.48,46.83,8.93,65.8,23.66c1.56,1.21,3.29,2.15,5.07,2.76c1.97,1.48,3.98,2.91,6.05,4.23
		c16.29,10.37,36.85,16.1,56.14,16.11c9.91,0.01,19.74-1.59,29.51-3.06c0.59-0.09,1.18-0.18,1.77-0.26
		c0.16-0.02,0.36-0.04,0.59-0.06c0.4-0.04,0.81-0.07,1.21-0.11c12.54-3.37,25.52-5.04,38.31-7.43c4.51-0.84,9.07-1.61,13.48-2.92
		c4.07-1.21,7.9-3.11,11.94-4.36c2.89-0.89,5.9-1.35,8.86-2c8.03-3.85,16.27-7.27,24.12-11.47c7.7-4.12,15.09-8.79,22.45-13.48
		c13.44-8.57,27.31-16.45,40.24-25.8c12.89-9.32,25.18-19.5,36.46-30.73c22.64-22.54,41.37-49.05,52.95-78.91
		c5.21-13.43,8.84-27.35,11.39-41.5c-0.36-10.09,0.53-20.23,1.75-30.24c3.32-27.18,9.04-54.14,16.23-80.68
		c6.22-30.35,15.61-60.28,25.95-89.14c2.81-7.85,5.8-15.73,9.03-23.53c0.03-0.52,0.12-1.07,0.32-1.66
		c1.52-4.51,3.18-8.97,4.77-13.45c2.7-12.13,5.26-24.27,5.77-36.78C1411.49,629.83,1405.96,605.68,1397.94,584.61z M827.15,994.79
		c-6.5,18.89-27.84,17.64-44.3,19.23c-42.25,4.07-84.5,8.15-126.75,12.22c-1.49,0.14-2.58,0.74-3.33,1.58
		c-7.64,0.68-15.17,2.48-22.68,3.99c-5.28,1.06-4.24,9.09,0.78,8.67c0.32,0.33,0.73,0.61,1.26,0.79c4.08,1.39,8.18,2.66,12.32,3.85
		c0.54,0.15,1.03,0.15,1.48,0.06c0.63,0.45,1.34,0.79,2.13,0.94c42.28,7.86,84.57,15.72,126.85,23.57
		c4.84,8.79,5.26,18.42,2.81,27.54c-1.14,1.75-1.7,3.59-1.79,5.4c-4.26,10.69-12.26,20.26-21.32,26.4
		c-20.81,14.1-48.56,17.19-73.05,17.13c-50.58-0.13-99.86-17.83-141.77-45.8c-89.91-59.99-138.51-162.53-165.33-264.62
		C359.13,777.4,350,717.66,340.6,658.12c-9.7-61.44-21.1-122.25-35.67-182.72c-2.22-9.21-4.46-18.41-6.71-27.62
		c-1.59-7.15-3.2-14.29-4.85-21.42c-1.73-7.5-3.68-14.93-5.74-22.34c-1.44-6.07-2.89-12.15-4.29-18.23
		c-6.39-27.69-13.18-55.67-16.79-83.89c-2.73-21.38-3.43-44.58,4.99-64.85c9.16-22.04,29.97-34.3,53.34-34.49
		c25.42-0.21,50.07,9.45,73.89,17.27c27.03,8.87,54.76,14.72,83.19,16.31c29.3,1.64,58.89-0.79,87.49-7.47
		c26.7-6.24,52.55-17.54,80.1-19.61c4.37-0.33,8.71-0.31,12.99,0.07c7.65,2.64,14.8,6.57,21.72,11.12
		c25.76,25.56,26.47,67.83,24.31,102.23c-1.54,24.58-3.98,49.36-0.23,73.87c3.36,21.94,11.03,43.02,20.47,62.99
		c9.43,19.93,20.62,38.93,31.53,58.05c9.9,17.34,20.23,34.83,25.05,54.43c3.96,16.12,5.08,35.34-6.69,48.58
		c-13.4,15.07-35.77,14.4-54.17,14.53c-23.64,0.17-46.55,3.35-68.92,11.29c-22.9,8.12-44.24,20.68-62.59,36.68
		c-3.48,3.03-2.1,9.68,2.93,9.97c53.07,3.07,103.62,27.23,139.93,65.87c-0.22-0.02-0.44-0.03-0.66-0.04
		c-1.31-0.09-2.61-0.25-3.92-0.32c-0.05,0-0.09,0-0.14-0.01c-0.85-0.14-1.71-0.28-2.56-0.46c-1.48-0.3-2.94-0.66-4.4-1.04
		c-37.64-11.9-78.68-12.69-115.8,2.18c-42.81,17.14-78.2,54.66-88.35,100.47c-9.74,43.95,6.15,93.62,41.5,121.73
		c41.27,32.82,97.95,28.15,146.63,20.32c35.45-5.7,83.47-13.75,107.09-44.16c2.09,1.76,4.8,2.25,7.51,1.76
		c1.61,3.58,3.09,7.24,4.17,11.01C829.24,978.17,829.9,986.81,827.15,994.79z M1377.17,645.92c-2.65,27.09-12.42,52.85-22.23,78.02
		c-10.2,26.18-20.96,52.33-26.55,79.98c-5.96,29.51-5.33,59.78-8.09,89.65c-2.54,27.44-8.82,53.99-22.95,77.89
		c-12.76,21.59-29.94,40.13-49,56.3c-19.22,16.31-40.26,30.4-61.87,43.31c-24.78,14.79-50.26,29.33-77.49,39.11
		c-25.56,9.18-54.83,14.19-81.21,5.43c-21.96-7.29-42.56-22.96-52.09-44.47c-3.71-8.37-5.32-17.21-4.8-26.2
		c59.08,4.88,118.93-10.45,168.92-42.25c14.8-9.41,28.58-20.32,41.19-32.51c4.29-4.14,0.32-12.3-5.75-9.46
		c-49.78,23.26-103.82,36.58-158.71,39.15c-13.94,0.65-27.91,0.56-41.85-0.24c-11.97-0.68-25.44-0.82-36.35-6.4
		c-8.6-4.39-17.4-16.35-10.78-25.89c5.66-8.15,18.48-7.29,27.09-6.47c26.77,2.55,53,5.37,79.96,3.62
		c26.41-1.71,52.91-7.08,77.27-17.63c40.87-17.7,77.26-51.27,90.47-94.71c9.13-30,6.11-61.48,9.83-92.23
		c2.98-24.62,11.2-50.47,32.04-65.67c5.05-3.68-0.1-12.3-5.75-9.46c-81.36,40.86-148.87,127.43-247.82,121.85
		c-20.85-1.17-41.19-7.2-58.19-19.22c36.85-22.38,68.53-52.4,92.92-87.91c0.22-0.16,0.43-0.33,0.62-0.54
		c2.32-2.58,4.41-5.46,6.37-8.47c0.31-0.2,0.6-0.43,0.86-0.73l0.09,0.06c1.96-3.23,3.86-6.5,5.75-9.77c0.33-0.56,0.5-1.13,0.56-1.68
		c0.86-1.48,1.71-2.95,2.58-4.37c2.54-3.96-3.33-8.25-5.99-4.28c-0.2,0.3-0.4,0.59-0.6,0.89c-0.32,0.02-0.66,0.07-1.02,0.17
		c-16.61,4.72-32.72,10.92-49.46,15.29c-16.44,4.29-33.12,7.67-49.93,10.1c-31.43,4.55-63.39,6.06-95.09,3.82
		c30.08-40.59,49.05-89.43,54.42-139.64c2.83-26.44,2.1-53.36-2.38-79.58c-2.27-13.31-5.55-26.45-9.74-39.28
		c-4.72-14.48-11.18-28.38-15.11-43.12c-0.2-0.74-0.38-1.48-0.56-2.22c-0.02-6.06,0.18-12.12,0.93-18.14
		c3.74-15.27,14.09-28.85,23.77-41.14c2-2.53,4-5.06,5.98-7.61c1-0.89,2-1.78,2.99-2.67c0.81-0.59,1.61-1.17,2.42-1.75
		c-0.07-0.08-0.14-0.14-0.22-0.21c1.91-1.7,3.82-3.41,5.7-5.15c29.66-21.06,65.04-34.83,98.24-48.43
		c57.08-23.38,114.16-46.76,171.24-70.13c11.56-4.06,22.93-8.7,34.15-13.58c4.02-1.75,8.01-3.55,11.98-5.38
		c3.67-1.49,7.34-2.98,11.02-4.44c0.75-0.3,1.51-0.58,2.26-0.85c2.59-0.72,5.19-1.44,7.78-2.17c0.12-0.02,0.25-0.06,0.37-0.08
		c0.13-0.05,0.26-0.09,0.39-0.14c3.57-1.02,7.14-2.07,10.68-3.21c4.81-1.55,9.47-3.46,14.24-5.11c4.13-1.43,8.35-2.59,12.62-3.49
		c4.1,1.03,7.53,3.9,8.85,7.88c0.26,2.29,0.29,4.63,0.29,6.84c0,7.08-0.22,14.17-0.39,21.25c-0.2,8.52-0.11,17.05-0.41,25.56
		c-0.58,16.36-2.86,32.58-4.46,48.85c-0.81,8.24-1.44,16.51-1.58,24.79c-0.15,8.39,0.37,16.71,1.17,25.06
		c0.13,1.31,0.26,2.62,0.39,3.93c-0.19,17.48,0.32,34.97,1.7,52.4c2.04,25.87,5.85,51.77,11.78,77.05
		c5.13,21.9,12.38,44.4,26.24,62.46c0.18,0.23,0.37,0.45,0.55,0.68c0.2,0.27,0.4,0.53,0.61,0.8c0.24,0.37,0.48,0.74,0.73,1.1
		c0.27,0.4,0.56,0.8,0.84,1.19l0,0c10.49,15.24,21.38,30.22,30.31,46.44C1373.11,592.79,1379.86,618.43,1377.17,645.92z"/>
	<path d="M601.21,412.09c-0.62-2.96-1.3-5.92-2.07-8.85c-1.2-4.57-2.76-9.01-4.08-13.54c-1.23-4.2-2.38-8.51-4.57-12.33
		c-0.71-1.24-1.58-2.36-2.47-3.47c0-0.01-0.01-0.02-0.01-0.03c-0.09-0.19-0.2-0.34-0.29-0.5c-0.21-0.52-0.41-1.05-0.61-1.56
		c-0.47-1.22-1.22-2.04-2.1-2.53c-0.7-3.07-4.71-5.42-7.6-3.76c-3.59,2.05-7.19,4.07-10.8,6.07c-0.53,0.29-1.01,0.65-1.43,1.05
		c-0.18,0.08-0.37,0.16-0.55,0.27c-19,10.69-36.65,23.5-52.65,38.16c-28.09,21.04-53.51,45.66-75.42,73.28
		c-8.7,10.97-17.99,22.51-24.48,34.98c-3.17,6.1-5.09,13.41-2.11,20c2.41,5.31,7.4,8.78,12.86,10.3
		c12.74,3.55,27.82,0.81,40.68-0.85c14.86-1.92,29.55-5,43.95-9.13c18.38-5.27,36.63-12.17,53.91-20.91
		c8.45-3.15,16.73-6.88,24.67-11.16c3.13-1.69,6.21-3.46,9.28-5.26c0.03-0.02,0.07-0.03,0.1-0.05c2.6-1.3,5.25-2.9,7.27-5.07
		c0.04-0.04,0.07-0.08,0.11-0.12c0.07-0.08,0.14-0.15,0.21-0.22c1.46-0.73,2.62-2.09,2.92-4.18
		C609.76,465.74,608.09,438.28,601.21,412.09z"/>
	<path d="M578.03,285.57c-0.2-0.89-0.45-1.77-0.74-2.63c0.2-0.29,0.28-0.67,0.12-1.12l-10.05-29.14c-0.36-1.04-2-1.51-2.55-0.34
		c-9.58,20.26-20.04,40.39-33.96,58.02c-6.91,8.75-14.67,16.78-23.31,23.81c-9.25,7.53-19.29,13.99-29.2,20.6
		c-10,6.67-19.73,13.69-29.07,21.29c-5.92,4.82-11.69,9.83-17.36,14.94c-1.72,1.53-3.45,3.09-5.15,4.69
		c-1.51,1.39-3.01,2.78-4.51,4.18c-8.79,8.25-17.39,16.7-25.95,25.19c-7.59,7.53-15.08,15.19-22.04,23.32
		c-13.41,15.66-25.3,33.57-29.57,54.11c-0.53,2.52-0.92,5.07-1.22,7.63c-0.17,1.48,1.93,1.78,2.6,0.71
		c11.72-18.55,25.01-36.07,39.69-52.34c2.12-2.34,4.27-4.65,6.44-6.95c8.07-7.91,16.37-15.56,24.64-23.26
		c1.76-1.64,3.48-3.33,5.18-5.04c3.75-3.2,7.55-6.34,11.42-9.39c17.73-13.99,36.81-25.9,56.2-37.39
		c19.87-11.76,39.91-23.39,58.16-37.65c8.6-6.72,17.19-13.92,23.35-23.06C577.07,307.01,580.37,296.09,578.03,285.57z"/>
	<path d="M546.62,718.76c0.18-2.09-0.01-4.16-0.86-5.96c0-0.15,0.01-0.3,0.01-0.46c0-0.43-0.16-0.75-0.4-0.97v-0.11
		c0-0.52-0.46-1.02-1-1s-1,0.44-1,1v0.12c-0.24,0.22-0.39,0.54-0.4,0.97c0,0.52-0.02,1.04-0.04,1.56c-0.04,0.42-0.06,0.85-0.07,1.27
		c-0.58,8.44-3.51,16.39-7.52,23.84c-4.39,8.16-10.36,15.09-15.96,22.4c-1.41,1.85-2.78,3.73-4.08,5.66
		c-8.53,9.28-17.64,18.02-26.01,27.45c-10.12,11.39-18.56,23.9-24.82,37.82c-6.57,14.61-10.8,30.27-11.92,46.27
		c-1.12,15.96,0.99,32.18,6.69,47.15c0.72,1.9,1.5,3.77,2.33,5.63c0.67,1.51,2.87,0.39,2.55-1.08c-3.38-15.6-3.65-31.77-1.25-47.54
		c2.4-15.82,7.3-31.23,13.86-45.81c3.2-7.11,6.71-14.14,10.74-20.82c3.43-5.7,7.32-11.12,11.37-16.39
		c8.53-11.1,17.82-21.58,26.28-32.74c8.08-10.66,15.57-22.07,19.87-34.84c0.52-1.54,0.98-3.09,1.4-4.66
		c0.06-0.23,0.05-0.44,0.01-0.64C546.9,724.2,546.94,721.47,546.62,718.76z"/>
	<rect x="230.44" y="120.33" class="st0" width="1180.23" height="1055.33"/>
	<g>
		<path d="M656.67,1150.06c0.01,0,0.01,0,0.02,0c0.78-0.07,1.64,0.04,2.51,0.18C659.9,1150.11,659.48,1149.76,656.67,1150.06z"/>
		<path d="M1464.09,738.62c-2.23-12.38-5.63-29.52-19.55-33.77c-2.18-0.66-4.28-0.9-6.31-0.8c0.24-13.79,0.3-27.58,0-41.37
			c-0.4-18.65-0.36-37.23-1.81-55.74c1.32-2.74,1.94-5.77,1.53-8.91c-0.25-1.96-0.54-3.9-0.85-5.84c0.02,0,0.04-0.01,0.07-0.01
			c-0.1-0.43-0.19-0.86-0.29-1.29c-0.87-5.14-1.94-10.21-3.2-15.2c-0.34-1.8-0.68-3.6-1-5.4c-0.69-3.87-1.32-7.75-1.92-11.64
			c-0.27-1.81-0.53-3.62-0.79-5.43c-0.01-0.07-0.03-0.21-0.05-0.39c-0.09-0.7-0.22-1.7-0.25-1.94c-0.27-2.16-0.53-4.33-0.77-6.49
			c0-6.8-0.57-13.56-1.95-20.19c-0.54-6.61-0.98-13.23-1.34-19.85c-1.74-32.28-1.68-64.62-1.29-96.93
			c0.39-32.28,1.1-64.54,0.56-96.82c-0.59-34.99-2.36-69.95-2.83-104.94c-0.45-34.05,4.23-69.55-11.44-101.2
			c-4.09-8.26-13.85-10.35-22.02-8.96c-7.3,1.24-14.5,3.92-20.75,7.92c-5.87-0.09-11.74-0.22-17.61-0.37
			c-14.77-0.36-29.53-0.75-44.3-0.8c-16.13-0.06-32.39,0.06-48.56,1.19c-2.85-1.83-6.24-2.94-10-3.03c-1.15-0.03-2.3-0.02-3.45,0.01
			c-26.63,0.09-53.26-0.22-79.88,0.22c-13.69,0.23-27.39,0.6-41.07,1.33c-10.72,0.57-21.4,1.75-32.13,2.17
			c-35.45,1.39-70.77-1.48-106.08,3.34c-14.45,1.98-29.02,5.5-41.57,12.87c-1.41-0.43-2.91-0.66-4.49-0.67
			c-7.59-0.01-15.18,0.32-22.76,0.63c-7.9-0.38-15.8-0.83-23.7-1.35c-2.94-4.36-7.18-7.75-12.44-8.65
			c-86.09-14.76-173.32-9.17-260.08-5.66c-86.86,3.51-173.84-0.28-260.52,7.32c-16.72,1.47-35.26,1.17-53.01,3.44
			c-6.45-3.01-14.1-2.62-21.11,0.77c-0.11,0.05-0.2,0.1-0.3,0.14c-0.53,0.19-1.06,0.38-1.59,0.55c-1.64,0.52-3.3,0.95-4.98,1.3
			c-0.15,0.03-0.31,0.05-0.46,0.08c-0.27,0.02-0.63,0.05-1.08,0.09c-1.68-0.04-3.37,0.11-5.06,0.05c-0.42-0.02-1.35,0.01-2.13,0.06
			c-1.18-0.19-2.4-0.57-3.49-0.83c-2.47-0.58-4.87-1.33-7.25-2.18c-1.44-0.97-2.93-1.78-4.39-2.39c-6.7-2.83-14.17-2.61-20.55,1.16
			c-3.29,1.95-6.62,3.77-9.66,6.1c-7.59,5.83-12.37,12.87-11.01,22.98c0.44,3.24,1.61,6.43,3.37,9.27
			c-4.86-1.83-10.44-1.08-15.56,2.07c-6.76,4.16-12.61,9.17-19.92,12.5c-10.61,4.83-3,23.32,8.02,19.03
			c6.48-2.52,12.3-5.73,18.12-9.34c0.19,0.7,0.38,1.39,0.55,2.1c1.23,5.1,2.23,10.27,3.01,15.45c0.55,3.67,0.97,7.94,1.31,12.41
			c-0.5,1.14-0.99,2.28-1.47,3.43c-2.27,5.5-0.77,12.45,2.64,17.93c0.86,22.05-0.41,44.28-1.37,66.3c-0.2,4.51-0.37,9.02-0.59,13.52
			c0.1-2.68-0.41,4.46-0.46,5.6c-0.06,1.27-0.04,2.55-0.07,3.81c-0.09,3.81-0.33,7.61-0.6,11.41c-0.3,4.19-0.66,8.37-1.06,12.55
			c-17.06,37.54-11.78,80.82-11.52,120.88c0.06,8.82,7.04,17.31,15.88,18.43c0.17,30.91,0.6,61.82,0.74,92.73
			c0.04,7.7,5.49,15.14,12.79,17.45c0.45,6.14,0.88,12.28,1.27,18.41c0.03,0.5,0.06,1,0.09,1.5c-0.01,1.2-0.01,2.4-0.02,3.6
			c-9.39,51.45-4.42,102.93-1.45,154.52c-0.15,12.21-0.26,24.41-0.29,36.62c-0.51,10.68-0.66,21.38-0.29,32.09
			c0.13,3.9,0.34,7.79,0.61,11.69c0.12,6.78,0.26,13.55,0.46,20.33c0.4,13.63,0.98,27.25,1.76,40.87
			c-9.68,1.77-15.41,9.69-16.24,19.36c-3.53,40.75-3.13,82.91,5.23,123.08c0.16,0.75,0.38,1.49,0.66,2.22
			c-0.77,4.3-1.75,8.61-2.68,13.1c-3.3,16-2.72,32.72-3.46,49.01c-0.64,14.2-3.57,29.78-0.76,43.85
			c2.87,14.4,17.25,21.13,30.09,24.57c15.07,4.04,31.42,4.67,46.95,5.31c13.7,0.56,27.41,0.54,41.11,0.94
			c19.74,0.57,39.41,2.83,59.19,3.34c25.63,0.66,51.27,0.34,76.9,0.11c52.24-0.46,104.41,0.68,156.56,3.74
			c52.21,3.07,104.2,9.44,156.47,11.35c52.52,1.92,105.08,0.35,157.62,1.04c48.54,0.64,96.54,4.81,144.8,9.66
			c90.47,9.1,183.29,17.15,272.86-3.77c10.08-2.35,20-5.2,29.79-8.57c8.48-2.92,15.5-10.34,16.96-19.04c0.15,0.05,0.3,0.1,0.45,0.14
			c5.58,1.54,13.02,0.84,17.97-2.35c11.71-7.55,13.5-19.85,8.37-31.91c2.83,6.66,0.52,1.03-0.06-0.68
			c-0.59-1.73-1.14-3.48-1.63-5.23c-1.16-4.1-2.07-8.27-2.79-12.46c-0.1-0.56-0.18-1.13-0.27-1.69c-0.11-1.78-0.43-3.58-0.58-5.35
			c-0.41-4.63-0.64-9.27-0.75-13.92c-0.44-18.55,1.02-37.14,2.78-55.59c1.68-17.65,3.88-35.25,5.34-52.91
			c1.74-20.98,2.03-42.1,2.59-63.14c1.25-46.93,1.74-93.88,2.7-140.82c0.43-20.92,1.27-41.84,1.98-62.76
			c0.33,1.56,0.65,3.12,0.94,4.68c1.36,7.13,9.94,11.2,16.53,9.39C1462.23,753.08,1465.39,745.79,1464.09,738.62z M352.83,1152.18
			c0.22,0.05,0.45,0.1,0.68,0.15C349.57,1152.56,350.17,1151.95,352.83,1152.18z M1394.35,699.83c-2.08,1.37-3.9,3.27-5.27,5.76
			c-16.33,29.7-26.06,62.38-32.27,95.56c-1.47,7.83-2.75,15.7-3.94,23.58c-9.01,15.19-14.39,32.54-18.31,49.67
			c-5.66,24.68-8.75,50.32-8.95,75.64c-0.08,9.47,0.39,18.92,1.55,28.3c-8.34,9.56-16.15,19.61-23.52,29.97
			c-0.95,1.31-1.88,2.63-2.8,3.97c-0.01,0.02-0.03,0.04-0.04,0.06c-0.28,0.41-0.57,0.82-0.85,1.23c-2.32,3.35-4.59,6.72-6.83,10.11
			c-10.53,8.68-20,18.8-28.77,29.19c-1.01,1.19-2.01,2.4-3,3.6c-10.34,5.45-20.3,11.51-30.04,17.89
			c-23.21,1.77-46.33,11.66-65.96,23.02c-15.51,8.98-30.61,20.26-43.04,33.73c-19.3,0.9-38.5,3.84-57.81,4.57
			c-3.61-0.32-7.21-0.73-10.81-1.13c-0.42-0.06-0.85-0.12-1.27-0.19c-2.09-0.31-4.17-0.65-6.25-1c-7.09-1.21-14.13-2.65-21.13-4.28
			c-14.49-3.38-28.77-7.58-42.92-12.15c-4.69-1.51-9.36-3.08-14.02-4.66c-0.49-1.9-1.25-3.73-2.31-5.38
			c-3.56-5.53-8.1-8.31-14.1-10.84c-14.28-6.03-29.33-8.8-44.54-9.04c-3.16-4.76-8.53-7.96-14.59-7.89
			c-24.91,0.25-50.73,1.16-73.15,13.23c-2.3,1.24-4.16,3.07-5.54,5.23c-4.34,2.47-8.53,5.17-12.54,8c-5.67,4-11.17,8.25-16.64,12.52
			c-3.71,1.9-7.48,3.68-11.21,5.52c-9.76,4.8-18.87,10.11-27.35,16.83c-1.07,0.82-2.12,1.68-3.15,2.58
			c-0.93,0.79-1.73,1.68-2.45,2.62c-2.98,0.93-5.93,2.01-8.84,3.24c-9.92,0.64-19.85,1.16-29.78,1.65
			c-9.25,0.45-18.53,1.14-27.79,0.9c-4.13-0.11-8.26-0.39-12.37-0.79c-0.78-0.08-1.65-0.26-2.53-0.4c-0.3,0.06-0.82,0.08-1.44-0.02
			c-0.36-0.05-0.72-0.11-1.07-0.16c-0.04,0-0.07,0-0.11,0.01c0.03,0,0.06-0.01,0.09-0.01c-1.05-0.16-2.09-0.31-3.14-0.47
			c-18.06-2.84-35.98-6.48-54.26-7.7c-13.91-0.93-27.87-0.81-41.8-0.39c-0.39-0.63-0.81-1.24-1.26-1.83
			c2.19-6.49,1.18-13.33-1.97-19.65c-5.51-11.05-14.6-20.6-23.43-29.1c-9.54-9.19-19.78-17.62-30.01-26.02
			c-10.13-8.31-19.87-17.74-30.83-24.93c-6.15-4.03-12.77-7.26-19.12-10.96c-1.35-0.79-2.7-1.59-4.02-2.43
			c-0.54-0.34-2.83-2.04-3.43-2.41c-0.39-0.34-0.74-0.65-0.9-0.8c-0.55-0.52-2.78-3.14-3.06-3.31c-0.44-0.64-0.86-1.24-1.05-1.53
			c-0.99-1.52-1.92-3.07-2.85-4.62c-1.72-2.87-3.4-5.77-5.3-8.53c-5.86-8.52-12.89-16.36-22.35-20.93
			c-1.12-0.54-2.25-0.99-3.38-1.38c-0.38-1.11-0.74-2.23-1.12-3.34c-0.95-2.76-1.92-5.51-2.9-8.26
			c-7.29-23.97-15.15-47.73-26.61-70.21c-1.52-2.99-3.91-5.27-6.72-6.84c-4.92-19.85-9.87-39.69-15.23-59.42
			c-1.44-5.29-5.43-9.75-10.36-12.16c-1.96-8.58-3.91-17.14-5.42-25.7c-0.34-1.93-0.66-3.86-0.98-5.79
			c-2.56-23.98-5.44-47.93-9.82-71.65c-0.24-1.28-0.67-2.47-1.23-3.59c-1.2-8.71-2.27-17.39-3.26-27.25
			c-2.17-21.67-3.41-43.45-3.41-65.23c0-6.93-4.65-13.63-11.02-16.25c-0.21-4.73-0.46-9.46-0.77-14.18
			c-1.52-22.88-5.46-45.29-8.98-67.91c-3.4-21.84-6.3-43.75-10.6-65.44c-0.25-1.25-0.41-2.65-0.78-3.85
			c-0.74-1.76-1.48-3.51-2.22-5.27c1.13,2.17,1.29,2.04,0.46-0.37c-0.3-2.48-1.37-5-1.99-7.42c-0.98-3.82-1.78-7.69-2.5-11.56
			c-1.61-8.58-2.9-17.21-4.63-25.77c-3.68-18.19-9.82-36.5-22.21-50.65c-1.04-4.91-2.17-9.81-3.43-14.67
			c-0.92-3.55-3.21-6.65-6.18-8.85c0.01-0.25,0.02-0.49,0.03-0.74c0.24-7.83,0.18-15.51-0.19-23.3c0.19,4.01,0.19-0.7,0.18-1.25
			c-0.02-0.95-0.04-1.9-0.06-2.85c-0.07-3.45-0.13-6.9-0.19-10.35c-0.28-14.53-0.68-29.06-1.4-43.57
			c8.7,0.71,18.47-2.91,22.07-11.19c0.82-1.9,1.59-3.75,2.27-5.6c0.02,0.01,0.05,0.02,0.07,0.03c0.42-1.42,0.92-2.81,1.37-4.21
			c0.11-0.22,0.25-0.47,0.4-0.79c1.29-2.58,2.74-5.07,4.33-7.48c0.67-1.01,2.32-2.59,2.77-3.79c1.81-2.16,3.7-4.26,5.61-6.33
			c5.84-6.33,11.75-12.54,17.19-19.15c12.56,3.41,25.8,5.17,38.22,6.77c6.45,0.84,12.92,1.53,19.39,2.22c2.7,0.29,5.4,0.58,8.1,0.89
			c1.01,0.12,2.03,0.24,3.04,0.36c21.43,3.36,42.96,6.26,64.58,8.11c20.96,1.79,42.04,2.53,63.06,1.4
			c21.73-1.17,43.21-4.75,64.6-8.57c9.59-1.71,19.19-3.45,28.82-4.94c2.47-0.38,4.98-0.88,7.47-1.1c-6.05,0.54,1.91-0.22,3.11-0.36
			c4.93-0.57,9.88-1.04,14.83-1.36c9.57-0.62,19.11-0.58,28.67,0.08c4.18,0.29,8.36,0.66,12.52,1.13c0.53,0.06,1.07,0.14,1.61,0.21
			c1.71,0.27,3.42,0.52,5.12,0.83c7.79,1.39,15.5,3.29,22.98,5.87c1.78,0.61,3.54,1.29,5.3,1.96c0.01,0,0.02,0.01,0.03,0.01
			c0.32,0.14,0.59,0.26,0.72,0.32c3.42,1.56,6.78,3.27,10.06,5.1c6.73,3.77,13.14,8.07,19.31,12.69c0.09,0.07,0.22,0.17,0.37,0.28
			c0.45,0.36,0.92,0.72,1.12,0.88c1.74,1.39,3.47,2.81,5.18,4.24c3.85,3.22,7.63,6.53,11.37,9.88c5.12,4.59,11.07,6.76,17.18,6.56
			c9.39,13.52,27.15,20.36,43.18,22.66c4.99,0.72,9.99,1.22,14.98,1.55c3.95,4.47,9.5,7.59,15.5,6.98
			c7.14-0.73,14.13-1.91,21.02-3.45c1.52,0.35,3.08,0.49,4.66,0.37c27.41-2.11,54.6-6.42,81.12-13.25
			c25.38-0.06,51.11-4.39,75.57-9.81c24.42-5.41,48.86-12.73,72.04-22.65c10.12-1.71,20.11-5.1,28.87-8.46
			c18.6-7.13,36.24-16.23,54.03-25.12c9-4.49,10.94-14.41,8.02-22.63c12.05-2.67,23.52-7.12,31.8-15.45
			c2.19-2.21,3.74-4.88,4.63-7.74c5.9-1.67,11.71-3.66,17.57-5.44c4-1.21,8.03-2.35,12.14-3.18c0.78-0.16,1.55-0.29,2.33-0.43
			c0.05-0.01,0.09-0.01,0.15-0.02c2-0.09,3.97-0.21,5.98-0.18c5.64,0.03,11.14-2.83,14.73-7.18c0.6-0.03,1.2-0.06,1.8-0.09
			c8.7-0.36,17.4-0.42,26.1-0.29c0.73,2.33,2.05,4.44,4.05,6.01c10.43,8.18,15.91,15.62,22.21,27.16c2.91,5.32,4.18,7.98,5.83,12.66
			c0.6,3.03,1.24,6.05,1.92,9.07c-4.79,2.14-8.67,6.14-10.04,11.48c-5.14,20.06-3.86,40.6-2.28,61.01
			c0.52,6.67,0.81,13.31,0.96,19.95c-0.1,2.98-0.2,5.95-0.29,8.93c-0.47,14.24-0.86,28.48-0.82,42.72
			c-0.82,18.11-1.62,36.22-1.59,54.35c0.04,22.78,2.1,45.42,5.88,67.88c4.15,24.66,10.99,48.21,21.23,71.03
			c3.71,8.27,16.04,12.61,24.37,9.92c2.49-0.81,4.75-1.97,6.73-3.42c0.53,1,1.06,2.01,1.58,3.01c0.22,6.23,0.37,12.46,0.57,18.73
			c0.61,19.09,4.14,36.71,16.48,51.75c1.97,2.4,4.41,4.05,7.09,5.06c0.12,1.59,0.22,3.18,0.29,4.78c0.55,11.5,0.19,23.06,0.32,34.57
			C1394.72,664.73,1394.8,682.27,1394.35,699.83z M1398.67,257.99c0-0.03-0.01-0.05-0.01-0.08c0.01-0.42-0.04-0.9-0.12-1.39
			C1398.56,255.21,1398.99,255.07,1398.67,257.99z"/>
	</g>
</g>
<path class="st1" d="M571.15,1023.39c-13.19,0-13.22,20.51,0,20.51C584.35,1043.9,584.37,1023.39,571.15,1023.39z"/>
<path class="st1" d="M551.22,1029.03c-0.05-0.23-0.16-0.42-0.31-0.59c-0.12-0.19-0.28-0.34-0.49-0.45
	c-0.14-0.06-0.28-0.12-0.41-0.17c-0.31-0.08-0.61-0.08-0.92,0c-0.14,0.06-0.28,0.12-0.41,0.17c-0.26,0.15-0.47,0.36-0.62,0.62
	c-0.24,0.44-0.49,0.87-0.73,1.3c-0.1,0.18-0.21,0.36-0.31,0.54c-0.02,0.03-0.04,0.06-0.07,0.09c-0.04,0.07-0.08,0.15-0.11,0.22
	c-0.04,0.07-0.08,0.13-0.12,0.2c-0.08,0.15-0.16,0.31-0.2,0.48c-0.17,0.62,0.01,1.3,0.46,1.76c0.2,0.2,0.51,0.4,0.8,0.46
	c0,0,0.48,0.06,0.48,0.06c0.3,0.01,0.66-0.1,0.91-0.25c0.35-0.2,0.56-0.51,0.78-0.83c0.05-0.08,0.11-0.15,0.16-0.23
	c0.16-0.25,0.22-0.53,0.29-0.81c0-0.01,0-0.01,0-0.02c0.17-0.33,0.35-0.65,0.52-0.98c0.04-0.08,0.09-0.16,0.13-0.25
	c0.13-0.2,0.19-0.41,0.21-0.64C551.3,1029.49,551.29,1029.26,551.22,1029.03z"/>
<path class="st1" d="M570.22,1104.12c-8.33-1.12-16.14-5.1-23.49-8.96c-3.7-1.94-7.35-3.97-11.06-5.87
	c-4.58-3.8-8.96-7.88-13.42-11.69c-0.74-0.64-1.51-1.25-2.27-1.86c0.91,0.26,1.63-0.06,2.09-0.63c1.97-0.17,3.1-2.92,1.02-4.3
	c-5.19-3.44-10.22-7.11-15.05-11.02c0.07-0.18,0.12-0.36,0.14-0.55c0.77,0.74,1.54,1.48,2.31,2.22c1.89,1.82,4.75-1.02,2.89-2.89
	c-2.09-2.1-4.17-4.22-6.24-6.36c2.06,1.59,4.14,3.15,6.23,4.7c0.91,0.81,1.84,1.6,2.77,2.38c3.6,3.01,7.34,5.84,11.31,8.33
	c1.91,1.2,4.28-1.71,2.46-3.19c-0.82-0.67-1.65-1.33-2.48-1.98c2.26,1.21,4.56,2.35,6.93,3.33l0.02,0.02c0,0,0,0,0-0.01
	c0.16,0.07,0.32,0.14,0.48,0.21c1.82,0.74,3.51-2.15,1.95-3.36c-13.76-10.72-27.58-21.36-41.24-32.21
	c-1.29-1.03-2.57-2.08-3.86-3.11c-0.29-0.66-0.52-1.34-0.72-2.03c2.25,1.66,4.57,3.23,7.04,4.54c3.57,1.89,7.38,3.23,11.3,4.2
	c1.58,0.39,2.25-2.04,0.67-2.43c-7.54-1.88-14.17-5.36-19.94-10.57c-0.96-0.86-2.37-0.24-2.46,1.02c-0.05,0.68-0.01,1.36,0.05,2.02
	c-1.27-1.03-2.55-2.04-3.82-3.07c-1.54-1.26-3.46-0.05-3.26,1.66c-1.52-0.57-3.2,1.38-2.27,2.84c0.1,0.16,0.21,0.32,0.32,0.49
	c-0.9-0.65-1.81-1.29-2.73-1.92c-1.38-0.94-3.36,0.71-2.87,2.17c-0.28-0.37-0.56-0.73-0.83-1.1c-0.83-1.11-2.12-1.74-3.49-1.14
	c-1.18,0.52-2.11,1.97-1.62,3.3c2.56,6.9,6.52,13.1,11.06,18.84c4.05,6.62,9.92,12.15,16.05,17.07c1.56,1.45,3.14,2.89,4.73,4.3
	c3,2.67,6.05,5.29,9.1,7.91c3.44,2.96,6.77,6.05,10.26,8.96c3.56,2.97,7.28,5.8,11.33,8.07c0.88,0.49,1.77,0.97,2.66,1.45
	c0.58,0.41,1.17,0.8,1.76,1.2c6.16,4.91,12.72,9.22,20.16,11.96c1.15,0.42,2.14-0.03,2.78-0.83c3.82,1.5,7.74,2.66,11.78,3.2
	c1.47,0.2,2.95-0.35,3.38-1.92C572.5,1106.22,571.7,1104.32,570.22,1104.12z M509.91,1046.9c-1.88-1.38-3.74-2.82-5.53-4.33
	C506.22,1044.02,508.06,1045.46,509.91,1046.9z"/>
<path class="st1" d="M827.37,973.33c-0.07-0.81-0.16-1.61-0.26-2.42c-0.81-6.32-2.12-12.56-3.27-18.83
	c-0.07-0.39-0.29-0.72-0.57-0.98c-0.02-0.15-0.04-0.29-0.06-0.44c-0.09-0.83-0.56-1.39-1.15-1.69c0-0.06,0-0.12-0.01-0.18
	c-0.03-0.72-0.61-1.42-1.38-1.38c-0.44,0.02-0.8,0.23-1.05,0.54c-0.51,0.2-0.87,0.65-0.94,1.22c-0.63,0.34-1.07,0.96-1.07,1.74v0.04
	c-1.42,3.18-2.72,6.41-3.96,9.67c-0.49,1.3,0.45,2.79,1.67,3.27c-0.12,0.88-0.25,1.77-0.37,2.65c-0.24,1.81-0.44,3.59-0.05,5.39
	c0.41,1.9,3.31,2.28,4.2,0.55c0.01-0.03,0.02-0.05,0.04-0.08c0.07-0.08,0.14-0.17,0.2-0.27c0.07-0.12,0.12-0.24,0.19-0.35
	c0.17,1.11,1.09,1.7,2.06,1.75c0.25,1.71,0.5,3.42,0.74,5.13c0.2,3.62,0.27,7.25,0.12,10.85c-0.09,2.15,3.24,2.6,3.76,0.51
	c0.38-1.55,0.67-3.09,0.89-4.64c0.46-0.4,0.79-1.01,0.83-1.84C828.12,980.1,827.85,976.7,827.37,973.33z"/>
<path class="st1" d="M665.32,1019.97c-2.86,0.61-5.73,1.19-8.6,1.77c-0.64-0.56-1.52-0.86-2.32-0.53
	c-7.18,2.98-14.66,4.27-22.26,5.61c-2.21,0.39-1.54,3.64,0.51,3.74c3.95,0.21,8.01-0.3,11.88-1.05c3.49-0.67,6.91-1.69,10.21-2.99
	c3.91-0.8,7.82-1.6,11.71-2.48C669.1,1023.45,667.98,1019.41,665.32,1019.97z"/>
</svg>
