<?xml version="1.0" encoding="utf-8"?>
<!-- Generator: Adobe Adobe Illustrator 24.2.0, SVG Export Plug-In . SVG Version: 6.00 Build 0)  -->
<svg version="1.1" id="Layer_1" xmlns="http://www.w3.org/2000/svg" xmlns:xlink="http://www.w3.org/1999/xlink" x="0px" y="0px"
	 viewBox="0 0 1728 1296" style="enable-background:new 0 0 1728 1296;" xml:space="preserve">
<style type="text/css">
	.st0{fill:none;stroke:#000000;stroke-miterlimit:10;}
</style>
<path d="M1318.44,441.93c3.01-6.09,6.31-12,9.66-17.91c0.03-0.22,0.07-0.43,0.1-0.65c7.33-13.77,9.62-29.92,5.55-45.08
	c-3.98-14.84-13.67-27.34-27.81-33.67c-14.09-6.31-30.2-5.37-43.28,2.72c-0.7,0.43-1.22,0.93-1.59,1.46
	c-47.87,31.11-85.94,76.55-108.86,128.8c-6.73,15.34-12.05,31.24-15.99,47.52c-1.19,4.91,4.12,10.33,8.74,6.32
	c28.77-24.96,68.11-29.51,103.2-40.55c27.62-8.69,55.49-23.21,69.69-48.6C1318.05,442.19,1318.24,442.06,1318.44,441.93z"/>
<path d="M1343.21,278.92c-1.4,0.88-2.83,1.72-4.28,2.52c-0.1,0.04-0.21,0.09-0.31,0.13c-1.11,0.44-2.24,0.83-3.33,1.29
	c-1.6,0.68-3.2,1.37-4.8,2.06c-0.74,0.32-1.48,0.62-2.23,0.91c-0.19,0.07-0.38,0.14-0.57,0.21c-2.11,0.8-4.24,1.49-6.46,2.05
	c-0.2,0.05-0.4,0.1-0.6,0.15c-2.81,0.69-5.65,1.3-8.48,1.91c-10.84,1.87-21.79,2.44-32.8,1.41c-0.15-0.01-0.28,0-0.4,0.03
	c-31.4-2.62-63.17,5.96-89.3,23.64c-28.18,19.07-47.56,48.86-55.16,81.88c-4.26,18.51-5.31,38.61-0.29,57.05
	c1.64,6.02,10.62,4.98,9.79-1.5c-0.03-0.23-0.05-0.45-0.08-0.68c0.24-0.26,0.46-0.58,0.64-0.96c2.28-4.95,3.14-10.83,4.22-16.28
	c0.41-0.54,0.74-1.18,0.9-1.96c10.63-49.91,47.76-92.7,94.32-112.8c1.19-0.51,2.37-0.99,3.56-1.46c1.67-0.39,3.33-0.79,5-1.17
	c2.57-0.59,5.14-1.15,7.71-1.69c2.1-0.26,4.2-0.52,6.3-0.79c6.18-0.81,12.27-1.95,18.23-3.64c0.64-0.15,1.29-0.31,1.92-0.49
	c0.67-0.19,1.31-0.44,1.95-0.69c0.98-0.32,1.95-0.66,2.92-1.02c0.84-0.31,1.68-0.64,2.52-0.98c4.2-1.28,8.28-3.27,12.07-5.05
	c8.53-4.01,16.87-8.42,24.98-13.21c4.56-2.7,9.04-5.52,13.45-8.45C1346.11,280.34,1344.75,277.96,1343.21,278.92z"/>
<path d="M1416.19,601.02c-24.49-22.12-62.53-8.8-86.97,6.37c-2.03,1.26-2.4,3.77-1.67,5.92c3.98,1.04,7.91,2.25,11.79,3.64
	c4.23,1.04,8.37,2.41,12.39,4.1c4.23,1.63,8.34,3.56,12.3,5.76c27.21,10.33,47.72,37.08,49.22,66.57c0.28,5.6,9.07,6.23,10.7,1.12
	C1433.59,664.38,1443.26,625.47,1416.19,601.02z"/>
<path d="M1516.94,571.48c-8.3-21.82-20.81-40.62-33.52-60.02c-6.13-9.35-12-18.9-16.61-29.11c-4.27-9.47-7.16-19.6-9.79-29.63
	c-11.93-45.35-18.25-91.43-18.07-138.36c0.18-45.8,4.25-91.47,6.48-137.19c1.02-20.82-0.01-44.63-17.26-59.12
	c-15.53-13.05-37.54-14.07-54.87-4.48c-20.23,3.4-38.68,13.07-57.01,22.25c-8.44,4.23-17.03,8.12-25.65,11.95
	c-3.98,1.46-7.86,3.14-11.6,5.13c-0.92,0.41-1.84,0.82-2.76,1.23c-10.16,3.57-20.02,7.95-29.75,12.67
	c-13.13,4.18-26.37,8.24-39.02,12.62c-20.26,7.02-40.32,14.93-58.17,26.42c-5.64,1.82-11.22,3.84-16.73,5.99
	c-14.14,5.51-28.66,11.76-41.08,20.77c-4.47,1.81-8.94,3.61-13.5,5.18c-14.27,4.91-29.04,8.78-43.94,11.19
	c-14.35,2.33-28.87,3.69-43.39,4.12c-4.45,0.13-8.95,0.69-13.45,1.29c-22.65-1.83-45.04-6.4-66.78-13.25
	c-2.52-1.05-5.03-2.12-7.5-3.27c-12.28-5.67-23.71-12.59-34.48-20.78c-3.95-3-7.89-6.01-11.91-8.88c-4.15-3.16-8.37-6.22-12.74-9.08
	c-6.89-4.51-13.89-8.94-20.98-13.16c-2.16-1.46-4.36-2.86-6.65-4.15c-5.75-3.23-11.72-6.59-18.12-8.22c-1.09-0.9-2.5-1.51-4.24-1.62
	c-1.95-0.13-3.89-0.27-5.82-0.41c-2.81-0.9-5.68-1.66-8.63-2.25c-22.89-4.54-44.92-0.15-67.01,6c-22.08,6.15-44.5,11.67-67.37,13.72
	c-23.64,2.12-46.45-0.83-69.84-3.99c-23.64-3.19-47.26-6.7-70.62-11.58c-23.2-4.85-47.05-14.3-71.07-12.69
	c-21.24,1.42-41.07,10.54-55.69,26.09c-15.01,15.96-23.07,35.47-25.88,57c-1.61,12.31-2.66,24.53-2.5,36.79
	c1.03,4.94,2.06,9.88,3.1,14.81c0.76,3.11,1.53,6.21,2.29,9.32c0.73,1.73,1.46,3.45,2.19,5.18c0.47,2,0.96,3.99,1.45,5.98
	c2.36,9.56,5.14,19.02,8,28.45c5.94,19.58,12.2,39.09,17.5,58.86c11.12,41.45,18.95,84.02,27.04,126.15
	c8.14,42.43,15.53,85,22.33,127.67c6.75,42.38,12.29,84.96,19.98,127.19c4.15,22.8,8,46.02,15.21,68.09
	c3.62,11.08,7.91,22,12.57,32.68c4.43,10.17,10.06,19.84,14.06,30.19c0.2,0.52,0.44,1.03,0.7,1.51c1.46,4.03,2.97,8.03,4.7,11.93
	c6.66,15.05,14.27,29.78,21.8,44.41c12.57,24.42,28.09,47.23,45.54,68.42c35.52,43.13,80.62,79.1,132.43,100.54
	c27.69,11.46,57.43,17.94,87.42,18.37c22.49,4.72,48.01,1.04,69.77-4.86c11.61-3.14,23.23-7.54,33.38-14.06
	c10.13-6.51,17.51-15.08,25.71-23.68c14.15-14.85,36.73-18.94,56.9-22.61c21.65-3.94,43.87-6.4,65.91-4.99
	c23.19,1.48,46.83,8.93,65.8,23.66c1.56,1.21,3.29,2.15,5.07,2.76c1.97,1.48,3.98,2.91,6.05,4.23
	c16.29,10.37,36.85,16.1,56.14,16.11c9.91,0.01,19.74-1.59,29.51-3.06c0.59-0.09,1.18-0.18,1.77-0.26c0.16-0.02,0.36-0.04,0.59-0.06
	c0.4-0.04,0.81-0.07,1.21-0.11c12.54-3.37,25.52-5.04,38.31-7.43c4.51-0.84,9.07-1.61,13.48-2.92c4.07-1.21,7.9-3.11,11.94-4.36
	c2.89-0.89,5.9-1.35,8.86-2c8.03-3.85,16.27-7.27,24.12-11.47c7.7-4.12,15.09-8.79,22.45-13.48c13.44-8.57,27.31-16.45,40.24-25.8
	c12.89-9.32,25.18-19.5,36.46-30.73c22.64-22.54,41.37-49.05,52.95-78.91c5.21-13.43,8.84-27.35,11.39-41.5
	c-0.36-10.09,0.53-20.23,1.75-30.24c3.32-27.18,9.04-54.14,16.23-80.68c6.22-30.35,15.61-60.28,25.95-89.14
	c2.81-7.85,5.8-15.73,9.03-23.53c0.03-0.52,0.12-1.07,0.32-1.66c1.52-4.51,3.18-8.97,4.77-13.45c2.7-12.13,5.26-24.27,5.77-36.78
	C1530.49,616.7,1524.96,592.55,1516.94,571.48z M946.15,981.66c-6.5,18.89-27.84,17.64-44.3,19.23
	c-42.25,4.07-84.5,8.15-126.75,12.22c-1.49,0.14-2.58,0.74-3.33,1.58c-7.64,0.68-15.17,2.48-22.68,3.99
	c-5.28,1.06-4.24,9.09,0.78,8.67c0.32,0.33,0.73,0.61,1.26,0.79c4.08,1.39,8.18,2.66,12.32,3.85c0.54,0.15,1.03,0.15,1.48,0.06
	c0.63,0.45,1.34,0.79,2.13,0.94c42.28,7.86,84.57,15.72,126.85,23.57c4.84,8.79,5.26,18.42,2.81,27.54c-1.14,1.75-1.7,3.59-1.79,5.4
	c-4.26,10.69-12.26,20.26-21.32,26.4c-20.81,14.1-48.56,17.19-73.05,17.13c-50.58-0.13-99.86-17.83-141.77-45.8
	c-89.91-59.99-138.51-162.53-165.33-264.62C478.13,764.27,469,704.53,459.6,644.99c-9.7-61.44-21.1-122.25-35.67-182.72
	c-2.22-9.21-4.46-18.41-6.71-27.62c-1.59-7.15-3.2-14.29-4.85-21.42c-1.73-7.5-3.68-14.93-5.74-22.34
	c-1.44-6.07-2.89-12.15-4.29-18.23c-6.39-27.69-13.18-55.67-16.79-83.89c-2.73-21.38-3.43-44.58,4.99-64.85
	c9.16-22.04,29.97-34.3,53.34-34.49c25.42-0.21,50.07,9.45,73.89,17.27c27.03,8.87,54.76,14.72,83.19,16.31
	c29.3,1.64,58.89-0.79,87.49-7.47c26.7-6.24,52.55-17.54,80.1-19.61c4.37-0.33,8.71-0.31,12.99,0.07
	c7.65,2.64,14.8,6.57,21.72,11.12c25.76,25.56,26.47,67.83,24.31,102.23c-1.54,24.58-3.98,49.36-0.23,73.87
	c3.36,21.94,11.03,43.02,20.47,62.99c9.43,19.93,20.62,38.93,31.53,58.05c9.9,17.34,20.23,34.83,25.05,54.43
	c3.96,16.12,5.08,35.34-6.69,48.58c-13.4,15.07-35.77,14.4-54.17,14.53c-23.64,0.17-46.55,3.35-68.92,11.29
	c-22.9,8.12-44.24,20.68-62.59,36.68c-3.48,3.03-2.1,9.68,2.93,9.97c53.07,3.07,103.62,27.23,139.93,65.87
	c-0.22-0.02-0.44-0.03-0.66-0.04c-1.31-0.09-2.61-0.25-3.92-0.32c-0.05,0-0.09,0-0.14-0.01c-0.85-0.14-1.71-0.28-2.56-0.46
	c-1.48-0.3-2.94-0.66-4.4-1.04c-37.64-11.9-78.68-12.69-115.8,2.18c-42.81,17.14-78.2,54.66-88.35,100.47
	c-9.74,43.95,6.15,93.62,41.5,121.73c41.27,32.82,97.95,28.15,146.63,20.32c35.45-5.7,83.47-13.75,107.09-44.16
	c2.09,1.76,4.8,2.25,7.51,1.76c1.61,3.58,3.09,7.24,4.17,11.01C948.24,965.04,948.9,973.68,946.15,981.66z M1496.17,632.79
	c-2.65,27.09-12.42,52.85-22.23,78.02c-10.2,26.18-20.96,52.33-26.55,79.98c-5.96,29.51-5.33,59.78-8.09,89.65
	c-2.54,27.44-8.82,53.99-22.95,77.89c-12.76,21.59-29.94,40.13-49,56.3c-19.22,16.31-40.26,30.4-61.87,43.31
	c-24.78,14.79-50.26,29.33-77.49,39.11c-25.56,9.18-54.83,14.19-81.21,5.43c-21.96-7.29-42.56-22.96-52.09-44.47
	c-3.71-8.37-5.32-17.21-4.8-26.2c59.08,4.88,118.93-10.45,168.92-42.25c14.8-9.41,28.58-20.32,41.19-32.51
	c4.29-4.14,0.32-12.3-5.75-9.46c-49.78,23.26-103.82,36.58-158.71,39.15c-13.94,0.65-27.91,0.56-41.85-0.24
	c-11.97-0.68-25.44-0.82-36.35-6.4c-8.6-4.39-17.4-16.35-10.78-25.89c5.66-8.15,18.48-7.29,27.09-6.47
	c26.77,2.55,53,5.37,79.96,3.62c26.41-1.71,52.91-7.08,77.27-17.63c40.87-17.7,77.26-51.27,90.47-94.71
	c9.13-30,6.11-61.48,9.83-92.23c2.98-24.62,11.2-50.47,32.04-65.67c5.05-3.68-0.1-12.3-5.75-9.46
	c-81.36,40.86-148.87,127.43-247.82,121.85c-20.85-1.17-41.19-7.2-58.19-19.22c36.85-22.38,68.53-52.4,92.92-87.91
	c0.22-0.16,0.43-0.33,0.62-0.54c2.32-2.58,4.41-5.46,6.37-8.47c0.31-0.2,0.6-0.43,0.86-0.73l0.09,0.06c1.96-3.23,3.86-6.5,5.75-9.77
	c0.33-0.56,0.5-1.13,0.56-1.68c0.86-1.48,1.71-2.95,2.58-4.37c2.54-3.96-3.33-8.25-5.99-4.28c-0.2,0.3-0.4,0.59-0.6,0.89
	c-0.32,0.02-0.66,0.07-1.02,0.17c-16.61,4.72-32.72,10.92-49.46,15.29c-16.44,4.29-33.12,7.67-49.93,10.1
	c-31.43,4.55-63.39,6.06-95.09,3.82c30.08-40.59,49.05-89.43,54.42-139.64c2.83-26.44,2.1-53.36-2.38-79.58
	c-2.27-13.31-5.55-26.45-9.74-39.28c-4.72-14.48-11.18-28.38-15.11-43.12c-0.2-0.74-0.38-1.48-0.56-2.22
	c-0.02-6.06,0.18-12.12,0.93-18.14c3.74-15.27,14.09-28.85,23.77-41.14c2-2.53,4-5.06,5.98-7.61c1-0.89,2-1.78,2.99-2.67
	c0.81-0.59,1.61-1.17,2.42-1.75c-0.07-0.08-0.14-0.14-0.22-0.21c1.91-1.7,3.82-3.41,5.7-5.15c29.66-21.06,65.04-34.83,98.24-48.43
	c57.08-23.38,114.16-46.76,171.24-70.13c11.56-4.06,22.93-8.7,34.15-13.58c4.02-1.75,8.01-3.55,11.98-5.38
	c3.67-1.49,7.34-2.98,11.02-4.44c0.75-0.3,1.51-0.58,2.26-0.85c2.59-0.72,5.19-1.44,7.78-2.17c0.12-0.02,0.25-0.06,0.37-0.08
	c0.13-0.05,0.26-0.09,0.39-0.14c3.57-1.02,7.14-2.07,10.68-3.21c4.81-1.55,9.47-3.46,14.24-5.11c4.13-1.43,8.35-2.59,12.62-3.49
	c4.1,1.03,7.53,3.9,8.85,7.88c0.26,2.29,0.29,4.63,0.29,6.84c0,7.08-0.22,14.17-0.39,21.25c-0.2,8.52-0.11,17.05-0.41,25.56
	c-0.58,16.36-2.86,32.58-4.46,48.85c-0.81,8.24-1.44,16.51-1.58,24.79c-0.15,8.39,0.37,16.71,1.17,25.06
	c0.13,1.31,0.26,2.62,0.39,3.93c-0.19,17.48,0.32,34.97,1.7,52.4c2.04,25.87,5.85,51.77,11.78,77.05
	c5.13,21.9,12.38,44.4,26.24,62.46c0.18,0.23,0.37,0.45,0.55,0.68c0.2,0.27,0.4,0.53,0.61,0.8c0.24,0.37,0.48,0.74,0.73,1.1
	c0.27,0.4,0.56,0.8,0.84,1.19c0,0,0,0,0,0c10.49,15.24,21.38,30.22,30.31,46.44C1492.11,579.66,1498.86,605.3,1496.17,632.79z"/>
<path d="M720.21,398.96c-0.62-2.96-1.3-5.92-2.07-8.85c-1.2-4.57-2.76-9.01-4.08-13.54c-1.23-4.2-2.38-8.51-4.57-12.33
	c-0.71-1.24-1.58-2.36-2.47-3.47c0-0.01-0.01-0.02-0.01-0.03c-0.09-0.19-0.2-0.34-0.29-0.5c-0.21-0.52-0.41-1.05-0.61-1.56
	c-0.47-1.22-1.22-2.04-2.1-2.53c-0.7-3.07-4.71-5.42-7.6-3.76c-3.59,2.05-7.19,4.07-10.8,6.07c-0.53,0.29-1.01,0.65-1.43,1.05
	c-0.18,0.08-0.37,0.16-0.55,0.27c-19,10.69-36.65,23.5-52.65,38.16c-28.09,21.04-53.51,45.66-75.42,73.28
	c-8.7,10.97-17.99,22.51-24.48,34.98c-3.17,6.1-5.09,13.41-2.11,20c2.41,5.31,7.4,8.78,12.86,10.3c12.74,3.55,27.82,0.81,40.68-0.85
	c14.86-1.92,29.55-5,43.95-9.13c18.38-5.27,36.63-12.17,53.91-20.91c8.45-3.15,16.73-6.88,24.67-11.16
	c3.13-1.69,6.21-3.46,9.28-5.26c0.03-0.02,0.07-0.03,0.1-0.05c2.6-1.3,5.25-2.9,7.27-5.07c0.04-0.04,0.07-0.08,0.11-0.12
	c0.07-0.08,0.14-0.15,0.21-0.22c1.46-0.73,2.62-2.09,2.92-4.18C728.76,452.61,727.09,425.15,720.21,398.96z"/>
<path d="M697.03,272.44c-0.2-0.89-0.45-1.77-0.74-2.63c0.2-0.29,0.28-0.67,0.12-1.12l-10.05-29.14c-0.36-1.04-2-1.51-2.55-0.34
	c-9.58,20.26-20.04,40.39-33.96,58.02c-6.91,8.75-14.67,16.78-23.31,23.81c-9.25,7.53-19.29,13.99-29.2,20.6
	c-10,6.67-19.73,13.69-29.07,21.29c-5.92,4.82-11.69,9.83-17.36,14.94c-1.72,1.53-3.45,3.09-5.15,4.69
	c-1.51,1.39-3.01,2.78-4.51,4.18c-8.79,8.25-17.39,16.7-25.95,25.19c-7.59,7.53-15.08,15.19-22.04,23.32
	c-13.41,15.66-25.3,33.57-29.57,54.11c-0.53,2.52-0.92,5.07-1.22,7.63c-0.17,1.48,1.93,1.78,2.6,0.71
	c11.72-18.55,25.01-36.07,39.69-52.34c2.12-2.34,4.27-4.65,6.44-6.95c8.07-7.91,16.37-15.56,24.64-23.26
	c1.76-1.64,3.48-3.33,5.18-5.04c3.75-3.2,7.55-6.34,11.42-9.39c17.73-13.99,36.81-25.9,56.2-37.39
	c19.87-11.76,39.91-23.39,58.16-37.65c8.6-6.72,17.19-13.92,23.35-23.06C696.07,293.88,699.37,282.96,697.03,272.44z"/>
<path d="M665.62,705.63c0.18-2.09-0.01-4.16-0.86-5.96c0-0.15,0.01-0.3,0.01-0.46c0-0.43-0.16-0.75-0.4-0.97v-0.11
	c0-0.52-0.46-1.02-1-1c-0.54,0.02-1,0.44-1,1v0.12c-0.24,0.22-0.39,0.54-0.4,0.97c0,0.52-0.02,1.04-0.04,1.56
	c-0.04,0.42-0.06,0.85-0.07,1.27c-0.58,8.44-3.51,16.39-7.52,23.84c-4.39,8.16-10.36,15.09-15.96,22.4
	c-1.41,1.85-2.78,3.73-4.08,5.66c-8.53,9.28-17.64,18.02-26.01,27.45c-10.12,11.39-18.56,23.9-24.82,37.82
	c-6.57,14.61-10.8,30.27-11.92,46.27c-1.12,15.96,0.99,32.18,6.69,47.15c0.72,1.9,1.5,3.77,2.33,5.63c0.67,1.51,2.87,0.39,2.55-1.08
	c-3.38-15.6-3.65-31.77-1.25-47.54c2.4-15.82,7.3-31.23,13.86-45.81c3.2-7.11,6.71-14.14,10.74-20.82
	c3.43-5.7,7.32-11.12,11.37-16.39c8.53-11.1,17.82-21.58,26.28-32.74c8.08-10.66,15.57-22.07,19.87-34.84
	c0.52-1.54,0.98-3.09,1.4-4.66c0.06-0.23,0.05-0.44,0.01-0.64C665.9,711.07,665.94,708.34,665.62,705.63z"/>
<rect x="349.44" y="107.2" class="st0" width="1180.23" height="1055.33"/>
</svg>
