<?xml version="1.0" encoding="utf-8"?>
<!-- Generator: Adobe Adobe Illustrator 24.2.0, SVG Export Plug-In . SVG Version: 6.00 Build 0)  -->
<svg version="1.1" id="Layer_1" xmlns="http://www.w3.org/2000/svg" xmlns:xlink="http://www.w3.org/1999/xlink" x="0px" y="0px"
	 viewBox="0 0 1728 1296" style="enable-background:new 0 0 1728 1296;" xml:space="preserve">
<style type="text/css">
	.st0{stroke:#FFFFFF;stroke-miterlimit:10;}
	.st1{fill:none;stroke:#FFFFFF;stroke-miterlimit:10;}
	.st2{fill:#FFFFFF;}
	.st3{fill:none;}
</style>
<g>
	<path class="st0" d="M1314.81,482.15c3.01-6.09,6.31-12,9.66-17.91c0.03-0.22,0.07-0.43,0.1-0.65c7.33-13.77,9.62-29.92,5.55-45.08
		c-3.98-14.84-13.67-27.34-27.81-33.67c-14.09-6.31-30.2-5.37-43.28,2.72c-0.7,0.43-1.22,0.93-1.59,1.46
		c-47.87,31.11-85.94,76.55-108.86,128.8c-6.73,15.34-12.05,31.24-15.99,47.52c-1.19,4.91,4.12,10.33,8.74,6.32
		c28.77-24.96,68.11-29.51,103.2-40.55c27.62-8.69,55.49-23.21,69.69-48.6C1314.42,482.41,1314.61,482.28,1314.81,482.15z"/>
	<path class="st0" d="M1339.58,319.14c-1.4,0.88-2.83,1.72-4.28,2.52c-0.1,0.04-0.21,0.09-0.31,0.13c-1.11,0.44-2.24,0.83-3.33,1.29
		c-1.6,0.68-3.2,1.37-4.8,2.06c-0.74,0.32-1.48,0.62-2.23,0.91c-0.19,0.07-0.38,0.14-0.57,0.21c-2.11,0.8-4.24,1.49-6.46,2.05
		c-0.2,0.05-0.4,0.1-0.6,0.15c-2.81,0.69-5.65,1.3-8.48,1.91c-10.84,1.87-21.79,2.44-32.8,1.41c-0.15-0.01-0.28,0-0.4,0.03
		c-31.4-2.62-63.17,5.96-89.3,23.64c-28.18,19.07-47.56,48.86-55.16,81.88c-4.26,18.51-5.31,38.61-0.29,57.05
		c1.64,6.02,10.62,4.98,9.79-1.5c-0.03-0.23-0.05-0.45-0.08-0.68c0.24-0.26,0.46-0.58,0.64-0.96c2.28-4.95,3.14-10.83,4.22-16.28
		c0.41-0.54,0.74-1.18,0.9-1.96c10.63-49.91,47.76-92.7,94.32-112.8c1.19-0.51,2.37-0.99,3.56-1.46c1.67-0.39,3.33-0.79,5-1.17
		c2.57-0.59,5.14-1.15,7.71-1.69c2.1-0.26,4.2-0.52,6.3-0.79c6.18-0.81,12.27-1.95,18.23-3.64c0.64-0.15,1.29-0.31,1.92-0.49
		c0.67-0.19,1.31-0.44,1.95-0.69c0.98-0.32,1.95-0.66,2.92-1.02c0.84-0.31,1.68-0.64,2.52-0.98c4.2-1.28,8.28-3.27,12.07-5.05
		c8.53-4.01,16.87-8.42,24.98-13.21c4.56-2.7,9.04-5.52,13.45-8.45C1342.48,320.56,1341.12,318.18,1339.58,319.14z"/>
	<path class="st0" d="M1412.56,641.24c-24.49-22.12-62.53-8.8-86.97,6.37c-2.03,1.26-2.4,3.77-1.67,5.92
		c3.98,1.04,7.91,2.25,11.79,3.64c4.23,1.04,8.37,2.41,12.39,4.1c4.23,1.63,8.34,3.56,12.3,5.76
		c27.21,10.33,47.72,37.08,49.22,66.57c0.28,5.6,9.07,6.23,10.7,1.12C1429.96,704.6,1439.63,665.69,1412.56,641.24z"/>
	<path class="st0" d="M1526,671.99c-1.99-7.87-2.81-16.18-3.74-24.18c-0.43-3.66-0.78-7.33-1.1-11.01c-2.11-8.65-4.8-17.1-7.84-25.1
		c-1.97-5.17-4.17-10.16-6.56-15.03c-0.26-0.32-0.51-0.64-0.78-0.96c-4.05-4.92-7.84-10.32-9.94-16.37
		c-2.06-2.14-4.14-4.26-6.18-6.41c-18.52-19.47-30.24-43.52-38.13-69.03c-8.31-26.85-13.26-54.77-15.21-82.79
		c-3.11-17.39-3.24-35.42-2.31-53.19c-2.11-9.34-2.61-19.09-2.03-28.43c1.17-18.64,1.21-37.32,2.06-55.97
		c0.43-9.3,1.83-18.51,2.87-27.75c1.05-9.35,1.34-18.61,1.35-28.02c0.01-9.48-0.19-19.14-1.61-28.53
		c-1.08-7.11-3.52-13.9-4.76-20.96c-1.79-3.38-3.26-6.99-4.41-10.68c-2.91-3.71-6.1-7.18-9.81-10.24c-7.78-6.43-16.96-9.16-26.5-9.8
		c-6.92,2.09-13.89,3.98-20.88,5.82c-0.27,0.15-0.55,0.28-0.83,0.43c-0.92,0.15-1.83,0.34-2.74,0.52
		c-4.66,1.23-9.32,2.46-13.97,3.74c-0.17,0.05-0.34,0.1-0.52,0.15c-1.31,0.44-2.61,0.89-3.9,1.37c-0.4,0.38-0.9,0.72-1.51,1
		c-9.47,4.36-19.03,8.52-28.59,12.68c-0.62,1.11-1.64,2.05-3.12,2.59c-4.28,1.55-8.49,3.26-12.67,5.05
		c-5.18,2.43-10.4,4.79-15.63,7.11c-0.24,0.09-0.48,0.19-0.73,0.28c-6.49,3.02-12.97,6.07-19.54,8.91c-1,0.43-1.98,0.57-2.9,0.5
		c-7.09,2.84-14.05,6-20.94,9.35c-13.13,4.18-26.37,8.24-39.02,12.62c-20.26,7.02-40.32,14.93-58.17,26.42
		c-5.64,1.82-11.22,3.84-16.73,5.99c-14.14,5.51-28.66,11.76-41.08,20.77c-4.47,1.81-8.94,3.61-13.5,5.18
		c-5.38,1.85-10.84,3.56-16.34,5.09c-6.4,2.59-13.12,4.32-19.88,4.95c-0.38,0.04-0.72,0.02-1.05-0.03
		c-2.22,0.42-4.44,0.83-6.67,1.19c-2.03,0.33-4.07,0.64-6.11,0.93c-1.63,0.43-3.26,0.84-4.91,1.22
		c-61.85,14.22-129.93-5.56-176.43-48.36c-1.41-0.9-2.75-1.92-4.05-2.94c-2.82-2.22-6.05-3.7-8.88-5.9
		c-3.22-2.5-6.47-4.27-9.92-6.39c-2.19-1.35-4.03-3.17-6.05-4.71c-1.09-0.64-2.17-1.29-3.25-1.96c-2.02-1.13-4.08-2.25-6.17-3.28
		c-2.24-1.01-4.51-1.98-6.79-2.91c-1.14-0.4-2.29-0.77-3.46-1.07c-0.34-0.28-0.72-0.52-1.13-0.74c-0.6-0.23-1.19-0.46-1.79-0.68
		c-0.42-0.1-0.86-0.17-1.32-0.2c-1.95-0.13-3.89-0.27-5.82-0.41c-2.26-0.72-4.56-1.35-6.91-1.88c-6.01-0.65-12.03-1.45-17.94-1.66
		c-3.18-0.11-6.41-0.24-9.65-0.3c-3.46,0.26-6.92,0.55-10.37,0.9c-10.31,1.38-20.54,3.84-30.78,6.69
		c-10.36,2.89-20.8,5.63-31.32,7.94c-16.14,6.11-33.85,7.35-51.02,6.57c-0.52-0.02-1.05-0.05-1.58-0.08
		c-17.84,0-35.4-2.28-53.29-4.7c-9.6-1.3-19.2-2.65-28.78-4.12c-5.16-0.46-10.32-0.86-15.5-1.14c-1.86-0.1-3.23-0.92-4.13-2.08
		c-7.42-1.3-14.83-2.69-22.21-4.23c-12.68-2.65-25.56-6.67-38.55-9.51c-0.1-0.02-0.2-0.04-0.3-0.06c-0.12-0.02-0.22-0.05-0.33-0.08
		c-9.13-1.97-18.31-3.34-27.52-3.22c-15.82,4.17-31.29,9.5-46.78,14.87c-4.77,3.29-9.23,7.09-13.28,11.39
		c-15.01,15.96-23.07,35.47-25.88,57c-0.13,1-0.25,1.99-0.37,2.99c-0.62,11.97-1.16,23.95-1.68,35.92
		c0.88,4.23,1.76,8.46,2.66,12.69c0.76,3.11,1.53,6.21,2.29,9.32c0.73,1.73,1.46,3.45,2.19,5.18c0.47,2,0.96,3.99,1.45,5.98
		c2.36,9.56,5.14,19.02,8,28.45c5.94,19.58,12.2,39.09,17.5,58.86c11.12,41.45,18.95,84.02,27.04,126.15
		c8.14,42.43,15.53,85,22.33,127.67c6.75,42.38,12.29,84.96,19.98,127.19c4.15,22.8,8,46.02,15.21,68.09
		c3.62,11.08,7.91,22,12.57,32.68c4.43,10.17,10.06,19.84,14.06,30.19c0.2,0.52,0.44,1.03,0.7,1.51c1.46,4.03,2.97,8.03,4.7,11.93
		c6.66,15.05,14.27,29.78,21.8,44.41c12.57,24.42,28.09,47.23,45.54,68.42c24.13,29.3,52.68,55.29,84.75,75.67
		c5.83,2.38,11.52,5.11,17.07,7.82c7.58,3.69,15.13,7.42,22.75,11.02c7.4,3.5,15.03,6.5,22.34,10.2c6.12,2.02,11.89,5.12,18.34,6.09
		c0.99,0.15,1.71,0.62,2.2,1.25c1.47,0.36,2.95,0.72,4.43,1.06c8.24,1.42,16.48,2.83,24.71,4.26c7.71,0.91,15.47,1.43,23.25,1.55
		c22.49,4.72,48.01,1.04,69.77-4.86c9.32-2.52,18.63-5.87,27.19-10.46c0.49-0.34,0.99-0.67,1.48-1c0.95-0.73,1.89-1.45,2.84-2.17
		c0.11-0.12,0.23-0.25,0.36-0.36c1.97-1.8,4.1-3.33,6.32-4.74c0.26-0.19,0.52-0.38,0.78-0.57c2.27-2.08,4.51-4.18,6.86-6.17
		c0.02-0.02,0.03-0.03,0.04-0.05c8.79-9.53,18.38-18.67,29.84-24.93c11.5-6.28,24.36-8.83,37.12-11.16
		c0.82-0.36,1.77-0.53,2.95-0.47c0.47,0.02,0.9,0.12,1.32,0.25c6.63-1.55,13.41-2.53,20.12-3.6c17.08-2.73,34.9-2.54,52.13-1.03
		c5.71,0.5,11.64,1.1,17.26,2.58c5.55,0.49,11.03,1.41,16.36,2.78c6.25,1.19,12.35,2.9,18.14,5.39
		c9.91,4.26,16.51,12.04,25.43,17.65c4.78,3.01,10.14,5.09,15.01,7.96c4.4,2.59,8.5,4.61,13.07,6.45
		c10.84,2.07,21.72,4.06,32.72,4.35c5.73-0.6,11.45-1.49,17.14-2.35c0.59-0.09,1.18-0.18,1.77-0.26c0.16-0.02,0.36-0.04,0.59-0.06
		c0.4-0.04,0.81-0.07,1.21-0.11c2.2-0.59,4.42-1.12,6.65-1.62c6.1-1.48,12.13-3.22,18.19-4.86c7.47-3.46,15.35-6.05,23.34-8.07
		c12.38-3.13,24.22-7.24,35.89-12.43c11.93-5.3,23.55-11.26,35.25-17.05c4.87-2.41,9.71-4.82,14.72-6.89
		c8.6-5.29,17.17-10.63,25.36-16.55c12.89-9.32,25.18-19.5,36.46-30.73c10.26-10.22,19.71-21.26,28.06-33.06
		c3.75-8.43,9.4-15.97,14.65-23.71c1.41-2.64,2.79-5.29,4.08-7.99c1.54-11.97,4.4-23.6,11.16-33.72c0.1-0.16,0.22-0.28,0.33-0.42
		c1.85-8.4,4.09-16.73,5.98-25.13c-0.07-8.89,0.75-17.81,1.82-26.62c2.32-18.96,5.82-37.81,10.15-56.48
		c1-10.67,2.71-21.26,4.92-31.5c2.76-12.78,7.18-24.84,12.25-36.65c3.91-13.28,8.24-26.41,12.78-39.33
		c1.43-4.74,2.97-9.45,4.67-14.12c3.07-8.4,6.45-16.76,9.66-25.19c0.62-1.73,1.25-3.46,1.86-5.19c2.7-12.13,5.26-24.27,5.77-36.78
		C1526.04,677.09,1526.05,674.54,1526,671.99z M942.52,1021.88c-6.5,18.89-27.84,17.64-44.3,19.23
		c-42.25,4.07-84.5,8.15-126.75,12.22c-1.49,0.14-2.58,0.74-3.33,1.58c-7.64,0.68-15.17,2.48-22.68,3.99
		c-5.28,1.06-4.24,9.09,0.78,8.67c0.32,0.33,0.73,0.61,1.26,0.79c4.08,1.39,8.18,2.66,12.32,3.85c0.54,0.15,1.03,0.15,1.48,0.06
		c0.63,0.45,1.34,0.79,2.13,0.94c42.28,7.86,84.57,15.72,126.85,23.57c4.84,8.79,5.26,18.42,2.81,27.54
		c-1.14,1.75-1.7,3.59-1.79,5.4c-4.26,10.69-12.26,20.26-21.32,26.4c-20.81,14.1-48.56,17.19-73.05,17.13
		c-50.58-0.13-99.86-17.83-141.77-45.8c-89.91-59.99-138.51-162.53-165.33-264.62c-15.33-58.34-24.46-118.08-33.86-177.62
		c-9.7-61.44-21.1-122.25-35.67-182.72c-2.22-9.21-4.46-18.41-6.71-27.62c-1.59-7.15-3.2-14.29-4.85-21.42
		c-1.73-7.5-3.68-14.93-5.74-22.34c-1.44-6.07-2.89-12.15-4.29-18.23c-6.39-27.69-13.18-55.67-16.79-83.89
		c-2.73-21.38-3.43-44.58,4.99-64.85c9.16-22.04,29.97-34.3,53.34-34.49c25.42-0.21,50.07,9.45,73.89,17.27
		c27.03,8.87,54.76,14.72,83.19,16.31c29.3,1.64,58.89-0.79,87.49-7.47c26.7-6.24,52.55-17.54,80.1-19.61
		c4.37-0.33,8.71-0.31,12.99,0.07c7.65,2.64,14.8,6.57,21.72,11.12c25.76,25.56,26.47,67.83,24.31,102.23
		c-1.54,24.58-3.98,49.36-0.23,73.87c3.36,21.94,11.03,43.02,20.47,62.99c9.43,19.93,20.62,38.93,31.53,58.05
		c9.9,17.34,20.23,34.83,25.05,54.43c3.96,16.12,5.08,35.34-6.69,48.58c-13.4,15.07-35.77,14.4-54.17,14.53
		c-23.64,0.17-46.55,3.35-68.92,11.29c-22.9,8.12-44.24,20.68-62.59,36.68c-3.48,3.03-2.1,9.68,2.93,9.97
		c53.07,3.07,103.62,27.23,139.93,65.87c-0.22-0.02-0.44-0.03-0.66-0.04c-1.31-0.09-2.61-0.25-3.92-0.32c-0.05,0-0.09,0-0.14-0.01
		c-0.85-0.14-1.71-0.28-2.56-0.46c-1.48-0.3-2.94-0.66-4.4-1.04c-37.64-11.9-78.68-12.69-115.8,2.18
		c-42.81,17.14-78.2,54.66-88.35,100.47c-9.74,43.95,6.15,93.62,41.5,121.73c41.27,32.82,97.95,28.15,146.63,20.32
		c35.45-5.7,83.47-13.75,107.09-44.16c2.09,1.76,4.8,2.25,7.51,1.76c1.61,3.58,3.09,7.24,4.17,11.01
		C944.61,1005.26,945.27,1013.9,942.52,1021.88z M1492.54,673.01c-2.65,27.09-12.42,52.85-22.23,78.02
		c-10.2,26.18-20.96,52.33-26.55,79.98c-5.96,29.51-5.33,59.78-8.09,89.65c-2.54,27.44-8.82,53.99-22.95,77.89
		c-12.76,21.59-29.94,40.13-49,56.3c-19.22,16.31-40.26,30.4-61.87,43.31c-24.78,14.79-50.26,29.33-77.49,39.11
		c-25.56,9.18-54.83,14.19-81.21,5.43c-21.96-7.29-42.56-22.96-52.09-44.47c-3.71-8.37-5.32-17.21-4.8-26.2
		c59.08,4.88,118.93-10.45,168.92-42.25c14.8-9.41,28.58-20.32,41.19-32.51c4.29-4.14,0.32-12.3-5.75-9.46
		c-49.78,23.26-103.82,36.58-158.71,39.15c-13.94,0.65-27.91,0.56-41.85-0.24c-11.97-0.68-25.44-0.82-36.35-6.4
		c-8.6-4.39-17.4-16.35-10.78-25.89c5.66-8.15,18.48-7.29,27.09-6.47c26.77,2.55,53,5.37,79.96,3.62
		c26.41-1.71,52.91-7.08,77.27-17.63c40.87-17.7,77.26-51.27,90.47-94.71c9.13-30,6.11-61.48,9.83-92.23
		c2.98-24.62,11.2-50.47,32.04-65.67c5.05-3.68-0.1-12.3-5.75-9.46c-81.36,40.86-148.87,127.43-247.82,121.85
		c-20.85-1.17-41.19-7.2-58.19-19.22c36.85-22.38,68.53-52.4,92.92-87.91c0.22-0.16,0.43-0.33,0.62-0.54
		c2.32-2.58,4.41-5.46,6.37-8.47c0.31-0.2,0.6-0.43,0.86-0.73l0.09,0.06c1.96-3.23,3.86-6.5,5.75-9.77c0.33-0.56,0.5-1.13,0.56-1.68
		c0.86-1.48,1.71-2.95,2.58-4.37c2.54-3.96-3.33-8.25-5.99-4.28c-0.2,0.3-0.4,0.59-0.6,0.89c-0.32,0.02-0.66,0.07-1.02,0.17
		c-16.61,4.72-32.72,10.92-49.46,15.29c-16.44,4.29-33.12,7.67-49.93,10.1c-31.43,4.55-63.39,6.06-95.09,3.82
		c30.08-40.59,49.05-89.43,54.42-139.64c2.83-26.44,2.1-53.36-2.38-79.58c-2.27-13.31-5.55-26.45-9.74-39.28
		c-4.72-14.48-11.18-28.38-15.11-43.12c-0.2-0.74-0.38-1.48-0.56-2.22c-0.02-6.06,0.18-12.12,0.93-18.14
		c3.74-15.27,14.09-28.85,23.77-41.14c2-2.53,4-5.06,5.98-7.61c1-0.89,2-1.78,2.99-2.67c0.81-0.59,1.61-1.17,2.42-1.75
		c-0.07-0.08-0.14-0.14-0.22-0.21c1.91-1.7,3.82-3.41,5.7-5.15c29.66-21.06,65.04-34.83,98.24-48.43
		c57.08-23.38,114.16-46.76,171.24-70.13c11.56-4.06,22.93-8.7,34.15-13.58c4.02-1.75,8.01-3.55,11.98-5.38
		c3.67-1.49,7.34-2.98,11.02-4.44c0.75-0.3,1.51-0.58,2.26-0.85c2.59-0.72,5.19-1.44,7.78-2.17c0.12-0.02,0.25-0.06,0.37-0.08
		c0.13-0.05,0.26-0.09,0.39-0.14c3.57-1.02,7.14-2.07,10.68-3.21c4.81-1.55,9.47-3.46,14.24-5.11c4.13-1.43,8.35-2.59,12.62-3.49
		c4.1,1.03,7.53,3.9,8.85,7.88c0.26,2.29,0.29,4.63,0.29,6.84c0,7.08-0.22,14.17-0.39,21.25c-0.2,8.52-0.11,17.05-0.41,25.56
		c-0.58,16.36-2.86,32.58-4.46,48.85c-0.81,8.24-1.44,16.51-1.58,24.79c-0.15,8.39,0.37,16.71,1.17,25.06l0.39,3.93
		c-0.19,17.48,0.32,34.97,1.7,52.4c2.04,25.87,5.85,51.77,11.78,77.05c5.13,21.9,12.38,44.4,26.24,62.46
		c0.18,0.23,0.37,0.45,0.55,0.68c0.2,0.27,0.4,0.53,0.61,0.8c0.24,0.37,0.48,0.74,0.73,1.1c0.27,0.4,0.56,0.8,0.84,1.19
		c10.49,15.24,21.38,30.22,30.31,46.44C1488.48,619.88,1495.23,645.52,1492.54,673.01z"/>
	<path class="st0" d="M716.58,439.18c-0.62-2.96-1.3-5.92-2.07-8.85c-1.2-4.57-2.76-9.01-4.08-13.54c-1.23-4.2-2.38-8.51-4.57-12.33
		c-0.71-1.24-1.58-2.36-2.47-3.47c0-0.01-0.01-0.02-0.01-0.03c-0.09-0.19-0.2-0.34-0.29-0.5c-0.21-0.52-0.41-1.05-0.61-1.56
		c-0.47-1.22-1.22-2.04-2.1-2.53c-0.7-3.07-4.71-5.42-7.6-3.76c-3.59,2.05-7.19,4.07-10.8,6.07c-0.53,0.29-1.01,0.65-1.43,1.05
		c-0.18,0.08-0.37,0.16-0.55,0.27c-19,10.69-36.65,23.5-52.65,38.16c-28.09,21.04-53.51,45.66-75.42,73.28
		c-8.7,10.97-17.99,22.51-24.48,34.98c-3.17,6.1-5.09,13.41-2.11,20c2.41,5.31,7.4,8.78,12.86,10.3
		c12.74,3.55,27.82,0.81,40.68-0.85c14.86-1.92,29.55-5,43.95-9.13c18.38-5.27,36.63-12.17,53.91-20.91
		c8.45-3.15,16.73-6.88,24.67-11.16c3.13-1.69,6.21-3.46,9.28-5.26c0.03-0.02,0.07-0.03,0.1-0.05c2.6-1.3,5.25-2.9,7.27-5.07
		c0.04-0.04,0.07-0.08,0.11-0.12c0.07-0.08,0.14-0.15,0.21-0.22c1.46-0.73,2.62-2.09,2.92-4.18
		C725.13,492.83,723.46,465.37,716.58,439.18z"/>
	<path class="st0" d="M693.4,312.66c-0.2-0.89-0.45-1.77-0.74-2.63c0.2-0.29,0.28-0.67,0.12-1.12l-10.05-29.14
		c-0.36-1.04-2-1.51-2.55-0.34c-9.58,20.26-20.04,40.39-33.96,58.02c-6.91,8.75-14.67,16.78-23.31,23.81
		c-9.25,7.53-19.29,13.99-29.2,20.6c-10,6.67-19.73,13.69-29.07,21.29c-5.92,4.82-11.69,9.83-17.36,14.94
		c-1.72,1.53-3.45,3.09-5.15,4.69c-1.51,1.39-3.01,2.78-4.51,4.18c-8.79,8.25-17.39,16.7-25.95,25.19
		c-7.59,7.53-15.08,15.19-22.04,23.32c-13.41,15.66-25.3,33.57-29.57,54.11c-0.53,2.52-0.92,5.07-1.22,7.63
		c-0.17,1.48,1.93,1.78,2.6,0.71c11.72-18.55,25.01-36.07,39.69-52.34c2.12-2.34,4.27-4.65,6.44-6.95
		c8.07-7.91,16.37-15.56,24.64-23.26c1.76-1.64,3.48-3.33,5.18-5.04c3.75-3.2,7.55-6.34,11.42-9.39
		c17.73-13.99,36.81-25.9,56.2-37.39c19.87-11.76,39.91-23.39,58.16-37.65c8.6-6.72,17.19-13.92,23.35-23.06
		C692.44,334.1,695.74,323.18,693.4,312.66z"/>
	<path class="st0" d="M661.99,745.85c0.18-2.09-0.01-4.16-0.86-5.96c0-0.15,0.01-0.3,0.01-0.46c0-0.43-0.16-0.75-0.4-0.97v-0.11
		c0-0.52-0.46-1.02-1-1s-1,0.44-1,1v0.12c-0.24,0.22-0.39,0.54-0.4,0.97c0,0.52-0.02,1.04-0.04,1.56c-0.04,0.42-0.06,0.85-0.07,1.27
		c-0.58,8.44-3.51,16.39-7.52,23.84c-4.39,8.16-10.36,15.09-15.96,22.4c-1.41,1.85-2.78,3.73-4.08,5.66
		c-8.53,9.28-17.64,18.02-26.01,27.45c-10.12,11.39-18.56,23.9-24.82,37.82c-6.57,14.61-10.8,30.27-11.92,46.27
		c-1.12,15.96,0.99,32.18,6.69,47.15c0.72,1.9,1.5,3.77,2.33,5.63c0.67,1.51,2.87,0.39,2.55-1.08c-3.38-15.6-3.65-31.77-1.25-47.54
		c2.4-15.82,7.3-31.23,13.86-45.81c3.2-7.11,6.71-14.14,10.74-20.82c3.43-5.7,7.32-11.12,11.37-16.39
		c8.53-11.1,17.82-21.58,26.28-32.74c8.08-10.66,15.57-22.07,19.87-34.84c0.52-1.54,0.98-3.09,1.4-4.66
		c0.06-0.23,0.05-0.44,0.01-0.64C662.27,751.29,662.31,748.56,661.99,745.85z"/>
	<path class="st1" d="M1522.26,647.81c-0.86-7.36-1.46-14.74-2-22.13c-1.59-3.76-3.14-7.54-4.79-11.3
		c-2.34-5.36-4.82-10.66-7.29-15.96c-0.72-0.91-1.45-1.82-2.19-2.72c-4.06-4.92-7.84-10.33-9.94-16.39
		c-2.06-2.13-4.14-4.25-6.18-6.4c-18.52-19.47-30.24-43.52-38.13-69.03c-8.31-26.85-13.26-54.77-15.21-82.79
		c-3.11-17.39-3.24-35.41-2.32-53.17c-2.11-9.34-2.61-19.1-2.03-28.44c1.17-18.64,1.21-37.32,2.06-55.97
		c0.43-9.3,1.83-18.51,2.87-27.75c1.05-9.35,1.34-18.61,1.35-28.02c0.01-9.48-0.19-19.14-1.61-28.53
		c-1.08-7.11-3.52-13.9-4.76-20.97c-1.78-3.38-3.25-6.99-4.4-10.67c-2.91-3.71-6.11-7.18-9.81-10.24
		c-7.78-6.43-16.97-9.16-26.51-9.8c-12.71,3.84-25.61,6.97-38.41,10.5c-1.37,0.38-2.73,0.77-4.09,1.17
		c-0.45,0.52-1.06,0.99-1.85,1.35c-9.47,4.36-19.03,8.52-28.59,12.68c-0.62,1.11-1.64,2.05-3.12,2.59
		c-16.65,6.04-32.34,14.33-48.58,21.35c-1.05,0.46-2.09,0.59-3.05,0.49c-19.15,7.53-38.69,13.93-58.35,19.97
		c-2.71,1.04-5.42,2.12-8.1,3.24c-0.75,0.31-1.47,0.42-2.14,0.36c-16.66,6.65-33.61,12.66-50.09,19.77
		c-0.6,0.26-1.19,0.41-1.76,0.48c-11.66,5.96-23.44,11.76-35.42,17.09c-2.11,1.08-4.23,2.15-6.36,3.19
		c-1.37,0.67-2.74,1.33-4.11,1.99c-4.09,2.39-8.48,4.49-12.95,6.38c-1.09,0.56-2.19,1.12-3.27,1.7c-3.12,1.67-6.44,2.93-9.71,4.26
		c-9.95,6.51-21.55,10.86-33.26,11.96c-0.69,0.06-1.28-0.03-1.8-0.23c-1.9,0.22-3.81,0.38-5.71,0.5c-3.7,1.14-7.44,2.16-11.23,3.03
		c-61.92,14.23-130.12-5.58-176.62-48.48c-1.34-0.87-2.62-1.85-3.85-2.82c-2.82-2.22-6.05-3.7-8.88-5.9
		c-3.22-2.5-6.47-4.27-9.92-6.39c-2.18-1.35-4.02-3.16-6.03-4.69c-1.98-1.16-3.94-2.37-5.88-3.61c-5.58-2.67-11.29-5.04-17.1-7.19
		c-1.88-0.52-3.75-1.08-5.61-1.63c-8.66-0.52-17.45-2.06-26.01-2.37c-3.21-0.12-6.47-0.24-9.75-0.31
		c-17.75,1.34-35.32,3.67-52.3,9.37c-0.49,0.33-1.08,0.57-1.78,0.68c-0.14,0.02-0.28,0.06-0.43,0.08c-0.21,0.08-0.43,0.14-0.64,0.22
		c-0.85,0.3-1.63,0.4-2.34,0.33c-2.72,0.56-5.42,1.24-8.12,1.95c-17.88,8.62-38.18,10.37-57.79,9.47
		c-10.77-0.49-21.7-1.38-32.29-3.46c-1.47-0.29-2.93-0.62-4.39-0.97c-3.63-0.15-7.26-0.39-10.9-0.76
		c-17.19-1.75-34.3-3.91-51.57-4.86c-1.89-0.1-3.29-0.96-4.18-2.15c-20.46-4-40.47-10.03-61-13.73c-1.64-0.3-2.74-1.26-3.36-2.49
		c-6.19-1.09-12.43-1.88-18.75-2.27c-18.5,4.51-36.49,10.77-54.51,17.02c-0.29,0.1-0.57,0.17-0.84,0.23
		c-5.05,4.15-10.03,8.32-15.03,12.28c-7.14,11.97-13.75,24.31-20.45,36.52c-1.4,22.46-2.37,44.95-3.33,67.44v2.31
		c0.99,12.5,1.78,25.01,2.51,37.53c3.73,8.73,6.84,17.6,9.39,26.74c1.15,4.11,1.98,8.29,3.01,12.42c0.76,3.05,1.59,5.96,0.98,9.03
		c0.24,0.77,0.49,1.54,0.73,2.31c9.03,28.52,21.43,57.38,24.49,87.41c0.66,2.71,1.31,5.43,1.92,8.16c0.34,1.51,0.65,3.15,0.63,4.66
		c0.04,0.13,0.09,0.25,0.13,0.39c5.29,19.27,8.86,38.89,10.8,58.77c0.09,0.89-0.02,1.67-0.26,2.33c1.27,11.5,2.48,23,3.64,34.5
		c1.48,14.72,2.66,29.48,3.5,44.25c0.16,0.37,0.29,0.76,0.36,1.2c2.1,13.66,4.17,27.32,5.28,41.1c0.07,0.91-0.05,1.69-0.31,2.37
		c0.15,2.22,0.27,4.44,0.34,6.66c0.87,6.12,1.7,12.24,2.46,18.38c0.23,1.08,0.46,2.16,0.69,3.24c3.4,16.06,7.25,32.16,9.45,48.46
		c1.69,5.54,2.85,11.23,4.72,16.73c1.58,4.63,3.31,9.47,3.69,14.4c0.24,0.77,0.48,1.54,0.72,2.31c1.76,5.59,3.37,11.22,5.06,16.83
		c1.12,3.71,2.22,7.46,1.5,11.29c1.11,3.1,2.17,6.22,3.13,9.36c0.23,0.35,0.44,0.73,0.62,1.15c3.94,9.43,7.41,18.99,9.54,29
		c0.81,2.57,1.54,5.15,1.96,7.79c7.41,14.24,11.23,30.81,15.82,45.79c1.46,4.77,2.81,9.64,4.35,14.44c0.84,0.44,1.57,1.14,2.09,2.17
		c1.96,3.86,3.43,7.89,4.82,11.96c2.05,4.54,3.38,9.46,5.02,14.1c0.06,0.18,0.11,0.36,0.16,0.53c4.47,7.32,8.71,14.8,12.95,22.33
		c5.21,9.26,10.88,18.24,15.95,27.58c3.46,6.38,7.04,12.84,8.84,19.86c9.21,11.14,18.17,22.49,26.77,34.15
		c11.12,10.39,21.72,21.32,32.82,31.73c1.53,1.44,1.98,3.08,1.7,4.58c15.85,9.69,32.12,18.84,47.3,29.5
		c10.75,2.84,21.07,7.72,30.96,12.54c7.58,3.69,15.13,7.42,22.75,11.02c7.4,3.5,15.03,6.5,22.34,10.2
		c6.12,2.02,11.89,5.12,18.34,6.09c1.16,0.17,1.96,0.77,2.44,1.58c16.47,2.86,32.93,5.6,49.35,8.67h48.45
		c3.59-1.66,7.77-2.21,11.54-3.28c6.53-1.86,13.05-3.75,19.56-5.69c5.18-1.54,10.29-3.27,15.37-5.11c2.08-1.49,4.2-2.94,6.33-4.37
		c0.95-0.73,1.89-1.45,2.84-2.17c0.11-0.12,0.23-0.25,0.36-0.36c1.97-1.8,4.1-3.33,6.32-4.74c0.26-0.19,0.52-0.38,0.78-0.57
		c2.27-2.08,4.51-4.18,6.85-6.16c0.02-0.02,0.03-0.04,0.05-0.05c8.79-9.53,18.38-18.67,29.84-24.93
		c11.5-6.28,24.36-8.83,37.12-11.16c0.82-0.36,1.77-0.53,2.95-0.47c0.47,0.02,0.9,0.12,1.32,0.25c6.63-1.55,13.41-2.53,20.12-3.6
		c17.08-2.73,34.9-2.54,52.13-1.03c5.71,0.5,11.64,1.1,17.26,2.58c5.55,0.49,11.03,1.41,16.36,2.78c6.25,1.19,12.35,2.9,18.14,5.39
		c9.91,4.26,16.51,12.04,25.43,17.65c4.78,3.01,10.14,5.09,15.01,7.96c4.4,2.59,8.51,4.62,13.08,6.46
		c11.39,2.18,22.84,4.27,34.41,4.39c8.73,0.09,16.88-2.32,25.3-4.35c6.22-1.5,12.36-3.27,18.54-4.95
		c7.47-3.46,15.35-6.05,23.35-8.07c12.38-3.13,24.22-7.24,35.89-12.43c11.93-5.3,23.55-11.26,35.25-17.05
		c5.46-2.7,10.87-5.43,16.55-7.65c2.56-1,5.12-1.98,7.63-3.08c3.08-2.1,6.14-4.22,9.18-6.35c6.81-4.76,13.55-9.63,20.52-14.14
		c3.67-2.37,7.46-4.86,11.39-7.03c5.01-5.51,9.97-11.06,14.9-16.65c0.66-0.74,1.37-1.22,2.11-1.5c3.45-4.27,6.86-8.58,10.22-12.93
		c0.76-0.95,1.7-1.46,2.68-1.64c2.15-3.05,4.24-6.15,6.21-9.34c0.46-0.75,0.91-1.5,1.37-2.25c4.01-11.79,12.19-21.61,18.98-32.11
		c0.46-0.99,0.94-1.98,1.44-2.95c1.5-12.43,4.33-24.53,11.33-35.02c0.1-0.14,0.2-0.25,0.31-0.38c2.36-10.74,5.38-21.36,7.46-32.16
		c0.02-2.63,0.07-5.24,0.18-7.81c0.86-19.96,4.96-40.41,9.71-59.91c0.77-13.5,2.76-26.97,5.55-39.89
		c3.75-17.4,10.58-33.45,17.93-49.36c3.36-13.73,6.9-27.39,11.77-40.73c5.78-15.82,12.69-31.52,17.41-47.76v-26.82
		C1524.02,664.26,1523.2,655.88,1522.26,647.81z"/>
	<path class="st2" d="M1527.24,676.23c-0.06-0.13-0.12-0.25-0.17-0.39c-2.81-8.98-3.73-18.71-4.82-28.02
		c-0.77-6.63-1.33-13.27-1.83-19.92c-0.72-2.51-1.5-5.01-2.39-7.47c-0.84-2.02-1.69-4.03-2.57-6.03
		c-2.34-5.36-4.82-10.66-7.29-15.96c-0.72-0.91-1.45-1.82-2.19-2.72c-4.05-4.92-7.84-10.32-9.94-16.37
		c-2.06-2.14-4.14-4.27-6.18-6.42c-18.52-19.47-30.24-43.52-38.13-69.03c-8.31-26.85-13.26-54.77-15.21-82.79
		c-3.11-17.39-3.24-35.41-2.32-53.17c-2.11-9.34-2.61-19.1-2.03-28.44c1.17-18.64,1.21-37.32,2.06-55.97
		c0.43-9.3,1.83-18.51,2.87-27.75c1.05-9.35,1.34-18.61,1.35-28.02c0.01-9.48-0.19-19.14-1.61-28.53
		c-1.08-7.11-3.52-13.9-4.75-20.96c-1.79-3.38-3.26-6.99-4.41-10.68c-2.91-3.71-6.1-7.18-9.81-10.24
		c-7.78-6.43-16.97-9.16-26.51-9.8c-12.71,3.84-25.61,6.97-38.41,10.5c-1.37,0.38-2.73,0.77-4.09,1.17
		c-0.45,0.52-1.06,0.99-1.85,1.35c-9.47,4.36-19.03,8.52-28.59,12.68c-0.62,1.11-1.64,2.05-3.12,2.59
		c-4.06,1.47-8.07,3.09-12.04,4.78c-2.31,1.2-4.61,2.4-6.93,3.57c-1.67,0.58-3.36,1.17-5.04,1.76c-8.18,3.77-16.31,7.67-24.57,11.24
		c-0.76,0.33-1.5,0.48-2.22,0.51c-0.07,0.04-0.14,0.08-0.21,0.12c-9.96,3.38-19.86,7.07-29.3,11.63c-0.83,0.15-1.63,0.31-2.38,0.47
		c-6.47,1.41-12.6,3.93-18.81,6.15c-3.64,1.3-7.4,2.27-11.1,3.39c-5.11,1.55-10.21,3.12-15.27,4.83c-0.54,0.18-1.08,0.38-1.62,0.57
		c-9.81,3.79-19.67,7.48-29.43,11.41c-6.8,2.86-13.57,5.8-20.3,8.83c-9.29,4.67-18.67,9.19-28.17,13.41
		c-2.14,1.1-4.29,2.18-6.45,3.24c-1.37,0.67-2.74,1.33-4.11,1.99c-4.09,2.39-8.48,4.49-12.95,6.38c-1.09,0.56-2.19,1.12-3.27,1.7
		c-3.13,1.68-6.46,2.94-9.74,4.28c-6.9,4.51-14.59,7.99-22.57,10.06c-0.25,0.15-0.5,0.28-0.75,0.43
		c-9.34,4.05-18.12,9.41-26.27,15.51c-12.79,9.56-24.27,20.79-34.56,32.98c-2.26,2.68-4.47,5.42-6.61,8.19
		c-0.62-0.01-1.25,0.21-1.82,0.77c-11.12,11.03-19.62,24.42-23.86,39.56c-3.94,14.06-4.06,28.79-2.02,43.17
		c0.44,3.11,1,6.19,1.64,9.26c-0.25,0.45-0.33,1-0.23,1.55c1.98,11.42,4.81,22.69,7.93,33.85c3.11,11.12,6.62,22.11,9.84,33.2
		c3.24,11.17,5.97,22.46,7.89,33.93c1.85,11.07,2.97,22.24,3.64,33.44c0.39,6.48,0.62,12.97,0.76,19.46
		c0.07,3.34,0.03,6.7,0.07,10.07c-2.17,11.02-1.52,22.45-4.66,33.29c-3.03,10.47-6.52,20.88-11.26,30.71
		c-4.84,10.05-11.27,19.21-17.83,28.2c-2.91,3.99-5.86,8.35-8.9,11.99c-2.83,3.38-6,6.45-9.15,9.52
		c-6.99,6.84-15.18,14.24-17.92,23.99c-0.31,1.1,0.18,2.64,1.28,3.15c2.77,1.29,6.03,1.9,9.05,1.5c0.31,0.28,0.72,0.45,1.19,0.49
		c0.37,0.03,0.75,0.06,1.12,0.1c0.05,0.01,0.45,0.06,0.46,0.06c0.12,0.02,0.24,0.04,0.36,0.05c0.03,0.01,0.07,0.01,0.1,0.02
		c0.66,0.21,1.33,0.41,1.99,0.62c0.23,0.07,0.49,0.06,0.74,0.01c8.74,3.43,18.44,4.57,27.69,4.97c12.67,0.55,25.36-0.47,37.96-1.71
		c15.24-1.5,30.45-3.19,45.57-5.62c16.21-2.61,32.17-6.17,48.09-10.15c13.01-3.25,26.29-6.54,38.36-12.55
		c-1.34,3.09-3.65,5.69-5.99,8.09c-2.96,3.04-6.2,5.77-9.16,8.81c-3.57,3.67-6.86,7.61-10.38,11.34c-3.71,3.93-7.5,7.78-11.35,11.57
		c-7.82,7.71-15.88,15.1-24.35,22.09c-7.64,6.3-15.26,12.8-23.77,17.9c-8.58,5.14-18,9.7-24.65,17.4c-1.26,1.46-0.98,4.23,1.23,4.67
		c3.71,0.72,7.48,0.13,11.13-0.66c2.11-0.46,4.2-1.05,6.27-1.7c3.77,1.49,7.5,3.07,11.19,4.73c2.09,0.94,4.18,1.9,6.26,2.86
		c1.53,0.71,3.21,1.79,4.92,2.16c2.36,1.22,4.86,2.18,7.24,3.03c5.1,1.82,10.38,3.11,15.67,4.19c5.14,1.05,10.32,1.91,15.49,2.84
		c6.19,1.11,12.36,2.13,18.65,2.4c2.4,0.1,4.81,0.09,7.22-0.02c0.2,0.03,0.4,0.07,0.6,0.1c2.87,0.41,5.77,0.49,8.61-0.23
		c0.23-0.06,0.43-0.16,0.62-0.29c9.08,0.09,18.17-1.03,26.94-3.43c9.08-2.49,18.03-5.45,26.77-8.97c8.79-3.54,17.31-7.63,25.61-12.2
		c7.73-4.25,15.45-8.53,22.96-13.17c6.91-4.27,13.66-8.86,19.94-14.03c1.46-0.87,2.82-1.86,4.13-2.93c2.15-1.16,4.4-2.21,6.34-3.65
		c4.21-3.12,8.06-6.7,12.28-9.81c8.69-6.41,17.08-13.22,25.4-20.1c8.1-6.7,16.04-13.62,24.63-19.68
		c5.58-3.93,11.21-7.85,17.45-10.67c0.32-0.15,0.65-0.29,0.97-0.43c0.15-0.06,0.29-0.13,0.44-0.19c0.03-0.01,0.04-0.02,0.06-0.02
		c0.02-0.01,0.03-0.01,0.06-0.03c0.76-0.31,1.52-0.61,2.28-0.89c1.32-0.48,2.67-0.92,4.05-1.23c0.29-0.06,0.58-0.11,0.87-0.16
		c0.12-0.01,0.24-0.02,0.36-0.03h0c0.17,2.82,4.5,3.75,5.42,0.61c0.15-0.5,0.24-1.01,0.29-1.52c0.87-0.59,1.41-1.61,1.01-2.87
		c-0.7-2.22-2.31-3.96-4.42-4.78c-0.47-0.86-1.36-1.53-2.37-1.44c-8.58,0.77-16.27,5.49-23.26,10.2
		c-7.81,5.27-15.12,11.12-22.32,17.18c-7.38,6.19-14.9,12.09-22.83,17.56c-8.01,5.52-16.21,10.74-24.29,16.16
		c-7.76,5.21-15.32,10.7-23.06,15.92c-7.64,5.15-15.4,10.12-23.35,14.79c-15.84,9.31-32.45,17.42-50.01,22.94
		c-9.14,2.87-18.37,4.97-27.94,5.63c-9.76,0.67-19.54,0.27-29.32,0.32c-2.44,0.01-4.86,0.08-7.29,0.29
		c-1.54,0.14-2.39,1.27-2.51,2.44c-5.92-1.16-11.83-2.66-17.54-4.58c-5.67-1.91-11-4.66-16.3-7.39c-5.02-2.58-10.14-5.02-15.42-7.03
		c1.9-1.02,3.7-2.11,5.4-3.46c4.16-3.32,8.13-6.9,12.57-9.86c8.39-5.61,16.91-11.01,25.05-16.99c8.14-5.98,15.98-12.44,22.9-19.81
		c3.65-3.89,7.01-8.05,10.31-12.22c3.47-4.38,6.84-8.84,9.96-13.47c3.37-4.99,6.26-10.18,8.86-15.61c0.15-0.32,0.3-0.64,0.45-0.96
		c2.13-3.4,4.14-6.88,5.95-10.46c2.51-3.98,4.86-8.07,7.02-12.25c0.3-0.23,0.61-0.47,0.91-0.71c0.89-0.74,1-2.07,0.55-3.11
		c-0.05-0.73-0.38-1.43-1.03-1.92c-0.26-0.19-0.57-0.34-0.91-0.44c-0.9-0.76-2.28-0.96-3.49,0.08c-3.86,3.33-9.31,4.03-14.05,5.45
		c-6.56,1.97-12.99,4.41-19.5,6.54c-13.1,4.28-26.33,8.19-39.73,11.44c-3.25,0.79-6.52,1.54-9.79,2.24
		c-0.66,0.09-1.32,0.19-1.98,0.32c-2.09,0.42-4.18,0.88-6.26,1.35c-7.3,1.4-14.65,2.57-22.03,3.44c-8.2,0.97-16.41,1.4-24.63,1.62
		c-1.65-0.02-3.29,0.01-4.92,0.11c-4.35,0.08-8.71,0.11-13.08,0.14c-3.95,0.03-7.89,0.22-11.84,0.15c-4.03-0.07-8.05-0.3-12.08-0.55
		c-5.36-0.32-10.73-0.63-16.11-0.78c1.7-2.26,3.51-4.43,5.14-6.75c1.77-2.53,3.55-5.1,5.04-7.81c1.18-2.15,2.16-4.38,3.18-6.6
		c2.06-3.06,3.87-6.27,5.14-9.75c0.14-0.39,0.15-0.82,0.06-1.23c0.36-0.63,0.73-1.26,1.08-1.9c2.05-3.76,3.88-7.65,6.01-11.37
		c1.18-2.05,2.39-4.07,3.46-6.18c1.09-2.15,1.83-4.37,2.51-6.68c0.21-0.72,0.11-1.34-0.19-1.81c0.27-0.6,0.55-1.19,0.82-1.79
		c0.11-0.26,0.22-0.53,0.33-0.79c0.36-0.22,0.66-0.52,0.84-0.92c6.18-13.86,9.28-28.7,12.79-43.39c3.68-15.44,6.55-30.99,7.55-46.85
		c0.5-7.86,0.56-15.75,0.15-23.62c-0.42-8.03-1.46-15.96-2.71-23.9c-1.23-7.77-2.38-15.56-3.76-23.3
		c-1.29-7.24-2.95-14.38-4.65-21.53c-1.73-7.3-3.33-14.78-5.97-21.82c-2.15-5.72-4.68-11.28-7.72-16.57
		c-0.3-1.23-0.6-2.45-0.89-3.67c-0.81-3.37-1.79-6.71-3.34-9.83c-0.36-2.58-0.58-5.18-0.61-7.81c-0.01-0.83-0.44-1.39-1.01-1.69
		c0.07-0.74,0.15-1.49,0.25-2.23c0.38-1.85,0.79-3.69,1.3-5.51c0.66-2.37,1.34-4.74,1.84-7.15c0.03-0.15,0.04-0.3,0.05-0.45
		c1.62-3.24,3.34-6.42,4.58-9.83c0.93-1.56,1.81-3.14,2.68-4.7c2.18-3.92,4.24-7.91,6.43-11.82c0.15-0.27,0.21-0.53,0.21-0.79
		c5.74-5.74,11.73-11.27,17.08-17.32c1.65-1.87,3.23-3.8,4.74-5.79c2.05-1.83,4.15-3.59,6.1-5.52c0.19-0.19,0.32-0.41,0.4-0.65
		c0.02-0.01,0.03-0.02,0.05-0.03c2.61-1.37,5.11-2.95,7.59-4.55c4.91-3.17,9.66-6.64,14.73-9.57c0.89-0.51,1.29-1.3,1.34-2.11
		c2.04-0.84,4.1-1.68,6.1-2.58c4.67-2.09,9.24-4.4,13.88-6.55c2.19-1.02,4.4-2,6.64-2.9c3-0.96,6-1.92,8.95-3.01
		c1.25-0.46,2.14-1.58,2.04-2.9c0.98-0.29,1.97-0.56,2.94-0.86c22.02-6.79,43.6-15.02,65.03-23.46
		c10.96-4.32,21.89-8.74,32.82-13.14c10.91-4.38,21.8-8.84,32.48-13.76c9.82-4.52,19.45-9.51,29.49-13.51
		c9.37-3.74,18.89-7.16,27.82-11.9c2.05-1.09,4.05-2.26,5.99-3.55c0.13-0.08,0.24-0.18,0.34-0.27c0.37-0.13,0.74-0.26,1.11-0.4
		c9.95-3.51,19.93-6.93,29.98-10.12c1.4-0.45,1.99-1.56,1.96-2.67c11.95-3.97,23.94-7.86,35.92-11.76
		c10.52-3.43,20.97-7.06,31.45-10.59c1.18-0.4,1.74-1.3,1.81-2.24c3.23-0.82,6.44-1.69,9.62-2.67c2.3,0.69,4.38,1.81,6.27,3.31
		c0.07,0.15,0.15,0.29,0.24,0.42c0.19,0.54,0.44,1.01,0.87,1.42c0.18,0.17,0.38,0.31,0.57,0.42c-0.06,0.23-0.11,0.48-0.11,0.75
		c-0.01,5.11,1.34,9.96,2.77,14.81c-0.2,0.37-0.33,0.81-0.33,1.34c0,1.34,0,2.67,0,4.01c-0.15,2.45-0.14,4.92-0.08,7.35
		c-0.75,5.01-1.71,10-2.29,15.04c-1.02,8.78-0.92,17.76-1.32,26.59c-0.43,9.61-1.02,19.2-1.88,28.78
		c-1.68,18.73-2.42,37.55-2.25,56.36c0.17,18.43,1.6,36.69,3.27,55.03c1.64,18.08,3.01,36.19,5.71,54.15
		c2.78,18.52,7.34,36.56,13.91,54.1c6.17,16.48,13.94,32.27,24.03,46.72c9.96,14.26,21.49,27.51,29.09,43.29
		c11.84,24.59,17.35,53.04,15.14,80.57c-1.23,0.27-2.37,1.23-2.43,2.67c-0.17,4.02-0.47,8.03-0.89,12.03
		c-1.47,5.04-3.97,9.93-6.03,14.43c-4.1,8.95-7,18.36-10.05,27.71c-0.44,1.34-0.87,2.68-1.3,4.02c-1.45,2.89-2.89,5.79-4.34,8.68
		c-0.58,1.17-0.31,2.42,0.42,3.25c-1.7,5.01-3.49,10-5.51,14.9c-3.88,9.43-8.7,18.78-11.29,28.68c-2.63,10.01-2.99,20.9-7.8,30.23
		c-1.63,3.17,3.14,5.98,4.79,2.8c4.39-8.42,5.43-17.87,7.35-27.03c1.47-6.99,4.04-13.63,6.81-20.19c0.25,0.52,0.67,0.93,1.16,1.19
		c0.39,0.35,0.89,0.57,1.42,0.65c-1.26,3.96-2.4,7.95-3.27,12.02c-0.29,1.35,0.29,2.76,1.62,3.3c0.33,0.13,0.7,0.2,1.07,0.2
		c-0.03,0.24-0.06,0.48-0.09,0.72c-0.25,2.45,3.2,3.64,4.77,1.98c2.57-2.73,4.56-5.79,6.17-9.06c0.19,0.14,0.4,0.26,0.63,0.35
		c-0.55,2.02-1.1,4.03-1.68,6.04c-0.38,1.33,0.35,2.79,1.62,3.29c1.36,0.55,2.66,0.02,3.49-1.14c1.15-1.62,2.16-3.3,3.06-5.03
		c0.19,0.14,0.39,0.27,0.61,0.36c1.4,0.56,2.61,0,3.49-1.14c2.43-3.17,4.46-6.63,6.22-10.23c0.31,0.18,0.65,0.3,0.98,0.34
		c1.35,0.16,2.71-0.63,3.06-2c1.56-6.04,3.56-11.93,5.73-17.75c2.2-8.11,4.62-16.17,7.52-24.11c3.76-10.29,8-20.53,11.8-30.91
		c-0.06-0.38-0.21-0.74-0.43-1.06c3.17-5.48,4.87-11.81,5.87-18C1526.98,690,1527.35,683.11,1527.24,676.23z"/>
</g>
<rect x="151.78" y="185.6" class="st1" width="2" height="94"/>
<path class="st2" d="M922.53,607.82c-0.84-6.9-2.93-13.63-5.06-20.24c-1.25-3.88-2.65-7.76-4.32-11.51
	c-0.52-1.58-1.04-3.17-1.58-4.75c-2.18-6.44-4.53-12.83-7.37-19c-5.75-12.51-13.79-23.84-21.26-35.35
	c-7.49-11.53-14.46-23.48-20.37-35.9c-6.05-12.72-10.17-25.82-12.12-39.78c-1.94-13.94-2.71-28.08-2.21-42.14
	c0.52-14.44,2.05-28.82,2.64-43.26c1.14-27.53-1.64-56.39-11.91-82.15c-4.84-12.13-11.51-23.21-19.54-33.49
	c-4.35-5.58-9.06-10.87-13.8-16.12c-2.78-3.09-5.31-6.57-8.32-9.49c-2.04-0.82-4.08-1.63-6.15-2.39c-1.83-0.51-3.65-1.06-5.48-1.59
	c-0.01,0.01-0.02,0.02-0.03,0.04c-0.06-0.03-0.12-0.05-0.18-0.08c-8.64-0.53-17.4-2.06-25.93-2.37c-3.18-0.11-6.41-0.24-9.65-0.3
	c-9.89,0.75-19.73,1.79-29.44,3.56c-3.24,0.69-6.46,1.44-9.65,2.31c-0.35-0.07-0.72-0.06-1.13,0.07c-4.05,1.3-8.15,2.43-12.28,3.48
	c-0.47,0.3-1.02,0.52-1.67,0.62c-0.14,0.02-0.28,0.06-0.43,0.08c-0.21,0.07-0.43,0.14-0.64,0.22c-0.83,0.3-1.59,0.38-2.29,0.32
	c-0.06,0.01-0.12,0.02-0.17,0.03c-1.37,0.32-2.74,0.65-4.12,0.96c-0.22,0.05-0.45,0.1-0.67,0.15c-1.08,0.27-2.16,0.54-3.23,0.83
	c-17.87,8.61-38.16,10.36-57.76,9.46c-7.96-0.37-16-0.95-23.93-2.06c-1.06-0.01-2.12,0.02-3.17,0.05c-0.27-0.3-0.63-0.53-1.05-0.69
	c-1.34-0.22-2.67-0.47-4-0.73c-1.34-0.11-2.7-0.12-4.04-0.13c-0.92,0-1.83-0.03-2.75-0.06c-1.01-0.12-2.02-0.23-3.03-0.31
	c-0.25-0.03-0.5-0.07-0.75-0.1c-0.32-0.35-0.73-0.63-1.24-0.78c-0.15-0.04-0.3-0.07-0.44-0.1c-1.06-0.09-2.11-0.16-3.17-0.27
	c-0.37-0.04-0.74-0.08-1.11-0.12c-1.36,0.01-2.73,0.06-4.07-0.01c-0.18-0.01-0.36-0.02-0.53-0.03c-0.22-0.14-0.47-0.26-0.75-0.34
	c-0.46-0.12-0.93-0.22-1.4-0.33c-14.55-1.56-29.07-3.23-43.71-4.03c-1.9-0.1-3.29-0.96-4.18-2.15c-11.3-2.21-22.47-5.03-33.66-7.75
	c-0.19,0-0.37,0.02-0.54,0.05c-1.03-0.32-2.06-0.62-3.1-0.92c-7.86-1.88-15.74-3.67-23.7-5.1c-1.57-0.28-2.63-1.17-3.27-2.32
	c-0.39-0.13-0.8-0.23-1.2-0.35c-5.74-0.98-11.52-1.7-17.38-2.07c-0.11,0-0.22,0-0.33,0c-18.49,4.51-36.45,10.77-54.46,17.01
	c-0.29,0.1-0.57,0.17-0.84,0.23c-4.13,3.4-8.21,6.81-12.3,10.1c-2.12,2.45-4.13,5.02-5.97,7.69c-2.46,4.25-4.86,8.53-7.24,12.82
	c-0.13,0.28-0.27,0.56-0.4,0.85c-0.48,1.1-0.93,2.22-1.36,3.34c-0.23,0.03-0.44,0.09-0.65,0.18c-1.37,2.49-2.73,4.98-4.09,7.47
	c-0.67,1.56-1.27,3.14-1.75,4.8c-0.97,3.34-1.69,6.74-2.23,10.17c-0.91,15.73-1.63,31.46-2.32,47.2c0.02,0.09,0.04,0.18,0.07,0.27
	c-0.04,0.09-0.07,0.19-0.09,0.29c-0.01,0.22-0.02,0.43-0.03,0.65c0.24,3.47,1.53,6.68,2.3,10.04c0.78,3.35,1.21,6.78,1.95,10.14
	c1.22,5.62,2.36,11.34,4.89,16.53c-0.08,1.41,0.37,2.83,0.85,4.16c0.62,1.71,1.26,3.36,1.76,5.12c1.28,4.59,3.03,9.03,4.28,13.63
	c1.25,4.58,2.47,9.15,4.31,13.54c0.04,0.1,0.09,0.2,0.13,0.3c-0.03,0.23-0.01,0.47,0.08,0.69c1.37,3.33,2.42,6.77,3.56,10.17
	c-0.34,0.57-0.32,1.27-0.02,1.93c1.39,3.05,2.18,6.33,2.99,9.57c0.4,1.59,0.78,3.2,1.26,4.76c0.53,1.7,1.29,3.33,1.75,5.05
	c0.71,2.61,1.4,5.19,2.37,7.72c0,0.18,0.03,0.36,0.11,0.55c0.05,0.13,0.11,0.27,0.16,0.4c0.35,2.14,0.8,4.25,1.4,6.34
	c0.23,0.78,0.47,1.57,0.74,2.36c0.23,1.33,0.49,2.65,0.87,3.93c-0.04,0.26-0.04,0.53,0.02,0.81c0.74,3.9,1.72,7.71,2.93,11.48
	c0.54,2.7,1.13,5.38,2.07,7.97c-0.19,0.49-0.22,1.06-0.04,1.71c1.13,3.79,1.31,7.72,3.11,11.31c0.15,0.29,0.36,0.53,0.6,0.73
	c-0.4,0.63-0.55,1.41-0.34,2.19c0.49,1.82,1.01,3.64,1.52,5.46c-0.27,0.59-0.35,1.27-0.2,1.93c0.19,0.88,0.39,1.75,0.6,2.63
	c-0.23,0.72-0.16,1.52,0.21,2.28c0.45,0.94,0.78,1.9,1.12,2.86c0.26,0.9,0.54,1.8,0.84,2.68c0.08,0.25,0.19,0.46,0.31,0.66
	c0,0.02,0.01,0.03,0.01,0.05c0.38,2.14,0.99,4.22,1.65,6.28c-0.51,0.43-0.8,1.1-0.58,1.95c0.61,2.29,1.19,4.59,1.87,6.86
	c0.36,1.58,0.68,3.16,0.95,4.76c0.43,2.61,0.99,5.19,1.73,7.73c-0.49,0.6-0.74,1.42-0.54,2.32c1,4.52,2.42,8.92,3.31,13.47
	c0.89,4.54,1.84,9.06,2.76,13.59c1.59,7.81,2.84,15.69,4.77,23.42c-0.62,0.64-0.94,1.52-0.59,2.52c1.03,2.9,1.45,5.93,1.8,8.97
	c0.37,3.23,0.87,6.41,1.42,9.61c1.13,6.54,2.35,13.06,3.49,19.59c2.31,13.31,4.37,26.65,6.74,39.95c2.37,13.27,4.76,26.54,7,39.83
	c2.23,13.27,4.2,26.57,6.31,39.86c0.31,1.94,0.61,3.88,0.9,5.82c0.13,0.86,0.26,1.72,0.38,2.58c0.01,0.09,0.03,0.32,0.05,0.52
	c0.17,1.93,0.27,3.86,0.45,5.79c0.37,3.72,0.63,9.73,4.84,11.23c0.54,0.19,1.1,0.16,1.62-0.04c0.54,1.28,1.11,2.52,1.68,3.72
	c0.35,0.74,1.09,1.17,1.88,1.3c0.67,1.94,1.53,3.78,2.75,5.39c0.73,0.97,1.77,1.58,3.01,1.31c0.67,0.39,1.52,0.52,2.23,0.32
	c0.73-0.2,1.26-0.67,1.61-1.26c1.66,1.05,4.15,0.25,4.28-2.25c0.06-1.21,0.03-2.4-0.05-3.59c0.87-0.67,1.23-1.83,1-2.96
	c-0.07-0.35-0.14-0.71-0.21-1.07c0.83-0.39,1.46-1.19,1.47-2.34c0-0.19-0.01-0.38-0.01-0.56c0.54,2.68,1.11,5.35,1.83,7.97
	c0.75,2.73,5.41,2.31,5.11-0.69c-0.43-4.37-1.47-8.65-2.37-12.94c-0.88-4.21-1.74-8.43-2.44-12.67c-1.44-8.65-2.75-17.32-4.25-25.96
	c-1.33-7.69-2.83-15.33-4.31-22.99c0.06-0.21,0.09-0.43,0.06-0.67c-0.19-2.2-0.63-4.34-0.93-6.53c-0.29-2.15-0.47-4.32-0.72-6.47
	c-0.51-4.52-1.19-8.88-2.72-13.18c-0.03-0.07-0.06-0.14-0.09-0.2c-0.04-0.39-0.09-0.78-0.12-1.18c-0.39-4.16-0.95-7.68-1.37-11.49
	c-0.33-2.96-0.7-5.99-2.12-8.59c-0.08-0.58-0.17-1.15-0.25-1.72c-0.66-4.65-1.1-9.33-1.9-13.96c-0.61-3.57-1.38-7.11-2.2-10.64
	c0-0.03-0.01-0.06-0.01-0.09c-0.56-4.57-1.88-9.05-2-13.67c-0.02-0.83-0.35-1.45-0.82-1.89c-0.24-1.64-0.49-3.28-0.66-4.93
	c-0.48-4.51-0.47-9.04-1.76-13.44c-0.25-0.84-0.77-1.39-1.39-1.69c-0.92-7.16-1.59-14.38-3.92-21.25c-0.08-0.23-0.19-0.44-0.31-0.64
	c-0.29-1.87-0.64-3.73-1.1-5.57c-0.01-0.04-0.03-0.07-0.04-0.11c-0.29-4.09-0.84-8.19-2.2-12.07c-0.18-0.5-0.45-0.89-0.77-1.2
	c0.07-0.25,0.1-0.5,0.07-0.77c-0.03-0.25-0.07-0.49-0.1-0.74c0,0,0,0,0,0c0-0.01-0.01-0.02-0.01-0.03c-0.13-0.92-0.28-1.86-0.39-2.8
	c-0.05-0.99-0.09-1.98-0.1-2.97c-0.01-1.24-0.64-2.04-1.47-2.42c-0.21-1.39-0.42-2.77-0.61-4.15c-0.07-0.49-0.34-0.92-0.7-1.25
	c-0.21-1.71-0.44-3.43-0.73-5.13c-0.56-3.31-1.46-6.53-2.59-9.7c-0.08-0.22-0.18-0.41-0.3-0.59c-0.33-1.94-0.68-3.87-1.06-5.81
	c-0.73-3.67-0.56-7.57-1.88-11.1c-0.2-0.54-0.52-0.96-0.91-1.28c-0.06-0.63-0.1-1.27-0.11-1.91c-0.02-1-0.47-1.71-1.1-2.15
	c-0.09-0.73-0.21-1.46-0.32-2.17c-0.23-1.48-0.43-2.96-0.72-4.43c-0.56-2.91-1.3-5.78-2.11-8.63c-0.65-2.28-1.24-4.53-2.25-6.63
	c-0.15-0.91-0.3-1.82-0.49-2.73c-0.1-0.47-0.2-0.95-0.29-1.43c0.09-0.42,0.1-0.87,0.03-1.32c-0.46-1.83-0.35-3.75-0.89-5.58
	c-0.09-0.32-0.25-0.61-0.44-0.86c-0.02-1.58-0.48-3.17-0.94-4.68c-0.32-1.06-0.7-2.1-1.08-3.14c-0.02-0.23-0.04-0.47-0.07-0.7
	c-0.14-1.47-0.28-2.94-0.49-4.39c-0.4-2.76-1.02-5.49-2.03-8.1c-0.23-0.59-0.66-1.08-1.19-1.33c-0.59-3.65-1.24-7.3-2.03-10.91
	c-1.43-6.58-3.28-13.06-4.76-19.62c-0.16-0.69-0.65-1.24-1.26-1.55c-0.12-0.71-0.25-1.42-0.37-2.13c-1.58-8.8-3.37-17.56-5.37-26.28
	c-1.14-4.95-2.45-9.86-3.55-14.83c-0.1-0.46-0.32-0.78-0.61-0.99c-0.39-3.11-0.78-6.22-1.2-9.32c-0.75-5.44-1.98-10.73-3.29-16.05
	c-0.06-0.27-0.17-0.48-0.3-0.67c-0.15-2.21-0.29-4.42-0.5-6.63c-0.41-4.45-1.27-8.95-1.47-13.45c0.09-1.5,0.31-2.93-0.08-4.44
	c-0.16-0.61-0.51-1.04-0.96-1.32c-0.06-5.53,0.21-11.05-0.39-16.55c0.01-0.06,0.01-0.12,0.02-0.18c0.41-3.63,0.86-7.29,1.48-10.89
	c0.31-1.81,0.73-3.6,0.95-5.43c0.22-1.79,0.28-3.59,0.48-5.38c0.46-1.59,0.93-3.17,1.45-4.73c0.7-2.09,1.43-4.29,2.3-6.1
	c0.78-1.61,1.57-3.22,1.89-4.97c0.66-0.96,1.33-1.92,2.01-2.86c1.57-2.16,3.2-4.26,4.86-6.35c1.61-2.02,3.7-3.68,5.01-5.93
	c0.07-0.12,0.13-0.25,0.18-0.38c1.45-1.05,2.94-2.06,4.45-3.04c2.81-1.81,5.65-3.53,8.64-5.04c3.15-1.6,6.39-3.03,9.45-4.82
	c8.13-2.32,16.75-1.18,25.07-1.17c0.27,0,0.51-0.04,0.74-0.1c0.42,0.1,0.83,0.2,1.24,0.3c7.11,1.72,14.4,3.83,21.78,3.8
	c2.65,1.08,5.29,2.15,8,3.05c3.96,1.32,8.11,2.31,12.31,2.24c0.47-0.01,0.93-0.14,1.33-0.36c1.39,0.46,2.75,1,4.15,1.43
	c1.27,0.39,2.53,0.75,3.78,1.21c0.08,0.17,0.18,0.33,0.32,0.44c0.17,0.14,0.34,0.31,0.54,0.41c0.17,0.09,0.43,0.18,0.58,0.24
	c0.18,0.08,0.37,0.16,0.56,0.22c0.38,0.11,0.78,0.2,1.16,0.3c0.69,0.17,1.38,0.31,2.08,0.44c0.49,0.22,1,0.41,1.51,0.58
	c1.23,0.4,2.43,0.83,3.64,1.28c1.47,0.55,2.97,1.02,4.47,1.46c0.8,0.23,1.72,0.48,2.65,0.6c0.03,0.06,0.05,0.13,0.08,0.2
	c0.19,0.33,0.49,0.61,0.83,0.81c0,0-0.01,0.01-0.01,0.01c0.04,0.02,0.08,0.03,0.11,0.05c0.02,0.01,0.05,0.02,0.07,0.04
	c0.59,0.3,1.26,0.38,1.9,0.53c0.56,0.14,1.11,0.3,1.67,0.47c0.55,0.17,1.11,0.34,1.66,0.51c0.73,0.23,1.45,0.27,2.2,0.21
	c0.27-0.02,0.55-0.09,0.81-0.19c1.23,0.4,2.48,0.73,3.74,1.04c1.06,0.27,2.08,0.54,3.12,0.73c2.47,0.91,4.91,2.04,7.54,2.17
	c0.14,0.01,0.28-0.01,0.42-0.03c1.04,0.35,2.1,0.64,3.15,0.88c2.31,0.55,4.64,0.98,6.96,1.46c1.57,0.32,3.12,0.66,4.67,0.71
	c0.28,0.11,0.55,0.23,0.83,0.33c2.34,0.86,4.82,1.02,7.17,1.79c0.49,0.16,0.94,0.13,1.35-0.03c0.16,0.04,0.31,0.09,0.47,0.12
	c0.06,0.01,0.12,0.02,0.17,0.03c1.74,0.39,3.49,0.72,5.22,1.15c1.28,0.32,2.56,0.64,3.88,0.77c0.66,0.07,1.3,0,1.96-0.09
	c0.26-0.04,0.53-0.08,0.79-0.13c0.98,0.19,1.95,0.37,2.93,0.54c1.79,0.3,3.58,0.56,5.38,0.79c0.8,0.1,1.62,0.15,2.44,0.22
	c1.05,0.14,2.1,0.27,3.13,0.38v-0.04c0.56-0.02,1.1-0.19,1.52-0.52c0.24,0.08,0.49,0.15,0.72,0.23c0.62,0.21,1.33,0.05,1.89-0.31
	c5.51,0.78,11.05,1.33,16.61,1.72c3.48,0.25,6.98,0.45,10.47,0.41c3.65-0.04,7.23-0.49,10.83-1.07c0.83-0.13,1.43-0.82,1.69-1.61
	c1.93-0.07,3.86-0.15,5.79-0.3c2.92-0.23,5.82-0.67,8.74-0.86c3.06-0.2,6.14-0.21,9.2-0.53c5.47-0.57,10.55-2.57,15.83-3.84
	c6.22-0.92,12.41-2.07,18.55-3.41c10.34-2.26,20.23-6.05,30.33-9.17c0.54-0.17,0.95-0.45,1.25-0.8c5.09-0.89,10.07-2.31,15.1-3.54
	c2.98-0.73,6.03-1.49,9.1-1.67c3.3-0.19,6.8,0.13,9.98-0.94c0.13-0.04,0.25-0.11,0.37-0.17c1.68-0.12,3.36-0.17,5.04-0.28
	c3.59-0.23,6.93-0.82,10.52-0.19c3.8,0.66,7.49,1.77,10.94,3.37c0.01,0.01,0.01,0.02,0.02,0.02c7.38,7.29,16.66,12.68,22.14,21.74
	c2.48,4.09,4.51,8.42,6.23,12.89c-0.17,0.48-0.21,1.02-0.06,1.59c3.49,13.06,6.85,26.25,8.43,39.71c0.08,0.7,0.16,1.41,0.23,2.11
	c-0.19,0.26-0.34,0.56-0.43,0.88c-2.01,7.49,0.28,15.15-0.54,22.72c-0.11,1.05-0.4,2.69-0.61,4.03c-0.26,1.72-0.51,3.45-0.63,5.18
	c-0.18,2.58-0.02,5.27,0.91,7.69c-2.49,26.32-4.43,52.97,0.46,79.14c3.04,16.27,8.43,31.93,15.08,47.04
	c0.04,0.15,0.08,0.29,0.13,0.44c0.28,0.79,0.65,1.53,1.06,2.23c2.57,5.68,5.3,11.29,8.16,16.82c10.95,21.22,23.51,41.56,34.99,62.5
	c5.7,10.4,11.36,20.91,15.36,32.11c2.88,8.06,5.04,16.69,5.11,25.31c-0.65,0.3-1.17,0.85-1.36,1.7c-0.14,0.62-0.28,1.23-0.42,1.85
	c-0.16,0.24-0.31,0.5-0.4,0.78c-0.98,2.88-1.97,5.63-2.18,8.69c-0.03,0.41,0.07,0.8,0.25,1.16c-0.02,0.05-0.04,0.1-0.06,0.15
	c0,0.01,0,0.01-0.01,0.02c-0.25,0.57-0.52,1.14-0.8,1.7c-0.5,0.99-1.06,1.96-1.66,2.9c-0.29,0.45-0.58,0.89-0.89,1.32
	c-0.14,0.2-0.29,0.4-0.44,0.6c-0.01,0.02-0.04,0.05-0.07,0.09c-0.07,0.08-0.18,0.23-0.21,0.26c-1.4,1.7-2.94,3.28-4.63,4.69
	c-0.19,0.16-0.38,0.31-0.57,0.47c-0.1,0.08-0.15,0.13-0.19,0.16c-0.02,0.01-0.04,0.03-0.08,0.05c-0.46,0.34-0.91,0.67-1.38,0.99
	c-0.91,0.63-1.85,1.22-2.81,1.78c-1.01,0.59-2.05,1.13-3.1,1.64c-0.5,0.24-1.01,0.48-1.51,0.71c-0.24,0.11-0.48,0.21-0.72,0.31
	c-0.16,0.07-0.32,0.13-0.48,0.2c-4.59,1.86-9.41,3.15-14.26,4.1c-1.27,0.25-2.55,0.48-3.83,0.69c-0.67,0.11-1.34,0.21-2.01,0.31
	c-0.16,0.02-0.31,0.04-0.47,0.07c-0.25-0.1-0.52-0.16-0.81-0.18c-3.1-0.16-6.2-0.06-9.3,0.13c-1.08,0.06-2.15,0.16-3.22,0.27
	c-10.16-1.19-20.5-1.14-30.59,0.5c-0.69,0.11-1.18,0.72-1.37,1.38c-4.25,0.06-8.49,0.14-12.73,0.32c-4.75,0.2-9.49,0.55-14.19,1.21
	c-6.45,0.9-12.78,2.71-18.94,4.78c-8.99,3.02-17.61,7.01-25.62,12.1c-5.74,3.65-11.9,6.61-17.77,10.04
	c-6.03,3.53-12.32,7.47-16.59,13.13c-2.8,3.7-4.81,9.46-0.57,12.97c3.69,3.05,9.12,3.4,13.7,3.71c2.5,0.17,5.01,0.24,7.51,0.34
	c1.18,0.05,2.36,0.1,3.53,0.19c0.5,0.04,0.99,0.08,1.49,0.13c0.19,0.02,0.37,0.04,0.56,0.06c0.1,0.02,0.2,0.03,0.3,0.05
	c4.01,0.66,8,1.99,11.82,3.34c4.3,1.51,8.5,3.31,12.63,5.25c8.41,3.94,16.67,8.23,24.9,12.55c16.28,8.55,32.34,17.81,46.79,29.25
	c1.76,1.4,3.5,2.82,5.21,4.28c-2.4-0.37-4.82-0.63-7.22-0.83c-5.32-0.44-10.69-0.54-16.02-0.2c-0.43,0.03-0.81,0.14-1.14,0.31
	c-2.68-0.24-5.37-0.46-8.06-0.66c-6.9-1.75-14.13-1.01-21.17-0.99c-0.49,0-0.91,0.12-1.27,0.3c-5.01-0.19-10.02-0.33-15.04-0.29
	c-13.07,0.09-26.74,0.94-39.08,5.58c-6.37,2.39-12.38,5.81-17.07,10.81c-2.46,2.62,1.48,6.58,3.95,3.95
	c2.01-2.14,3.79-3.6,6.05-5.08c1.17-0.76,2.39-1.46,3.63-2.11c1.15-0.59,2.67-1.3,3.51-1.64c5.74-2.31,11.79-3.7,17.9-4.58
	c6.09-0.88,12.97-1.24,19.39-1.33c6.56-0.09,13.12,0.09,19.67,0.35c0.93,0.04,1.86,0.08,2.78,0.12c0.3,0.31,0.68,0.57,1.16,0.72
	c8.74,2.67,17.76,3.82,26.84,4.64c7.45,1.87,14.89,3.78,22.51,4.78c4.31,0.57,8.66,0.81,12.99,0.41c1.24-0.11,2.34-0.79,2.69-2.05
	c0.08-0.28,0.1-0.58,0.08-0.89c0.02,0,0.04,0,0.06-0.01c1.95-0.32,3.36-1.79,4.05-3.56c0.19-0.21,0.36-0.45,0.48-0.75
	c0.35-0.84,0.29-1.69-0.14-2.49c0,0,0,0,0,0c0.13-0.64,0.06-1.3-0.34-1.84c-2.51-3.35-5.12-6.63-8.1-9.59
	c-3.02-3.01-6.25-5.82-9.58-8.48c-6.62-5.29-13.64-10.02-20.82-14.51c-7.13-4.46-14.25-8.94-21.36-13.43
	c-7.12-4.49-14.41-8.67-22.22-11.84c-8.31-3.37-16.86-6.11-25.39-8.87c-4.2-1.36-8.39-2.74-12.57-4.14
	c-2.31-0.78-4.59-1.4-6.93-1.79c3.84-3.1,8.64-5.12,13.13-7.07c6.29-2.73,12.4-5.84,18.86-8.18c7.31-2.65,14.83-4.7,22.41-6.41
	c3.7-0.84,7.43-1.72,11.2-2.2c2.05-0.26,4.11-0.42,6.17-0.52c0.01,0,0.02,0,0.03,0c0.66-0.03,1.32-0.05,1.98-0.07
	c0.53-0.02,1.06-0.03,1.59-0.04c0.63-0.01,1.25-0.02,1.87-0.03c15.05-0.15,30.1,1.1,45.13-0.09c12.16-0.96,24.3-3.25,35.5-8.22
	c10.87-4.83,20.39-12.58,26.38-22.95c3.4-5.88,5.61-12.39,6.84-19.06C923.04,623.65,923.48,615.64,922.53,607.82z M894.75,546.45
	c-1-1.85-2.01-3.69-3.07-5.51c1.09,1.8,2.15,3.61,3.18,5.45C894.83,546.41,894.79,546.43,894.75,546.45z M914.15,598.39
	c0.13-0.54,0.2-1.1,0.22-1.69c0.13,0.45,0.25,0.91,0.38,1.36C914.55,598.16,914.35,598.27,914.15,598.39z"/>
<rect x="108.52" y="50.71" class="st3" width="1630" height="1190"/>
<g>
	<path class="st2" d="M275.62,229.4c-1.03,0.05-1.8,0.75-1.96,1.72c0,0,0,0.01,0,0.01c0,0.01,0,0.02,0,0.03c0,0,0,0,0,0
		c0,0.02-0.01,0.03-0.01,0.05c0,0-0.01,0.01-0.01,0.01c0-0.01,0-0.02,0-0.03c-0.02,0.03-0.04,0.06-0.05,0.09
		c-0.04,0.05-0.09,0.09-0.12,0.13c-0.39,0.42-0.84,0.8-1.28,1.16c-0.95,0.78-1.87,1.57-2.71,2.47c-0.94,1-1.78,2.09-2.61,3.18
		c-0.4,0.53-0.8,1.07-1.2,1.61c-0.19,0.26-0.39,0.52-0.58,0.79c-0.1,0.13-0.2,0.27-0.3,0.4c-0.04,0.05-0.37,0.49-0.18,0.24
		c-0.64,0.82-0.86,2.04,0,2.83c0.72,0.66,2.14,0.88,2.83,0c0.94-1.22,1.85-2.46,2.77-3.69c0.1-0.13,0.19-0.25,0.29-0.38
		c0.02-0.03,0.1-0.13,0.15-0.19c0.21-0.27,0.43-0.54,0.65-0.81c0.45-0.54,0.92-1.07,1.42-1.57c0.9-0.92,1.93-1.69,2.89-2.54
		c1.06-0.93,1.96-2.05,2.03-3.52C277.66,230.35,276.67,229.35,275.62,229.4z"/>
	<path class="st2" d="M273.65,231.13c0,0,0-0.01,0-0.01c0.01-0.08-0.01-0.11-0.02,0.08c0.01-0.01,0.01-0.02,0.02-0.03
		C273.65,231.16,273.65,231.14,273.65,231.13z"/>
</g>
<path class="st2" d="M214.07,376.55c-0.14,49.69-2.27,99.34-4.97,148.94c-2.69,49.39-5.91,98.74-8.22,148.15
	c-2.33,49.87-3.13,99.7-3.01,149.62c0.12,50.13,0.42,100.27,0.03,150.41c-0.12,15.54,0.66,31.07,0.04,46.6
	c-0.63,15.96-2.07,33.34-9.7,47.7c-1.67,3.14-3.67,6.05-6.09,8.66c-1.75,1.89,1.07,4.72,2.83,2.83
	c10.33-11.14,13.8-26.95,15.6-41.58c2.03-16.5,1.69-33.18,1.41-49.77c-0.37-21.82,0.09-43.67,0.1-65.5
	c0.01-25.19-0.08-50.37-0.16-75.56c-0.16-50.44-0.08-100.81,1.97-151.21c2.03-50.13,5.23-100.19,8.08-150.28
	c2.84-50.05,5.33-100.14,5.95-150.27c0.08-6.25,0.12-12.49,0.14-18.74C218.08,373.97,214.08,373.97,214.07,376.55z"/>
<path class="st1" d="M1508.16,598.41c-0.72-0.91-1.44-1.81-2.18-2.7c-4.06-4.92-7.84-10.33-9.94-16.37
	c-2.06-2.14-4.14-4.26-6.18-6.41c-18.52-19.47-30.24-43.52-38.13-69.03c-8.31-26.85-13.26-54.77-15.21-82.79
	c-3.11-17.39-3.24-35.41-2.32-53.17c-2.11-9.34-2.61-19.1-2.03-28.44c1.17-18.64,1.21-37.32,2.06-55.97
	c0.43-9.3,1.83-18.51,2.87-27.75c1.05-9.35,1.34-18.61,1.35-28.02c0.01-9.48-0.19-19.14-1.61-28.53c-1.08-7.11-3.52-13.9-4.76-20.97
	c-1.78-3.38-3.25-6.99-4.4-10.67c-2.91-3.71-6.11-7.18-9.81-10.24c-7.78-6.43-16.97-9.16-26.51-9.79
	c-12.71,3.84-25.6,6.97-38.4,10.5c-1.37,0.38-2.73,0.77-4.09,1.17c-0.45,0.52-1.06,0.99-1.85,1.35
	c-9.47,4.36-19.03,8.52-28.59,12.68c-0.62,1.11-1.64,2.05-3.12,2.59c-16.65,6.04-32.34,14.33-48.58,21.35
	c-1.05,0.46-2.09,0.59-3.05,0.49c-19.15,7.53-38.69,13.93-58.35,19.97c-2.71,1.04-5.42,2.12-8.1,3.24
	c-0.75,0.31-1.47,0.42-2.14,0.36c-16.66,6.65-33.61,12.66-50.09,19.77c-0.6,0.26-1.19,0.41-1.76,0.48
	c-11.66,5.96-23.44,11.76-35.42,17.09c-2.11,1.08-4.23,2.15-6.36,3.19c-1.37,0.67-2.74,1.33-4.11,1.99
	c-4.09,2.39-8.48,4.49-12.95,6.38c-1.09,0.56-2.19,1.12-3.27,1.7c-3.12,1.67-6.44,2.93-9.71,4.26
	c-9.95,6.51-21.55,10.86-33.26,11.96c-0.69,0.06-1.28-0.03-1.8-0.23c-1.9,0.22-3.81,0.38-5.71,0.5c-3.7,1.14-7.44,2.16-11.23,3.03
	c-61.92,14.23-130.12-5.58-176.62-48.48c-1.34-0.87-2.62-1.85-3.85-2.82c-2.82-2.22-6.05-3.7-8.88-5.9
	c-3.22-2.5-6.47-4.27-9.92-6.39c-2.18-1.35-4.02-3.16-6.03-4.69c-1.98-1.16-3.94-2.37-5.88-3.61c-5.58-2.67-11.29-5.04-17.1-7.19
	c-1.88-0.52-3.75-1.08-5.61-1.63c-8.66-0.52-17.45-2.06-26.01-2.37c-3.21-0.12-6.47-0.24-9.75-0.31
	c-17.75,1.34-35.32,3.67-52.3,9.37c-0.49,0.33-1.08,0.57-1.78,0.68c-0.14,0.02-0.28,0.06-0.43,0.08c-0.21,0.08-0.43,0.14-0.64,0.22
	c-0.85,0.3-1.63,0.4-2.34,0.33c-2.72,0.56-5.42,1.24-8.12,1.95c-17.88,8.62-38.18,10.37-57.79,9.47
	c-10.77-0.49-21.7-1.38-32.29-3.46c-1.47-0.29-2.93-0.62-4.39-0.97c-3.63-0.15-7.26-0.39-10.9-0.76
	c-17.19-1.75-34.3-3.91-51.57-4.86c-1.89-0.1-3.29-0.96-4.18-2.15c-20.46-4-40.47-10.03-61-13.73c-1.64-0.3-2.74-1.26-3.36-2.49
	c-6.19-1.09-12.43-1.88-18.75-2.27c-18.5,4.51-36.49,10.77-54.51,17.02c-0.29,0.1-0.57,0.17-0.84,0.23
	c-5.05,4.15-10.03,8.32-15.03,12.28c-7.14,11.97-13.75,24.31-20.44,36.52c-1.43,22.95-2.41,45.93-3.4,68.91
	c0.01,0.13,0.02,0.27,0.03,0.4c1,12.65,1.8,25.31,2.55,37.97c3.73,8.73,6.84,17.6,9.39,26.74c1.15,4.11,1.98,8.29,3.01,12.42
	c0.76,3.05,1.59,5.96,0.98,9.03c0.24,0.77,0.49,1.54,0.73,2.31c9.03,28.52,21.43,57.38,24.49,87.41c0.66,2.71,1.31,5.43,1.92,8.16
	c0.34,1.51,0.65,3.15,0.63,4.66c0.04,0.13,0.09,0.25,0.13,0.39c5.29,19.27,8.86,38.89,10.8,58.77c0.09,0.89-0.02,1.67-0.26,2.33
	c1.27,11.5,2.48,23,3.64,34.5c1.48,14.72,2.66,29.48,3.5,44.25c0.16,0.37,0.29,0.76,0.36,1.2c2.1,13.66,4.17,27.32,5.28,41.1
	c0.07,0.91-0.05,1.69-0.31,2.37c0.15,2.22,0.27,4.44,0.34,6.66c0.87,6.12,1.7,12.24,2.46,18.38c0.23,1.08,0.46,2.16,0.69,3.24
	c3.4,16.06,7.25,32.16,9.45,48.46c1.69,5.54,2.85,11.23,4.72,16.73c1.58,4.63,3.31,9.47,3.69,14.4c0.24,0.77,0.48,1.54,0.72,2.31
	c1.76,5.59,3.37,11.22,5.06,16.83c1.12,3.71,2.22,7.46,1.5,11.29c1.11,3.1,2.17,6.22,3.13,9.36c0.23,0.35,0.44,0.73,0.62,1.15
	c3.94,9.43,7.41,18.99,9.54,29c0.81,2.57,1.54,5.15,1.96,7.79c7.41,14.24,11.23,30.81,15.82,45.79c1.46,4.77,2.81,9.64,4.35,14.44
	c0.84,0.44,1.57,1.14,2.09,2.17c1.96,3.86,3.43,7.89,4.82,11.96c2.05,4.54,3.38,9.46,5.02,14.1c0.06,0.18,0.11,0.36,0.16,0.53
	c4.47,7.32,8.71,14.8,12.95,22.33c5.21,9.26,10.88,18.24,15.95,27.58c3.46,6.38,7.04,12.84,8.84,19.86
	c9.21,11.14,18.17,22.49,26.77,34.15c11.12,10.39,21.72,21.32,32.82,31.73c1.53,1.44,1.98,3.08,1.7,4.58
	c15.85,9.69,32.12,18.84,47.3,29.5c10.75,2.84,21.07,7.72,30.96,12.54c7.58,3.69,15.13,7.42,22.75,11.02
	c7.4,3.5,15.03,6.5,22.34,10.2c6.12,2.02,11.89,5.12,18.34,6.09c1.16,0.17,1.96,0.77,2.44,1.58c16.94,2.95,33.89,5.77,50.78,8.95
	h46.45c3.71-1.88,8.14-2.42,12.12-3.55c6.53-1.86,13.05-3.75,19.56-5.69c5.18-1.54,10.29-3.27,15.37-5.11
	c2.08-1.49,4.2-2.94,6.33-4.37c0.95-0.73,1.89-1.45,2.84-2.17c0.11-0.12,0.23-0.25,0.36-0.36c1.97-1.8,4.1-3.33,6.32-4.74
	c0.26-0.19,0.52-0.38,0.78-0.57c2.27-2.08,4.51-4.18,6.85-6.16c0.02-0.02,0.03-0.04,0.05-0.05c8.79-9.53,18.38-18.67,29.84-24.93
	c11.5-6.28,24.36-8.83,37.12-11.16c0.82-0.36,1.77-0.53,2.95-0.47c0.47,0.02,0.9,0.12,1.32,0.25c6.63-1.55,13.41-2.53,20.12-3.6
	c17.08-2.73,34.9-2.54,52.13-1.03c5.71,0.5,11.64,1.1,17.26,2.58c5.55,0.49,11.03,1.41,16.36,2.78c6.25,1.19,12.35,2.9,18.14,5.39
	c9.91,4.26,16.51,12.04,25.43,17.65c4.78,3.01,10.14,5.09,15.01,7.96c4.4,2.59,8.51,4.62,13.08,6.46
	c11.39,2.18,22.84,4.27,34.41,4.39c8.73,0.09,16.88-2.32,25.3-4.35c6.22-1.5,12.36-3.27,18.54-4.95c7.47-3.46,15.35-6.05,23.35-8.07
	c12.38-3.13,24.22-7.24,35.89-12.43c11.93-5.3,23.55-11.26,35.25-17.05c5.46-2.7,10.87-5.43,16.55-7.65c2.56-1,5.12-1.98,7.63-3.08
	c3.08-2.1,6.14-4.22,9.18-6.35c6.81-4.76,13.55-9.63,20.52-14.14c3.67-2.37,7.46-4.86,11.39-7.03c5.01-5.51,9.97-11.06,14.9-16.65
	c0.66-0.74,1.37-1.22,2.11-1.5c3.45-4.27,6.86-8.58,10.22-12.93c0.76-0.95,1.7-1.46,2.68-1.64c2.15-3.05,4.24-6.15,6.21-9.34
	c0.46-0.75,0.91-1.5,1.37-2.25c4.01-11.79,12.19-21.61,18.98-32.11c0.46-0.99,0.94-1.98,1.44-2.95c1.5-12.43,4.33-24.53,11.33-35.02
	c0.1-0.14,0.2-0.25,0.31-0.38c2.36-10.74,5.38-21.36,7.46-32.16c0.02-2.63,0.07-5.24,0.18-7.81c0.86-19.96,4.96-40.41,9.71-59.91
	c0.77-13.5,2.76-26.97,5.55-39.89c3.75-17.4,10.58-33.45,17.93-49.36c3.36-13.73,6.9-27.39,11.77-40.73
	c0.74-2.04,1.51-4.07,2.28-6.11V604.35C1510,602.37,1509.08,600.39,1508.16,598.41z"/>
<path class="st2" d="M930.86-1217.18c-1.54,0-1.55,2.4,0,2.4C932.41-1214.78,932.41-1217.18,930.86-1217.18z"/>
<path class="st2" d="M810.16-1048.05c-1.52-0.43-3.04-0.89-4.56-1.34c-8.67-0.52-17.47-2.06-26.04-2.37
	c-3.21-0.12-6.46-0.24-9.73-0.3c-17.75,1.34-35.34,3.67-52.31,9.37c-0.49,0.33-1.08,0.57-1.78,0.68c-0.14,0.02-0.28,0.06-0.43,0.08
	c-0.21,0.08-0.43,0.14-0.64,0.22c-0.85,0.3-1.63,0.4-2.34,0.33c-2.72,0.56-5.42,1.24-8.12,1.95c-17.88,8.62-38.18,10.37-57.79,9.47
	c-0.84-0.04-1.69-0.08-2.53-0.13c-1.15-0.03-2.29-0.06-3.44-0.12c-0.02-0.03-0.04-0.05-0.06-0.08c-5.67-0.35-11.35-0.85-16.98-1.61
	h-9.22c-3.61,0-3.58,5.44,0,5.59c13.1,0.52,26.17,2.47,39.3,1.71c12.97-0.75,25.89-3.81,38.43-7.09
	c12.55-3.28,24.94-7.11,37.48-10.45c12.25-3.26,24.55-5.91,37.27-6.3c5-0.15,10.03,0.03,15.04,0.24c0.44,0.61,1.15,1.03,2.15,1.03
	c8.03-0.2,15.66,3.14,23.7,2.87c1.23-0.04,2.36-0.84,2.69-2.05C810.39-1046.87,810.34-1047.48,810.16-1048.05z"/>
<g>
	<path class="st2" d="M942.28,1022.2c-0.04,0.1-0.08,0.17-0.09,0.2C942.22,1022.34,942.25,1022.27,942.28,1022.2
		C942.28,1022.21,942.28,1022.21,942.28,1022.2z"/>
	<path class="st2" d="M890.44,1100.17c0.1,0.17,0.15,0.25,0.17,0.26c-0.05-0.08-0.1-0.17-0.16-0.25
		C890.44,1100.18,890.44,1100.18,890.44,1100.17z"/>
	<path class="st2" d="M965.34,1001.8c-2.14-5.1-4.85-9.94-8.35-14.23c-1.02-1.25-2.14-2.45-3.33-3.56
		c-0.66-0.77-1.33-1.53-2.01-2.28c-4.1-4.46-8.73-8.47-13.7-11.94c-2.13-1.48-4.43-2.96-6.84-4.17c-0.12-0.39-0.32-0.76-0.63-1.07
		c-1.84-1.84-4.04-3.23-6.65-3.61c-0.25-0.04-0.5-0.05-0.74-0.05c-0.03-0.04-0.06-0.08-0.09-0.12c-0.76-0.95-2.41-1.01-3.39-0.44
		c-1.15,0.67-1.48,1.92-1.28,3.15c0.01,0.08,0.04,0.16,0.05,0.24c-0.63,0.81-0.8,1.91-0.24,2.93c0.07,3.48,0.37,7.11,0.09,10.62
		c-0.25,0.93-0.45,1.88-0.56,2.84c-1.1,2.04-2.63,3.92-4.45,5.7c-4.23,4.12-9.25,7.16-14.25,10.4c-3.02,1.96-0.38,6.5,2.82,4.82
		c2.23-1.17,4.49-2.43,6.72-3.79c0.79,0.61,1.86,0.79,2.92,0.09c0.35-0.23,0.69-0.47,1.03-0.71c2.97-0.66,5.83-1.91,8.52-3.33
		c0.29-0.06,0.57-0.15,0.83-0.31c0.23-0.14,0.44-0.29,0.66-0.44c0.47,0.04,0.96-0.06,1.43-0.33c1.05,0.53,2.32,0.36,3.22-0.5
		c0.83-0.79,1.59-1.65,2.29-2.56c0.46-0.47,0.91-0.95,1.35-1.44c1.09-0.52,2.2-1.02,3.29-1.54c1.3,1.37,2.53,2.81,3.65,4.32
		c3.44,4.65,5.54,9.62,5.74,15.1c-0.34,0.63-0.45,1.39-0.3,2.14c0.06,0.31,0.14,0.69,0.2,1.07c-0.04,0.45-0.1,0.91-0.17,1.37
		c-0.15,0.94,0.05,1.89,0.61,2.56c0.04,0.8,0.04,1.6,0.01,2.39c-0.01,0.33-0.03,0.66-0.06,0.98c-0.02,0.24-0.04,0.48-0.06,0.72
		c0,0.06-0.02,0.2-0.04,0.31c-0.2,1.38-0.52,2.74-0.97,4.06c-0.12,0.34-0.25,0.66-0.37,1c0.01-0.02,0.01-0.03,0.02-0.05
		c-0.01,0.02-0.02,0.04-0.03,0.06l-0.01,0.02c-0.04,0.1-0.14,0.32-0.08,0.18c-0.02,0.04-0.04,0.09-0.06,0.13
		c-0.31,0.64-0.63,1.26-0.99,1.87c-0.34,0.57-0.71,1.13-1.1,1.66c-0.07,0.1-0.15,0.2-0.23,0.31c-0.01,0.02-0.02,0.02-0.04,0.04
		c-0.25,0.29-0.49,0.59-0.75,0.88c-0.92,1.03-1.94,1.96-3.01,2.83c-0.03,0.02-0.07,0.06-0.11,0.09c-0.06,0.04-0.12,0.09-0.18,0.13
		c-0.29,0.21-0.59,0.43-0.89,0.63c-0.61,0.42-1.23,0.82-1.86,1.19c-1.24,0.74-2.53,1.4-3.84,2c-0.3,0.14-0.61,0.27-0.91,0.4
		c-0.08,0.03-0.58,0.24-0.69,0.28c-0.74,0.29-1.49,0.57-2.25,0.83c-1.51,0.52-3.04,0.99-4.58,1.4c-3.11,0.83-6.27,1.47-9.45,1.98
		c-0.8,0.13-1.61,0.25-2.42,0.36c-0.17,0.02-0.34,0.05-0.52,0.07c-0.04,0.01-0.08,0.01-0.15,0.02c-0.47,0.06-0.94,0.12-1.4,0.17
		c-1.65,0.2-3.3,0.37-4.95,0.52c-3.1,0.28-6.21,0.48-9.32,0.64c-7.42,0.38-14.84,0.59-22.25,1.07c-12.62,0.82-25.21,2.08-37.78,3.49
		c-12.55,1.41-25.08,2.96-37.63,4.4c-6.28,0.72-12.53,1.51-18.78,2.5c-5.67,0.9-11.29,1.5-17.01,1.9
		c-5.33,0.37-10.87,1.07-15.43,4.08c-1.55,1.02-2.52,2.11-2.09,4.05c0.07,0.32,0.17,0.63,0.29,0.94c-0.2,0.52-0.25,1.09-0.09,1.69
		c0.37,1.34,1.84,2.31,3.22,1.99c0.22,0.16,0.45,0.32,0.68,0.47c1.58,1.01,3.34,1.77,5.15,2.39c0.32,0.37,0.77,0.67,1.39,0.83
		c4.89,1.29,9.74,2.64,14.76,3.1c18.19,3.76,36.44,7.26,54.67,10.83c11.57,2.26,23.13,4.55,34.66,6.95
		c3.84,0.8,7.67,1.74,11.56,2.32c2.96,0.44,5.93,0.84,8.87,1.37c3.45,0.62,6.95,1.35,10.21,2.67c0.06,0.03,0.58,0.26,0.68,0.31
		c0.33,0.16,0.66,0.33,0.98,0.51c0.3,0.17,0.6,0.36,0.89,0.55c0.1,0.07,0.19,0.14,0.29,0.2c0.02,0.02,0.04,0.04,0.07,0.07
		c0.2,0.21,0.41,0.41,0.62,0.62c-0.01-0.02-0.02-0.04-0.04-0.07c0.02,0.03,0.03,0.05,0.05,0.08c0,0,0.01,0.01,0.01,0.01
		c0.1,0.1,0.17,0.25,0.14,0.23c0.01,0.01,0.01,0.02,0.02,0.03c0.05,0.09,0.08,0.15,0.11,0.19c0,0.01,0,0.02,0,0.03
		c0.01,0.09,0.04,0.22,0.08,0.33c0.07,1.11,0.71,2.09,1.68,2.53c2.64,11.21-0.48,22.88-6.5,32.74
		c-6.41,10.52-16.05,19.28-27.29,24.37c-6.13,2.77-13.23,3.95-19.88,5.48c-8.05,1.86-16.15,3.66-24.38,4.55
		c-8.37,0.9-16.8,0.69-25.19,0.07c-8.3-0.62-16.56-1.71-24.76-3.17c-4.29-0.76-8.56-1.61-12.83-2.46c-4.2-0.83-8.44-1.54-12.63-2.44
		c-6.19-1.33-12.01-3.92-18.05-5.76c-0.37-1-1.33-1.82-2.43-1.75c-5.63,0.38-10.94-1.47-16.28-3.1c-6.35-2.54-12.48-6.01-18.87-8.08
		c-3.33-1.08-6.9-1.94-10.42-1.83c-2.05,0.06-2.68,3.27-0.5,3.72c2.99,0.62,5.92,1.38,8.78,2.48c1.91,0.73,3.77,1.59,5.61,2.47
		c-0.32,0.36-0.55,0.82-0.61,1.36c-0.14,1.16,0.57,2.71,1.89,2.89c5.33,0.73,10.51,2.35,15.71,3.85c0.23,0.49,0.6,0.93,1.1,1.3
		c0.08,0.06,0.16,0.11,0.24,0.16c-0.63,1.61,0.39,3.79,2.55,3.92c2.77,0.18,5.52,0.58,8.26,1.12c0.11,0.03,0.22,0.06,0.33,0.1
		c-0.32-0.04-0.63-0.08-0.95-0.12c-3.68-0.47-7.23-0.94-10.93-0.31c-2.13,0.36-2.6,3.3-1.23,4.67c1.83,1.83,4.07,2.95,6.49,3.73
		c-0.34,0.31-0.6,0.71-0.74,1.23c-0.34,1.24,0.25,2.47,1.28,3.16c0.47,0.31,0.95,0.6,1.44,0.87c-0.27,0.3-0.47,0.65-0.61,1.03
		c-2.05-0.51-4.12-0.98-6.21-1.31c-0.52-0.08-1.05-0.07-1.53,0.06c-4.73-1.39-9.48-2.72-14.27-3.92c-1.03-0.26-1.87,0-2.47,0.52
		c0.74,0.35,1.48,0.72,2.22,1.07c7.4,3.5,15.03,6.5,22.34,10.2c6.12,2.02,11.89,5.12,18.34,6.09c1.08,0.16,1.83,0.7,2.33,1.42
		c0.61,0.15,1.23,0.31,1.84,0.46c16.5,2.86,32.99,5.61,49.43,8.71c16.25,1.6,32.63,1.76,48.65-1.15c3.09-1.07,6.45-1.6,9.54-2.48
		c6.53-1.86,13.05-3.75,19.56-5.69c4.84-1.44,9.62-3.05,14.37-4.76c0.83-0.63,1.66-1.26,2.47-1.9c1.21-0.55,2.37-1.2,3.5-1.91
		c0.45-0.31,0.9-0.61,1.36-0.92c0.95-0.73,1.89-1.45,2.84-2.17c0.11-0.12,0.23-0.25,0.36-0.36c0.68-0.63,1.4-1.21,2.12-1.78
		c1.47-1.39,2.88-2.85,4.2-4.34c4.91-5.54,9.09-11.69,13.04-17.93c4.9-7.74,8.87-16.08,11.71-24.8c2.67-8.18,4.63-17.06,4.6-25.7
		c-0.02-6.67-1.55-13.55-5.28-19.17c-3.91-5.89-9.82-9.92-16.55-11.96c-9.1-2.76-18.83-3.63-28.25-4.5
		c-4.85-0.45-9.7-0.85-14.54-1.39c-4.63-0.51-9.19-1.3-13.78-2.08c-15.3-2.61-30.97-1.97-46.33-3.89c4-0.31,8.01-0.52,12.01-0.7
		c9.66-0.46,19.28-1.1,28.91-1.98c6.15-0.56,12.29-1.17,18.43-1.82c3.84,0.07,7.7,0.13,11.54-0.08c3.66,0.13,7.33,0.25,10.99,0.21
		c4.15-0.05,8.35-0.28,12.51-0.77c5.96-0.32,11.9-1.27,17.75-2.38c4.77-0.9,9.53-1.86,14.29-2.82c3.89-0.78,7.78-1.7,11.51-3.04
		c3.7-1.01,7.41-2.31,10.82-4.09c0.1-0.05,0.19-0.12,0.27-0.19c8.44-2.86,16.92-7.62,21.05-15.8
		C971.43,1021.51,969.16,1010.91,965.34,1001.8z"/>
</g>
<path class="st2" d="M951.66,985.6c-2.97-4-5.81-8.09-9.17-11.78c-1.69-1.86-3.51-3.6-5.49-5.14c-1.68-1.3-3.47-2.43-5.31-3.47
	c-1.32-1.05-2.68-2.03-4.11-2.92c-1.26-0.79-2.57-1.48-3.92-2.09c-0.54-0.28-1.11-0.53-1.69-0.71c-0.44-0.17-0.87-0.34-1.32-0.48
	c-0.09-0.03-0.18-0.03-0.26-0.02c-0.14-0.09-0.3-0.14-0.46-0.12c-0.02-0.01-0.03-0.02-0.05-0.03c-0.18-0.09-0.35-0.1-0.5-0.07
	c-0.46-0.03-0.9,0.38-0.74,0.87c0.03,0.08,0.04,0.16,0.06,0.24c-0.2,0.16-0.32,0.41-0.23,0.7c0.03,0.09,0.04,0.18,0.06,0.27
	c-0.07,0.11-0.12,0.23-0.12,0.36c0.04,2.93-0.55,5.77-1.29,8.59c-5.91,8.77-13.49,16.21-22.19,22.18
	c-7.22,2.89-14.25,6.24-21.29,9.55c-9.15,2.56-18.51,4.53-27.78,6.55c-0.31,0.07-0.63,0.13-0.94,0.2c-4.91-0.03-9.84,0.35-14.7,0.99
	c-4.96,0.66-9.89,1.57-14.73,2.84c-1.7,0.28-3.39,0.57-5.09,0.84c-0.25-0.1-0.52-0.15-0.8-0.12c-3.44,0.38-6.9,0.5-10.35,0.77
	c-1.82,0.15-3.65,0.32-5.45,0.66c-4.19-0.03-8.39-0.16-12.59-0.35c-5.64-0.25-11.19-0.66-16.79-1.37c-4.36-0.55-8.73-1.05-13.1-0.81
	c-5.73-1.94-11.47-3.78-17.24-5.59c-5.88-1.84-11.73-3.84-17.09-6.93c-0.32-0.18-0.63-0.29-0.93-0.33
	c-0.13-0.14-0.28-0.26-0.46-0.37c-0.32-0.22-0.63-0.45-0.94-0.68c0.15,0.12,0.31,0.24,0.46,0.36c-0.53-0.41-1.08-0.79-1.62-1.19
	c-0.03-0.02-0.06-0.05-0.09-0.07c-0.3-0.3-0.66-0.51-1.07-0.62c-0.08-0.01-0.17-0.02-0.25-0.03c-6.56-5.35-13.12-10.69-19.13-16.66
	c-5.67-5.64-10.7-11.85-14.64-18.83c-0.9-1.59-1.73-3.21-2.53-4.85c-0.69-1.7-1.36-3.41-2.01-5.12c-0.91-3.07-1.68-6.19-2.51-9.27
	c-1.43-5.33-2.98-10.75-5.51-15.68c-1.59-8.58-2.65-17.24-3.3-25.95c-0.12-2.19-0.25-4.39-0.42-6.58c-0.02-0.35-0.04-0.7-0.06-1.04
	c-0.09-1.79-0.15-3.59-0.21-5.39c3.21-9.76,6.91-19.35,11.49-28.56c6.4-7.64,12.45-15.58,19.35-22.78
	c4.17-4.35,8.63-8.44,13.53-11.95c4.85-3.47,10.08-6.45,15.39-9.17c21.17-10.88,44.89-17.29,68.6-19.13
	c3.79-0.29,7.59-0.46,11.39-0.52c8.85,1.16,17.67,2.77,26.61,2.27c2.41,0.4,4.82,0.76,7.23,1.1c3.36,0.47,6.78,1.16,10.19,1.1
	c1.92-0.04,3.87-0.22,5.78-0.55c1.14-0.1,2.26-0.3,3.31-0.66c0.33-0.11,0.65-0.25,0.95-0.4c1.99-0.69,3.95-1.75,5.06-3.53
	c0.28-0.45,0.48-0.91,0.61-1.37c0.85-0.69,1.54-1.54,1.88-2.61c0.76-2.42-0.49-4.3-2.27-5.68c-0.53-1.6-1.42-3.14-2.31-4.41
	c-0.33-0.47-0.73-0.79-1.15-1c-0.3-0.46-0.59-0.92-0.86-1.39c-0.62-1.07-1.68-1.43-2.68-1.29c-2.96-3.12-6.45-5.88-9.6-8.52
	c-4.75-3.97-9.75-7.65-14.65-11.44c-10.65-8.24-21.22-16.66-32.43-24.14c-21.64-14.44-46.79-24.92-72.71-27.82
	c-4.15-0.46-7.79,3.23-8.7,7.1c-0.33-0.45-0.79-0.8-1.43-0.98c-1.31-0.36-3.22,0.45-3.44,1.95c-0.04,0.26-0.11,0.5-0.17,0.75
	c-0.01,0.04-0.01,0.05-0.02,0.08c-0.01,0.03-0.02,0.05-0.04,0.1c-0.2,0.49-0.37,0.91-0.48,1.37c-2.41,0.24-3.04,4.01-0.89,5.21
	c5.33,2.99,12.07,3.44,18.05,3.72c1.94,0.09,3.88,0.12,5.81,0.11c20.37,4.78,37.88,16.62,54.78,28.81
	c9.61,6.93,19.01,14.12,28.37,21.39c4.72,3.66,9.39,7.41,14.33,10.77c-0.96-0.25-1.91-0.51-2.86-0.77c-1.19-0.32-2.48-0.8-3.72-0.76
	c-1.09,0.04-1.91,0.66-2.32,1.49c-2.45-0.22-4.9-0.39-7.35-0.52c-0.25-0.08-0.5-0.15-0.77-0.19c-5.51-0.73-11.02-1.51-16.55-2.08
	c0.07-0.32,0.09-0.64,0.04-0.96c-0.22-1.44-1.32-2.3-2.74-2.42c-3.53-0.3-7.06-0.44-10.59-0.5c-3.55-0.79-7.27-0.86-10.95-0.75
	c-5.9,0.18-11.77,1.05-17.67,1.07c-0.15,0-0.29,0.02-0.43,0.03c-0.6-0.41-1.36-0.61-2.23-0.45c-4.59,0.85-9.11,2.02-13.56,3.45
	c-0.06-0.28-0.16-0.55-0.29-0.77c-0.63-1.08-1.95-1.59-3.15-1.28c-5.45,1.38-10.45,3.72-15.14,6.61c-0.23-0.48-0.59-0.89-1.03-1.15
	c-1.33-0.78-2.78-0.21-3.61,0.95c-1.31,1.82-3.54,3.08-5.53,4.16c-2.18,1.19-4.43,2.29-6.51,3.65c-5.5,3.6-10.37,8.19-15.19,12.64
	c-9.31,8.59-19.64,16.09-27.75,25.92c-7.3,8.85-13.82,18.42-18.47,28.94c-4.69,10.6-7.45,21.85-8.17,33.42
	c-0.17,2.79-0.36,5.58-0.49,8.38c-0.55,0.35-0.98,0.9-1.24,1.59c-1.78,4.81-1.12,10.26-0.41,15.21c0.7,4.87,1.93,9.74,2.21,14.41
	c0.02,0.33,0.09,0.61,0.19,0.88c1.19,9.23,3.6,18.31,7.1,26.93c4.96,12.21,11.89,23.5,20.48,33.49
	c8.46,9.84,18.59,18.35,29.85,24.83c11.38,6.54,23.91,10.93,36.92,12.66c6.69,0.89,13.5,1.07,20.23,1.52
	c7.42,0.5,14.94,0.85,22.31-0.4c0.42-0.07,0.82-0.17,1.24-0.25c5.49,1.17,11.15,0.35,16.68-0.37c0.01,0,0.02,0,0.03,0
	c0.2,0,0.37-0.03,0.54-0.07c0.2-0.03,0.4-0.05,0.61-0.08c6.8-0.85,13.68-1.02,20.5-1.73c7.06-0.74,14.09-1.69,21.02-3.24
	c3.7-0.82,7.37-1.78,11.02-2.8c0.27,0.03,0.56,0.01,0.88-0.13c0.39-0.16,0.77-0.31,1.16-0.46c1.64-0.47,3.27-0.95,4.91-1.43
	c0.47,0.32,1.09,0.43,1.71,0.34c5.59-0.84,11.13-2.03,16.58-3.51c0.44,0.49,1.1,0.74,1.88,0.44c2.22-0.86,4.35-1.86,6.45-2.95
	c7.49-2.5,14.78-5.56,21.82-9.14c6.11-2.45,12.11-5.15,17.5-8.93c2.56-1.8,4.98-3.84,6.91-6.32c0.05-0.06,0.08-0.12,0.12-0.19
	c2.23-1.81,4.34-3.75,6.34-5.68c0.03-0.03,0.05-0.06,0.07-0.09c0.84-0.54,1.67-1.08,2.52-1.6c2.49-1.52,0.22-5.45-2.3-3.93
	c-0.28,0.17-0.56,0.35-0.84,0.52c-0.61-1.24-2.29-1.98-3.54-0.7c-3.27,3.34-6.8,6.35-10.59,9c-0.44,0.01-0.88,0.16-1.29,0.53
	c-0.54,0.49-1.09,0.96-1.65,1.43c-1.04,0.65-2.1,1.28-3.18,1.88c-0.33-0.66-0.98-1.13-1.68-1.18c3.23-2.32,6.22-4.93,8.83-7.93
	c4-4.6,6.93-10.01,8.29-15.97c0.43-1.9-0.98-3.32-2.52-3.48c-0.1-0.13-0.24-0.22-0.43-0.24c-0.04,0-0.08,0.02-0.12,0.02
	c-0.04-0.43-0.08-0.86-0.12-1.3c0.08-0.52,0.15-1.03,0.2-1.55c0-0.02-0.01-0.03-0.01-0.05c0.04-0.01,0.09-0.03,0.13-0.05
	c0.88,0.92,1.99,1.64,3.12,2.15c3,2.53,5.83,5.28,9.73,6.38c0.87,0.25,1.23-1.09,0.37-1.35c-0.78-0.24-1.51-0.61-2.2-1.06
	c0.89,0.39,1.81,0.7,2.74,0.91c0.08,0.02,0.14,0.01,0.2,0c2.28,2.2,4.42,4.56,6.47,6.89c1.65,1.88,3.27,3.79,5.01,5.59
	c0.4,0.42,0.92,0.05,0.95-0.4c1.12,1.44,2.25,2.88,3.39,4.31C951.16,986.81,952.05,986.13,951.66,985.6z M901.3,997.91
	c-0.35,0.19-0.69,0.39-1.04,0.58c-0.06-0.16-0.12-0.32-0.21-0.47c-0.05-0.08-0.11-0.15-0.16-0.22c1.45-0.83,2.88-1.7,4.28-2.62
	C903.23,996.12,902.28,997.03,901.3,997.91z"/>
<path class="st2" d="M1561.73,1355.54c-4.87-2.87-8.1-8.43-10.52-13.59c-3.44-7.34-5.65-15.27-7.53-23.14
	c-4-16.8-6.24-33.99-8.33-51.12c-1.26,0.49-2.69,0.55-3.98,0.19c1.92,15.7,3.97,31.4,7.29,46.86c1.81,8.42,3.97,16.83,7.19,24.83
	c2.46,6.11,5.54,12.5,10.53,16.96c1.03,0.92,2.14,1.76,3.33,2.46C1561.93,1360.31,1563.95,1356.85,1561.73,1355.54z"/>
<path d="M971.24,1007.37c-0.14-1.86-0.49-3.69-1.17-5.39c-0.31-0.77-0.85-1.41-1.53-1.76c-0.26-1.33-0.61-2.64-1.11-3.9
	c-0.55-1.4-1.72-2.01-2.84-1.96c-0.01-0.05-0.02-0.1-0.03-0.16c-0.99-5.29-2.61-11.13-6.47-15.08c-2.45-2.51-6.24,1.17-4.12,3.74
	c0.01,0.21,0.04,0.43,0.12,0.65c1.02,2.79,2.14,5.58,3.43,8.25c0.42,0.88,0.9,1.73,1.39,2.58c1.02,4.8,1.42,9.54,1.52,14.59
	c0.2,10.23-1.68,20.28-6.24,29.6c-0.48,0.99-1.02,1.96-1.57,2.93c-2.49,2.08-4.94,4.22-7.46,6.26c-0.42,0.29-0.85,0.59-1.27,0.88
	c-1.69,1.13-3.4,2.24-5.08,3.38c-1.77,1.2-3.64,2.44-5.03,4.08c-1.47,1.75,0.33,4.14,2.42,3.14c0.06-0.03,0.12-0.07,0.19-0.1
	c0.12,0.19,0.27,0.36,0.44,0.48c0.84,0.63,1.8,0.48,2.59-0.15c0.94-0.77,1.88-1.54,2.82-2.31c0.83,1.1,2.35,1.71,3.6,0.77
	c4.13-3.1,7.52-7,10.3-11.34c0.3-0.31,0.59-0.63,0.88-0.94c0.47-0.37,0.96-0.73,1.42-1.1c0.23-0.18,0.39-0.42,0.51-0.67
	c1.33,1.02,3.2,0.65,4.11-0.77c1.37-2.13,2.44-4.35,3.26-6.63c0.43-0.36,0.77-0.85,0.99-1.41c2.02-5.22,3.78-10.49,4.42-16.07
	C972.16,1015.08,971.9,1011.2,971.24,1007.37z"/>
<path class="st2" d="M471.84-1211.7c-1.55,0-1.55,2.41,0,2.41C473.39-1209.29,473.4-1211.7,471.84-1211.7z"/>
<path class="st2" d="M1507.72,734.62c-3.21-0.88-7.07,0.35-9.24,2.94c-0.85-4.39-5.27-7.96-9.92-4.66
	c-9.81,6.96-16.27,18.05-21.34,28.73c-2.73,5.74-5.17,11.67-7.05,17.75c-0.31,1.01-0.68,2.16-1.02,3.38
	c-0.29,0.53-0.58,1.06-0.87,1.6c-3.05,1.08-5.65,3.44-6.73,7.19c-4.06,14.04-10.36,27.65-11.68,42.26
	c-1.56,6.56-1.81,13.4-1.56,20.22c0.04,1.07,0.21,2.04,0.46,2.94c-1.04,6.22-2.14,12.43-2.93,18.65
	c-2.07,16.17-2.71,32.44-4.72,48.62c-0.37,3-0.66,6-0.9,9.01c-0.96,4.86-2,9.69-3.2,14.48c-4.83,19.26-14.38,37.37-20.76,56.2
	c-5.3,7.96-10.96,15.68-17.01,23.07c-7.27,8.87-15.01,17.36-23.16,25.43c-1.73,1.71-3.48,3.39-5.24,5.06
	c-0.43,0.2-0.85,0.41-1.25,0.68c-23.1,15.29-45.7,31.45-70.11,44.64c-12.22,6.6-24.78,12.56-37.46,18.22
	c-9.44,4.21-19.46,7.78-28.96,12.14c-1.27,0.17-2.52,0.59-3.66,1.3c-17.79,11.06-42.11,15.27-62.65,11.84
	c-5.84-0.97-11.64-2.46-17.25-4.43c-1.44-0.89-2.96-1.66-4.51-2.39c-0.29-0.22-0.58-0.42-0.87-0.63c0,0,0,0,0,0
	c-0.01-0.01-0.02-0.01-0.03-0.02c-3.44-2.41-7.19-3.97-11.24-5.46c-0.38-0.14-0.79-0.24-1.21-0.31c-0.97-0.62-1.91-1.29-2.81-2.03
	c-0.08-0.06-0.17-0.12-0.25-0.18c-3.52-3.16-6.66-6.77-10.64-9.34c-3.41-3.52-6.63-7.23-9.52-11.05c-3.05-4.73-5.76-9.76-7.73-14.96
	c-1.49-3.92-2.65-8.06-3.29-12.21c-0.52-3.36-0.47-6.65-1.29-9.8c1.21-0.07,2.43-0.14,3.65-0.17c5.91-0.13,11.83,0.19,17.72,0.57
	c12.16,0.79,23.81,1.72,36.01,0.4c37.47-4.06,75.02-18.14,106.35-38.99c8.22-5.47,16.16-11.35,24.41-16.79
	c8.95-5.91,17.86-11.83,26.08-18.75c3.74-3.15,4.09-9.53,1.75-13.53c-2.62-4.49-7.71-6.08-12.61-5.13
	c-8.22,1.59-15.45,5.97-22.83,9.71c-7.37,3.73-15.36,6.31-23.23,8.73c-16.7,5.13-33.6,10.35-50.75,13.75
	c-35.05,6.95-70.54,4.23-105.97,4.47c-6.37,0.04-12.79-0.59-19.14-1.22c-2.9-0.29-3.6-0.31-6.55-0.97
	c-0.49-0.11-2.06-0.58-2.63-0.71c-0.36-0.26-1.21-0.78-1.06-0.65c-3.59-3.13-4.99-5.5-5.96-10.67c-0.05-0.67-0.05-1.34-0.06-2.02
	c-0.01-0.43-0.03-0.64-0.06-0.74c0.04-0.11,0.09-0.29,0.17-0.59c0.12-0.48,0.26-0.98,0.41-1.46c0.04-0.08,0.1-0.19,0.18-0.36
	c0.8-1.66,0.09-0.98,1.68-2.04c0.76-0.51,2.73-1.51,4.79-2.1c3.21-0.91,5.78-1.16,9.16-1.22c6.69-0.13,13.32,0.69,19.91,1.78
	c15.76,2.62,31.01,4.72,47.05,3.77c33.88-1.99,67.64-9.25,99.33-21.41c2.4,1.26,5.18,1.69,7.77,0.7
	c36.78-14.12,61.61-48.66,75.21-84.43c7-18.42,10.74-38.01,11.95-57.65c1.11-17.89,0.75-35.71,4.4-53.37
	c3.94-19.04,11.72-36.51,25.28-50.65c2.86-2.98,3.59-6.4,2.95-9.53c1.95-3.3,2.31-7.32,0.13-11.04c-2.94-5.02-10.15-7.26-15.22-3.99
	c-11.25,7.26-22.16,14.98-32.81,23.08c-0.03,0.01-0.06,0.03-0.09,0.04c-5.31,2.71-9.3,7.09-13.55,11.18
	c-4.01,3.87-8.03,7.74-12.08,11.58c-8.07,7.65-16.25,15.18-24.77,22.32c-15.84,13.29-33.11,24.66-51.82,33.5
	c-37.45,17.7-79.53,23.51-120.53,18.44c-11.88-1.47-23.35-4.49-34.75-8.04c-6.09-1.9-12.19-3.52-18.42-4.85
	c-5.36-1.14-13.82-4.39-18.78-0.86c-6.33,4.51-5.69,14.18,2.18,16.65c0.47,0.14,0.93,0.29,1.39,0.47c0.34,0.12,0.68,0.22,1.01,0.29
	c3.75,1.4,7.6,2.56,11.33,4.02c5.67,2.22,11.35,4.36,17.16,6.19c10.58,3.34,21.24,5.94,32.23,7.52c23.02,3.32,46.22,3.51,69.27,0.34
	c42.99-5.92,82.9-24.19,116.91-50.87c10.21-8.01,19.9-16.65,29.37-25.52c4.52-4.23,8.98-8.52,13.44-12.81
	c1.76-1.69,3.57-3.35,5.35-5.04c-7.34,19.15-10.32,40.05-11.23,61.14c-0.79,18.3-1.48,35.93-6.17,53.76
	c-4.67,17.74-12.2,34.46-22.56,49.61c-8.81,12.88-20.27,25.19-34.13,32.89c-1.5-0.31-3.13-0.21-4.85,0.44
	c-33.42,12.71-70.03,21.68-105.8,23.62c-8.55,0.46-17.25,0.53-25.76-0.58c-7.12-0.93-14.14-2.5-21.25-3.49
	c-15.84-2.22-34.82-3.57-47.88,7.57c-11.5,9.81-11.75,25.96-5.71,38.81c2.91,6.2,7.92,11.91,13.82,15.43
	c5.88,3.51,13.38,4.05,20.01,4.73c16.39,1.69,32.87,1.18,49.33,1.64c19.37,0.54,38.81,0.22,58.07-1.95
	c12.24-1.38,24.14-3.7,35.95-6.56c-5.51,2.6-11.14,5-16.91,7.17c-17.12,6.44-35.12,11.64-53.4,13.21
	c-11.71,1.01-23.09-0.2-34.77-0.89c-11.04-0.65-27.8-2.97-36.51,5.59c-1.98,1.94-2.98,4.09-3.25,6.23
	c-1.41,1.42-2.39,3.08-3.03,4.89c-0.02-0.02-0.03-0.04-0.05-0.06c-0.02,0.13-0.04,0.26-0.06,0.39c-1.65,4.97-0.95,10.98-0.17,16.09
	c1.06,6.97,3.48,13.58,6.46,19.95c3.21,6.86,7.37,13.34,12.06,19.41c3.79,5.69,8.16,10.91,13.03,15.62
	c0.45,0.18,0.92,0.36,1.37,0.55c9.91,4.26,16.51,12.04,25.43,17.65c4.78,3.01,10.14,5.09,15.01,7.96c4.4,2.59,8.51,4.62,13.08,6.46
	c11.39,2.18,22.84,4.27,34.41,4.39c8.73,0.09,16.88-2.32,25.3-4.35c6.22-1.5,12.36-3.27,18.54-4.95c7.47-3.46,15.35-6.05,23.35-8.07
	c12.38-3.13,24.22-7.24,35.89-12.43c11.93-5.3,23.55-11.26,35.25-17.05c5.46-2.7,10.87-5.43,16.55-7.65c2.56-1,5.12-1.98,7.63-3.08
	c3.08-2.1,6.14-4.22,9.18-6.35c6.81-4.76,13.55-9.63,20.52-14.14c3.19-2.06,6.46-4.21,9.84-6.16c1.76-1.62,3.5-3.26,5.22-4.92
	c3.77-4.18,7.51-8.37,11.23-12.59c0.66-0.74,1.37-1.22,2.11-1.5c3.45-4.27,6.86-8.58,10.22-12.93c0.6-0.75,1.3-1.22,2.05-1.47
	c1.71-2.2,3.38-4.43,5.02-6.68c0.61-0.94,1.23-1.87,1.82-2.83c0.46-0.75,0.91-1.5,1.37-2.25c4-11.77,12.17-21.59,18.95-32.07
	c0.47-1.01,0.96-2.01,1.48-3c1.5-12.43,4.32-24.53,11.32-35.01c0.1-0.15,0.22-0.28,0.33-0.42c2.36-10.74,5.37-21.38,7.45-32.19
	c0.01-2.61,0.06-5.2,0.17-7.75c0.86-19.96,4.96-40.41,9.71-59.91c0.77-13.5,2.76-26.97,5.55-39.89
	c3.75-17.4,10.58-33.45,17.93-49.36c3.36-13.73,6.9-27.39,11.77-40.73c1.12-3.08,2.3-6.16,3.48-9.23
	C1511.08,736.19,1509.62,735.14,1507.72,734.62z M1489.19,766.69c-1.42-1.89-3.64-3.4-6.06-4.19c0.96-1.77,1.94-3.54,2.99-5.29
	c0.54-0.9,0.83-1.79,0.93-2.65c2.41-3.76,5.2-7.17,8.55-9.61c0.17-0.12,0.32-0.25,0.48-0.39
	C1494.3,752.1,1491.82,759.41,1489.19,766.69z"/>
<path class="st2" d="M1294.29,124.4c-3.51-4.01-6.68-9.73-10.57-14.1c-2.88-3.22-8.38-2.93-11.31,0c-3.2,3.2-2.89,8.08,0,11.31
	c1.43,1.6,2.91,3.79,4.48,6.08c1.9,2.77,3.88,5.49,6.09,8.01c2.85,3.25,8.4,2.91,11.31,0
	C1297.52,132.49,1297.15,127.66,1294.29,124.4z"/>
<path class="st2" d="M1206.4,277.27c-1.08-3.94-5.75-7.04-9.84-5.59c-5.08,1.8-10.1,3.75-15.17,5.57c-7.6,2.73-7.55,12.67,0,15.43
	c1.59,0.58,3.22,0.75,4.9,0.91c2.69,0.25,5.14-1.36,6.6-3.58c2.64-0.98,5.27-1.96,7.92-2.9
	C1204.89,285.67,1207.61,281.66,1206.4,277.27z"/>
<path class="st2" d="M1132.65,702.78c-8.18,2.14-15.37,6.24-23.08,9.55c-7.22,3.1-14.86,5.38-22.49,7.2
	c-17.33,4.15-35.2,6.46-52.94,8.03c-36.64,3.24-73.24,1.69-109.92,0.68c-10.76-1.14-13.38,17.37-2.58,19.04
	c3.05,0.47,6.12,0.89,9.18,1.29c1.28,0.31,2.55,0.64,3.85,0.87c2.81,0.5,5.53,0.74,8.26,0.52c31.22,3.07,62.88,2.54,94.03-0.37
	c18.75-1.75,37.72-4.16,56.06-8.54c8.22-1.96,16.24-4.58,24.03-7.84c9.06-3.79,17.86-8,24.11-15.83
	C1146.35,710.91,1141.75,700.41,1132.65,702.78z"/>
<path class="st2" d="M795.83,236.36c-4.01-3.92-9.29-6.23-14.54-7.96c-5.24-1.72-10.63-2.84-15.98-4.13
	c-1.08-0.26-2.22,0.25-2.65,1.3c-0.37,0.93-0.12,2.36,0.92,2.8c0.18,0.08,0.36,0.14,0.54,0.22c0,0,0,0.01,0,0.01
	c0.02,0.01,0.05,0.01,0.07,0.02c0.9,0.37,1.8,0.73,2.72,1.06c-2.45-0.27-4.89-0.4-7.33-0.43c-0.56-1.31-1.92-1.77-3.29-1.58
	c-8.53,1.2-17.21,0.53-25.67,2.35c-1.06,0.23-1.81,1.21-1.98,2.24c-1.16,0.4-2.3,0.82-3.42,1.27c-1.38,0.55-2.35,1.83-1.96,3.37
	c-0.68,0.78-0.78,1.85-0.43,2.77c-3.23,0.84-6.47,1.69-9.69,2.56c-7.99,2.16-15.9,4.64-23.86,6.93c-9.64,0.19-18.99,2.65-28.32,5.01
	c-2.33,0.01-4.68-0.01-6.99-0.18c-1.42-0.1-2.62,1.28-2.62,2.62c0,0.01,0,0.02,0,0.02c-0.08,0.05-0.15,0.12-0.23,0.18
	c-19.68,3.46-39.97,4.07-59.85,2.29c-10.05-0.9-20.04-2.46-29.89-4.63c-10.18-2.24-20.17-5.26-30.22-8
	c-10.26-2.8-20.53-5.59-30.68-8.76c-9.79-3.06-19.34-6.77-29.33-9.15c-14.94-3.56-31.13-5.29-46.37-2.28
	c1.12-0.8,2.24-1.59,3.36-2.39c0.51-0.36,0.04-1.21-0.5-0.86c-1.96,1.27-3.9,2.57-5.82,3.89c-0.78,0.19-1.55,0.4-2.32,0.61
	c0.24-0.22,0.49-0.43,0.73-0.65c0.55-0.5-0.24-1.24-0.8-0.8c-0.97,0.75-1.91,1.54-2.84,2.33c-0.45,0.15-0.9,0.28-1.35,0.43
	c-6.96,2.44-13.55,5.97-19.4,10.44c-3.99-2.06-9.33-1.73-11.33,3.01c-2.76,6.52-5.25,13.11-7.44,19.78
	c-4.23,0.45-8.41,3.27-9.3,7.55c-6.17-1.33-12.41,4.75-12.76,10.9c-0.42,7.31-1,14.61-1.55,21.91c-1.31,0.35-2.53,1.01-3.56,2.01
	c-0.44-2.33-0.82-4.66-1.12-7.01c0.65-6.88,1.34-13.75,1.95-20.63c0.25-0.02,0.5-0.17,0.6-0.44c1.34-3.67,2.6-7.45,5.3-10.37
	c0.54-0.58-0.33-1.46-0.87-0.87c-2.07,2.23-3.34,4.91-4.45,7.69c-0.03-0.75-0.06-1.51-0.06-2.26c0-0.63-0.64-0.8-1.05-0.54
	c0.54-2.24,1.15-4.47,1.79-6.69c0.34,0.29,0.92,0.26,1.09-0.32c0.46-1.54,0.98-3.07,1.54-4.58c0.33-0.55,0.65-1.11,0.96-1.68
	c-0.16,1.3-0.21,2.6-0.11,3.91c0,0.06,0.02,0.12,0.02,0.19c-0.08,0.8-0.11,1.6-0.04,2.41c0.06,0.77,1.06,0.9,1.33,0.18
	c0.68-1.82,1.45-3.59,2.25-5.36c-0.63,2.93-0.94,5.91-0.71,8.94c0.05,0.7,0.96,0.81,1.2,0.16c2.65-7.02,3.44-14.67,7.4-21.17
	c0.36-0.59-0.56-1.12-0.92-0.54c-2,3.27-3.29,6.85-4.32,10.52c-0.68,2.44-1.32,4.89-2.08,7.3c0.37-4.97,1.89-9.73,3.66-14.41
	c0.65-1.52,1.27-3.06,1.8-4.63c0.27-0.8-0.94-1.1-1.24-0.34c-0.6,1.53-1.22,3.07-1.81,4.63c-0.27-0.32-0.87-0.38-1.15,0.06
	c-1.21,1.88-2.48,3.9-3.49,6.03c0.19-0.82,0.43-1.62,0.69-2.42c2.74-4.54,5.66-8.98,8.74-13.3c0.27,0.01,0.54-0.13,0.64-0.45
	c0.09-0.29,0.2-0.57,0.29-0.85c0.48-0.67,0.94-1.34,1.43-2c1.62-2.18,3.27-4.33,4.96-6.45c0.27-0.34,0.16-0.85-0.12-1.09
	c2.04-2.16,4.17-4.24,6.41-6.19c0.02-0.01,0.03-0.02,0.05-0.04c0.39-0.21,0.77-0.42,1.17-0.61c0.27-0.12,0.35-0.38,0.32-0.62
	c2.29-1.84,4.7-3.48,7.23-4.94c-0.02,0.02-0.04,0.04-0.06,0.06c-1.33,1.07-2.6,2.21-3.8,3.43c-2.48,2.51-4.66,5.36-6.3,8.49
	c-0.38,0.72,0.71,1.36,1.1,0.64c0.76-1.44,1.64-2.81,2.61-4.12c-0.02,0.58,0.82,0.98,1.12,0.36c1.06-2.25,2.73-4.28,4.45-6.06
	c0.79-0.82,1.63-1.59,2.49-2.34c0.64-0.48,1.28-0.95,1.94-1.41c1.81-1.25,3.7-2.38,5.64-3.41c-0.53,0.38-1.06,0.77-1.58,1.16
	c-0.24,0.16-0.49,0.31-0.73,0.47c-2.85,1.91-5.5,4.12-7.88,6.59c-0.63,0.65,0.31,1.56,0.98,0.98c2.64-2.28,5.3-4.54,8.08-6.64
	c6.35-4.14,13.61-6.8,21.1-8.23c-1.76,0.63-3.51,1.3-5.25,2.02c-0.79,0.33-0.45,1.64,0.36,1.3c4.09-1.69,8.29-3.11,12.55-4.36
	c1.62-0.14,3.24-0.23,4.86-0.27c0.24-0.01,0.41-0.11,0.52-0.26c0.67-0.05,1.35-0.1,2.02-0.16c0.2-0.02,0.36-0.12,0.48-0.25
	c0.9,0.11,1.8,0.22,2.7,0.32c3.31,0.35,6.64,0.57,9.98,0.39c0.78-0.04,0.96-1.14,0.19-1.37c-2.59-0.77-5.25-1.25-7.93-1.48
	c0-0.03-0.02-0.06-0.02-0.09c0.49,0,0.99,0,1.48,0.01c0.09,0,0.17-0.02,0.25-0.05c0.66,0.01,1.33,0.02,1.99,0.02
	c2.27,0.18,4.53,0.38,6.79,0.67c0.79,0.1,0.78-1.14,0-1.24c-1.9-0.25-3.8-0.45-5.7-0.64c-0.11-0.1-0.25-0.17-0.43-0.18
	c-0.85-0.04-1.7-0.07-2.55-0.1c-0.18-0.02-0.36-0.03-0.55-0.05c-2.5-1.14-5.33-1.14-8.02-0.77c-0.32,0.04-0.63,0.11-0.95,0.16
	c-1.03,0-2.06,0.05-3.11,0.2c-1.94,0.28-3.84,0.77-5.72,1.31c-0.84,0.16-1.68,0.34-2.51,0.55c-2.78,0.14-5.54,0.58-8.27,1.52
	c-1.33,0.45-2.61,1.01-3.85,1.66c-1.8,0.57-3.58,1.18-5.35,1.87c-9.08,3.54-17.77,8.63-24.92,15.32c-2.03,1.17-3.87,2.68-5.56,4.31
	c-2.94,2.83-5.46,6.08-7.8,9.41c-2.27,3.23-4.34,6.58-6.47,9.89c-2.63,4.08-5.25,8.27-6.56,12.99c-0.2,0.71-0.37,1.43-0.52,2.15
	c-0.73,1.68-1.37,3.4-1.88,5.17c-0.75,2.61-1.2,5.3-1.3,8.02c-0.01,0.36,0.28,0.61,0.61,0.68c-0.1,0.58-0.19,1.16-0.27,1.75
	c-0.8,3.47-0.99,7.12-0.97,10.63c0.02,3.65,0.29,7.3,0.76,10.92c-1.02,10.84-1.9,21.68-2.01,32.58c-0.1,10.33,0.68,20.59,2.24,30.75
	c-0.28,0-0.55,0.17-0.54,0.53c0.3,11.08,3.07,21.76,6.09,32.37c0.52,1.82,1.04,3.64,1.56,5.46c0.76,3.29,1.68,6.55,2.7,9.78
	c0.05,0.19,0.1,0.38,0.15,0.57c1.16,4.53,2.31,9.07,3.77,13.51c1.28,3.9,2.77,7.86,4.89,11.42c7.91,23.36,16.95,47.01,20.21,71.42
	c2.23,9.62,4.23,19.29,6.06,28.99c3.74,15.67,6.39,31.56,7.96,47.63c0.09,0.89-0.02,1.67-0.26,2.33c1.27,11.5,2.48,23,3.64,34.5
	c1.48,14.72,2.65,29.47,3.5,44.23c0.16,0.37,0.29,0.77,0.36,1.22c2.1,13.66,4.17,27.32,5.28,41.1c0.07,0.91-0.05,1.69-0.31,2.37
	c0.15,2.22,0.27,4.44,0.34,6.66c0.45,3.2,0.9,6.4,1.33,9.61c1.01,6.13,2.07,12.26,3.19,18.37c2.53,11.67,5.14,23.37,7.05,35.16
	c1.29,5.95,2.62,11.89,4.01,17.81c0.53,1.96,1.1,3.92,1.76,5.85c1.58,4.63,3.31,9.47,3.69,14.4c0.24,0.77,0.48,1.54,0.72,2.31
	c1.76,5.59,3.37,11.22,5.06,16.83c1.07,3.54,2.12,7.12,1.59,10.76c0.34,1.21,0.66,2.42,1,3.63c0.71,2.08,1.4,4.16,2.04,6.26
	c0.23,0.35,0.44,0.73,0.62,1.15c3.94,9.43,7.41,18.99,9.54,29c0.81,2.57,1.54,5.15,1.96,7.79c7.41,14.24,11.23,30.81,15.82,45.79
	c1.46,4.77,2.81,9.65,4.36,14.45c0.83,0.44,1.57,1.14,2.09,2.16c1.96,3.86,3.43,7.89,4.82,11.96c2.05,4.54,3.38,9.46,5.02,14.1
	c0.06,0.18,0.11,0.36,0.16,0.53c4.47,7.32,8.71,14.8,12.95,22.33c5.21,9.26,10.88,18.24,15.95,27.58c3.19,5.87,6.47,11.82,8.38,18.2
	c1.89,2.73,3.81,5.44,5.76,8.13c6.3,7.76,12.47,15.64,18.47,23.65c1.72,2.05,3.45,4.09,5.21,6.1c10.32,9.76,20.24,19.94,30.61,29.66
	c1.12,1.05,1.65,2.2,1.75,3.33c1.55,1.39,3.12,2.77,4.7,4.12c14.33,8.64,28.87,17.02,42.54,26.62c10.75,2.84,21.07,7.72,30.96,12.55
	c7.58,3.69,15.13,7.42,22.75,11.02c6.3,2.98,12.76,5.59,19.05,8.58c0.44,0.06,0.87,0.13,1.31,0.19c1.29,0.18,2.6-0.23,3.2-1.37
	c1.88,0.4,3.78,0.73,5.71,0.93c1.03,0.1,1.99-0.62,2.46-1.53c3.08,0.91,6.19,1.72,9.37,2.15c1.49,0.2,3-0.36,3.44-1.95
	c0.04-0.16,0.07-0.32,0.08-0.48c2.59,0.69,5.23,1.17,7.95,1.3c1.93,0.09,3.11-2.03,2.68-3.67c0.79-0.2,1.46-0.72,1.8-1.57
	c0.47-1.16,0.15-2.93-1.14-3.49c-0.22-0.1-0.45-0.18-0.67-0.27c0,0,0-0.01,0-0.01c-0.01,0-0.03-0.01-0.04-0.01
	c-5.27-2.23-10.63-4.21-16.02-6.12c1.45-1.12,1.73-3.92-0.19-4.75c-3.46-1.49-6.94-2.95-10.46-4.3c-0.37-0.58-0.95-1.03-1.64-1.3
	c-6.42-2.56-12.14-6.65-18.92-8.35c-0.18-0.04-0.35-0.07-0.52-0.08c-0.68-0.29-1.37-0.57-2.06-0.82c-0.24-0.09-0.48-0.12-0.73-0.12
	c-2.27-2.31-5.24-3.94-8.11-5.34c-3.46-1.69-7.05-3.1-10.57-4.65c-0.61-0.27-1.21-0.55-1.82-0.83c-2.6-1.56-5.19-3.14-7.77-4.72
	c-0.45-0.28-0.92-0.39-1.36-0.39c-0.21-0.14-0.41-0.28-0.62-0.42c-6.21-4.35-12.82-8.16-18.64-13.05c-0.63-0.53-1.42-0.81-2.18-0.77
	c-0.49-0.43-0.98-0.87-1.47-1.3c-11.33-9.97-23.51-19.26-33.43-30.7c-5.06-5.83-9.96-11.86-16.3-16.37
	c-0.29-0.21-0.62-0.32-0.95-0.37c-3.63-4.67-7.35-9.27-10.82-14.06c-3.1-4.28-6.18-8.57-9.53-12.66c-0.04-0.04-0.08-0.08-0.12-0.12
	c-0.07-0.43-0.28-0.86-0.69-1.26c-2.21-2.13-3.67-4.69-5.23-7.3c-1.6-2.66-3.15-5.37-4.89-7.94c-4.16-6.14-8.51-12.07-12.07-18.6
	c-3.7-6.78-7.06-13.78-10.45-20.72c-3.39-6.96-6.68-13.97-9.83-21.04c-12.37-27.81-21.08-56.92-29.69-86.05
	c-2.44-8.26-5.43-16.37-7.75-24.66c-1.02-3.66-1.86-7.37-2.93-11.02c-0.47-1.62-0.98-3.25-1.59-4.83c-0.08-0.43-0.16-0.87-0.24-1.3
	c-0.44-3.92-0.96-7.84-1.76-11.7c-0.22-1.05-0.96-1.66-1.83-1.88c-0.06-0.42-0.13-0.83-0.19-1.25c0.06-3.49-0.97-6.91-1.69-10.3
	c-0.09-0.42-0.3-0.78-0.57-1.08c0.21-0.53,0.26-1.11,0.06-1.67c-0.67-1.72-1.08-3.5-1.4-5.3c-0.15-1.16-0.33-2.31-0.52-3.46
	c-0.35-2.8-0.62-5.61-1.25-8.35c-0.22-0.97-0.91-1.55-1.72-1.81c-0.21-1.85-0.42-3.7-0.65-5.55c-0.1-1.59-0.34-3.2-0.66-4.77
	c-0.34-2.24-0.74-4.48-1.22-6.69c-0.3-1.36-1.49-1.97-2.68-1.94c-0.28-0.8-0.61-1.6-1.06-2.3c-0.36-2.47-0.79-4.92-1.52-7.31
	c-0.62-2.03-2.59-2.36-3.99-1.6c-0.06-0.17-0.11-0.35-0.17-0.52c-1.21-3.4-5.9-2.02-5.34,1.47c0.34,2.14,0.78,4.26,1.27,6.36
	c-0.26,0.07-0.49,0.18-0.72,0.31c-0.2,0.01-0.4,0.03-0.61,0.09c-0.27,0.08-0.53,0.2-0.77,0.36c-0.99-1.15-2.74-1.26-3.88-0.49
	c-0.22-0.13-0.47-0.23-0.72-0.29c-0.33-1.01-0.71-2.02-1.16-3.01c-0.45-1-1.44-1.39-2.43-1.34c-0.14-0.41-0.28-0.83-0.44-1.23
	c-0.51-1.29-1.59-2.22-3.06-2c-4.78-23.14-8.82-46.43-11.94-69.83c-3.61-26.97-5.35-54.09-7.42-81.2c1.59-10.4-0.53-20.7-2.04-31.02
	c-0.51-3.48-1.04-6.95-1.57-10.42c-2.45-24.53-5.58-49.01-10.03-73.26c-3.01-16.42-6.64-32.7-11.36-48.71
	c-4.63-15.68-9.95-31.14-14.57-46.82c-4.48-15.22-8.55-30.75-9.94-46.6c-0.77-8.74-0.87-17.5-0.64-26.25
	c3.49-0.88,6.53-3.43,7.42-7.16c1.37-5.75,1.49-11.61,1.56-17.46c0.16-1.05,0.33-2.09,0.5-3.14c5.28-16.83,9.48-33.96,16.21-50.32
	c0.19-0.28,0.39-0.56,0.58-0.85c1.5-1.81,2.93-3.68,4.15-5.68c0.34-0.44,0.7-0.87,1.04-1.3c1.84-1.77,3.75-3.46,5.71-5.09
	c0.71-0.32,1.43-0.64,2.15-0.93c16.84-6.85,35.7-5.95,53.18-2.16c9.85,2.14,19.2,5.61,28.77,8.7c10.03,3.24,20.19,6.06,30.36,8.83
	c9.94,2.71,19.83,5.69,29.85,8.08c9.88,2.36,19.9,4.08,29.99,5.23c20.11,2.28,40.52,2.09,60.5-1.21c2.13-0.35,4.25-0.74,6.37-1.15
	c0.12,0.01,0.25,0.03,0.38,0.02c6.83-0.23,13.6-1.26,20.28-2.69c6.03-0.79,11.9-2.25,17.58-4.45c0.18-0.07,0.34-0.15,0.5-0.24
	c0.24-0.07,0.49-0.14,0.73-0.21c6.51-1.89,12.98-3.91,19.51-5.72c7-1.93,14.04-3.72,21.07-5.54c7.93-2.06,15.84-4.18,23.67-6.6
	c0.81-0.25,1.47-0.84,1.8-1.59c6.66,0.01,13.12,0.95,19.6,2.69c2.69,0.72,5.35,1.52,8.01,2.35c1.34,0.53,2.71,0.98,4.12,1.28
	c0.29,0.06,0.55,0.07,0.81,0.05c0.44,0.11,0.89,0.21,1.34,0.29c1.07,0.21,2.17-0.13,2.76-1.03
	C796.27,240,797.11,237.62,795.83,236.36z M348.04,283.21c0.26-0.07,0.48-0.28,0.48-0.64c-0.01-1.92,0.36-3.79,0.78-5.65
	c-0.39,4.39-0.81,8.77-1.24,13.16C347.94,287.79,347.92,285.5,348.04,283.21z M347.83,307.57c0.1-1.29,0.21-2.57,0.32-3.85
	c0.02-0.2,0.04-0.41,0.06-0.61c0.04,0.23,0.08,0.47,0.13,0.7c0.13,0.67,0.27,1.34,0.42,2C348.41,306.33,348.1,306.92,347.83,307.57z
	 M350.83,379.59c-0.13-0.57-0.26-1.14-0.38-1.71c0.43,1.07,0.85,2.14,1.26,3.22c0.19,0.76,0.39,1.51,0.59,2.26
	c0.07,0.47,0.14,0.93,0.22,1.4c0.04,0.72,0.09,1.44,0.15,2.16C352.01,384.49,351.39,382.05,350.83,379.59z M359.39,410.66
	c0.49,1.39,0.99,2.78,1.5,4.16c0.31,0.84,0.64,1.67,0.97,2.5c0.02,0.19,0.03,0.38,0.04,0.56
	C361.02,415.49,360.18,413.08,359.39,410.66z"/>
<path class="st2" d="M555.53-1039.21c-1.28-0.14-2.53-0.43-3.77-0.8c-0.05-0.12-0.16-0.22-0.34-0.27c-0.52-0.13-1.05-0.24-1.58-0.34
	c-3.46-1.16-6.88-2.51-10.56-2.22c-0.37,0.03-0.65,0.47-0.52,0.78c-0.22,0.06-0.32,0.24-0.32,0.44c-9.42-1.71-18.78-3.78-28.29-4.88
	c-4.29-0.5-8.6-0.75-12.93-0.71c-0.54,0.01-0.54,0.83,0,0.84c14.46,0.17,28.54,3.62,42.71,6.11c-0.41,0.03-0.81,0.05-1.22,0.11
	c-0.42,0.06-0.39,0.64-0.11,0.83c1.39,0.95,3.03,1.53,4.61,2.06c1.68,0.56,3.39,1.01,5.08,1.54c0.49,0.15,0.69-0.61,0.21-0.76
	c-2.74-0.88-5.69-1.49-8.23-2.88c1.76-0.09,3.53,0.05,5.28,0.31c0.49,0.12,0.98,0.23,1.47,0.33c0.17,0.04,0.34,0.08,0.51,0.12
	c1.67,0.4,3.33,0.79,5,1.18c0.22,0.05,0.38-0.03,0.49-0.16c0.1,0.02,0.19,0.04,0.29,0.06c0.48,0.1,0.74-0.45,0.54-0.76
	c0.55,0.06,1.11,0.12,1.66,0.16C556.24-1038.06,556.22-1039.14,555.53-1039.21z"/>
<path class="st2" d="M487.74-1055.54c-0.48-0.09-0.96-0.22-1.44-0.33c-2.82-0.78-5.41-2.25-8.23-3.03
	c-0.81-0.22-1.15,0.87-0.52,1.26c0.05,0.07,0.12,0.13,0.22,0.17c0.28,0.13,0.57,0.25,0.85,0.38c-0.23,0.36-0.16,0.91,0.37,1.04
	c1.64,0.4,3.29,0.82,4.91,1.31c0.18,0.11,0.36,0.2,0.54,0.32c0.18,0.11,0.36,0.09,0.51,0.01c0.83,0.27,1.65,0.56,2.46,0.89
	c0.67,0.24,1-0.52,0.71-1.01C488.35-1054.91,488.28-1055.44,487.74-1055.54z"/>
<path d="M1050.5,283.69c-0.02,0.02-0.05,0.04-0.07,0.07c-0.09-0.03-0.19-0.03-0.28,0.01c-0.6,0.22-1.15,0.61-1.71,0.94
	c-0.12-0.13-0.28-0.19-0.46-0.12c-0.89,0.37-1.75,0.79-2.64,1.14c-0.4,0.16-0.81,0.3-1.22,0.45c-0.25,0.09-0.49,0.18-0.74,0.27
	c-0.68-0.2-1.44-0.07-2.12,0.05c-0.75,0.13-1.5,0.29-2.26,0.41c-0.41,0.07-0.83,0.14-1.24,0.21c-0.44,0.05-0.88,0.09-1.31,0.14
	c-0.33-0.13-0.77-0.11-1.06-0.07c-0.16,0.02-0.31,0.06-0.46,0.08c-0.08,0-0.16,0-0.24,0.01c-0.75,0.03-1.49,0.12-2.22,0.29
	c-0.47,0.11-0.93,0.24-1.4,0.36c-0.63,0.04-1.3,0.18-1.9,0.28c-0.89,0.15-1.77,0.37-2.64,0.59c-1.84,0.45-3.65,1.02-5.49,1.46
	c-1.85,0.45-3.75,0.69-5.58,1.24c-0.51,0.15-1.01,0.32-1.51,0.5c-0.02,0-0.03,0.01-0.05,0.01c-0.03,0-0.05,0.01-0.08,0.01
	c-2.21,0.33-4.43,0.49-6.65,0.73c-2.16,0.23-4.29,0.66-6.45,0.9c-1.71,0.18-3.64-0.13-5.22,0.68c0,0-0.01,0.01-0.01,0.01
	c-0.24,0.04-0.49,0.08-0.73,0.11c-1.06,0.15-2.11,0.31-3.18,0.39c-1.74,0.13-3.51,0.2-5.25,0.42c-0.64-0.09-1.3,0.06-1.94,0.12
	c-0.71,0.07-1.42,0.09-2.14,0.08c-1.51-0.02-3.02-0.15-4.54-0.17c-1.5-0.03-3-0.02-4.5-0.05c-0.74-0.01-1.48-0.02-2.23-0.07
	c-0.41-0.02-0.83-0.01-1.25,0c-0.62-0.18-1.28-0.16-1.93-0.18c-0.85-0.03-1.69-0.07-2.53-0.13c-1.62-0.11-3.21-0.43-4.83-0.56
	c-0.72-0.06-1.43-0.04-2.15-0.05c-0.8-0.14-1.59-0.28-2.4-0.38c-1.22-0.16-2.44-0.28-3.65-0.43c-1.14-0.24-2.36-0.19-3.52-0.31
	c-0.61-0.06-1.22-0.14-1.83-0.23c-0.84-0.19-1.67-0.4-2.5-0.6c-1.22-0.3-2.43-0.62-3.66-0.89c-1.23-0.27-2.51-0.33-3.72-0.69
	c-0.11-0.03-0.2-0.02-0.27,0.02c-0.88-0.24-1.79-0.42-2.67-0.61c-1.28-0.28-2.52-0.64-3.77-1c-1.11-0.32-2.24-0.6-3.37-0.85
	c-0.05-0.06-0.11-0.11-0.19-0.14c-2.08-0.89-4.29-1.28-6.47-1.87c-2.31-0.63-4.58-1.41-6.86-2.12c-2.21-0.69-4.34-1.49-6.43-2.48
	c-1.93-0.92-3.65-2.26-5.72-2.88c-0.15-0.05-0.28-0.03-0.39,0.01c-1.74-0.69-3.49-1.34-5.22-2.04c-2.12-0.85-4.21-1.78-6.26-2.81
	c-2.03-1.01-4-2.14-5.98-3.25c-1.42-0.79-2.86-1.54-4.31-2.28c-0.55-0.36-1.14-0.66-1.76-0.92c-0.29-0.18-0.57-0.36-0.86-0.55
	c-0.03-0.09-0.08-0.18-0.17-0.26c-0.04-0.03-0.09-0.06-0.13-0.1c0,0,0,0,0,0c-0.01,0-0.01-0.01-0.02-0.01
	c-1.31-1.02-2.69-1.9-4.21-2.56c-0.04-0.03-0.09-0.05-0.13-0.08c-0.03-0.02-0.07-0.03-0.1-0.04c-0.68-0.46-1.42-0.8-2.15-1.17
	c-0.84-0.44-1.63-0.94-2.4-1.5c-1.59-1.17-3.19-2.31-4.82-3.44c-0.82-0.57-1.65-1.12-2.42-1.75c-0.75-0.62-1.47-1.28-2.23-1.89
	c-1.5-1.21-3.1-2.31-4.68-3.41c-0.57-0.49-1.14-0.99-1.72-1.47c-1.06-0.88-2.12-1.77-3.23-2.6c-0.27-0.28-0.53-0.55-0.79-0.84
	c-0.05-0.05-0.12-0.09-0.18-0.11c-0.14-0.17-0.28-0.33-0.43-0.49c-0.96-1.02-2.07-1.9-3.19-2.74c-1.12-0.83-2.29-1.6-3.4-2.44
	c-0.97-0.74-1.99-1.72-3.15-2.22c-0.94-0.79-2.01-1.41-3.02-2.11c-1.1-0.76-2.21-1.49-3.33-2.22c-1.06-0.69-2.09-1.46-3.19-2.1
	c-0.96-0.57-1.87-1.33-2.91-1.75c-0.86-0.59-1.86-0.95-2.72-1.54c-1.23-0.85-2.41-1.78-3.59-2.69c-1.17-0.9-2.33-1.8-3.51-2.69
	c-1.04-0.78-2.18-1.64-3.44-2.01c-1.28-1.03-2.77-1.84-4.24-2.55c-0.87-0.42-1.73-0.84-2.59-1.27c-0.35-0.17-0.71-0.32-1.05-0.51
	c-0.26-0.14-0.53-0.23-0.82-0.28c-0.41-0.26-0.86-0.46-1.28-0.67c-0.31-0.15-0.62-0.31-0.92-0.47c-0.3-0.16-0.61-0.4-0.96-0.42
	c-0.07,0-0.14,0.02-0.2,0.05c-0.12-0.12-0.24-0.24-0.35-0.37c-0.28-0.33-0.57-0.66-0.87-0.96c-0.15-0.15-0.3-0.3-0.46-0.44
	c-0.05-0.04-0.11-0.08-0.16-0.12c-0.04-0.03-0.03-0.02,0.01,0.01c-0.07-0.05-0.13-0.11-0.2-0.15c-0.12-0.07-0.24-0.1-0.37-0.13
	c-0.3-0.07-0.6,0.14-0.6,0.46c0,0.29,0.09,0.53,0.26,0.76c0.15,0.2,0.32,0.37,0.5,0.55c0.33,0.32,0.64,0.65,0.94,0.98
	c0.32,0.35,0.63,0.73,1.03,1c0.09,0.06,0.19,0.12,0.29,0.18c0.03,0.02,0.07,0.05,0.1,0.07c-0.08-0.06,0.06,0.05,0.06,0.05
	c0.18,0.15,0.36,0.29,0.55,0.42c0.21,0.14,0.44,0.08,0.6-0.06c0.16,0.11,0.32,0.21,0.47,0.31c0.47,0.3,0.98,0.53,1.52,0.68
	c0.18,0.05,0.37,0,0.52-0.11c0.01,0,0.02,0.01,0.03,0.01c0,0.13,0.03,0.27,0.14,0.36c0.18,0.15,0.36,0.31,0.55,0.46
	c0.08,0.06,0.18,0.07,0.28,0.06c0.05,0.04,0.09,0.08,0.14,0.12c0.29,0.28,0.51,0.54,0.71,0.82c0.44,0.61,0.8,1.27,1.2,1.91
	c0.14,0.23,0.44,0.31,0.67,0.18c0.23-0.13,0.32-0.45,0.18-0.67c-0.42-0.68-0.8-1.38-1.26-2.02c-0.01-0.02-0.03-0.04-0.04-0.06
	c0.35,0.18,0.7,0.36,1.04,0.55c0.79,0.44,1.6,0.87,2.36,1.37c0.62,0.41,1.2,0.88,1.85,1.21c0.01,0.01,0.02,0.03,0.04,0.05
	c0.67,0.54,1.49,1.29,2.31,1.56c0.14,0.05,0.26,0.04,0.36-0.01c0.13,0.1,0.27,0.2,0.4,0.3c1.18,0.88,2.34,1.79,3.51,2.69
	c1.12,0.86,2.24,1.74,3.4,2.55c0.67,0.47,1.4,0.81,2.12,1.18c0.03,0.1,0.1,0.18,0.21,0.23c1.1,0.47,2.05,1.26,3.07,1.87
	c0.19,0.11,0.36,0.12,0.51,0.07c1.05,0.7,2.05,1.47,3.11,2.17c0.15,0.1,0.3,0.21,0.46,0.31c-0.02,0.16,0.05,0.32,0.2,0.41
	c0.89,0.56,1.74,1.18,2.6,1.79c0.12,0.08,0.28,0.06,0.4-0.01c0.58,0.39,1.16,0.77,1.75,1.14c0.02,0.12,0.09,0.24,0.23,0.32
	c0.58,0.35,1.17,0.67,1.71,1.07c0.49,0.36,0.92,0.78,1.46,1.06c0.09,0.05,0.18,0.07,0.27,0.07c0.16,0.13,0.31,0.27,0.47,0.39
	c1.08,0.85,2.23,1.62,3.34,2.44c0.69,0.51,1.35,1.07,1.99,1.65c-0.43-0.21-0.87-0.4-1.33-0.56c-0.53-0.17-0.75,0.66-0.23,0.83
	c1.2,0.4,2.25,1.06,3.24,1.82c1.32,1.45,2.86,2.74,4.52,3.76c0.22,0.14,0.43,0.1,0.58-0.02c0.35,0.28,0.7,0.55,1.06,0.82
	c0.9,0.82,1.79,1.64,2.71,2.44c1.48,1.29,2.95,2.61,4.47,3.85c1.3,1.05,2.74,2.58,4.42,2.98c0.18,0.04,0.36-0.02,0.5-0.13
	c0.23,0.16,0.46,0.32,0.68,0.49c1.37,1.02,2.77,1.99,4.3,2.74c0.03,0.12,0.09,0.24,0.21,0.31c1.73,1.15,3.1,3.09,5.28,3.43
	c0.16,0.03,0.29,0,0.41-0.05c0.12,0.07,0.25,0.14,0.37,0.21c0.37,0.21,0.75,0.4,1.12,0.61c0.49,0.31,1,0.6,1.54,0.84
	c0,0,0.01,0,0.01,0c1.07,0.57,2.13,1.13,3.2,1.7c2.07,1.11,4.08,2.32,6.18,3.39c2.04,1.04,4.12,2,6.24,2.88
	c0.07,0.03,0.14,0.05,0.2,0.08c0.04,0.05,0.08,0.1,0.14,0.14c2.64,1.9,5.66,2.94,8.62,4.21c1.58,0.68,3.15,1.4,4.75,2.05
	c0.83,0.34,2.4,1.33,3.31,0.73c0.57,0.2,1.13,0.38,1.71,0.56c3.05,0.95,6.1,1.89,9.18,2.7c-0.1,0.24-0.02,0.54,0.32,0.61
	c2.58,0.56,5.19,1.03,7.73,1.78c1.26,0.37,2.51,0.7,3.78,0.99c0.62,0.14,1.25,0.28,1.87,0.44c0.57,0.15,1.11,0.26,1.68,0.14
	c0.9,0.34,1.85,0.53,2.78,0.78c1.35,0.35,2.7,0.7,4.06,0.97c1.34,0.27,2.68,0.48,4.04,0.62c0.6,0.07,1.24,0.15,1.88,0.19
	c-0.03,0.2,0.06,0.41,0.28,0.44c1.32,0.18,2.64,0.17,3.96,0.2c0.85,0.13,1.7,0.26,2.54,0.43c1.02,0.2,2.04,0.37,3.07,0.49
	c0.93,0.11,2.01,0.26,2.93,0.12c0.1-0.01,0.18-0.06,0.24-0.12c0.03,0,0.07,0.01,0.1,0.01c0.66,0.05,1.33,0.08,1.99,0.13
	c0.64,0.05,1.32,0.19,1.96,0.11c0.11-0.01,0.21-0.06,0.28-0.12c0.6,0.02,1.24,0.08,1.83-0.03c1,0.23,2.02,0.29,3.06,0.34
	c0.71,0.03,1.43,0.07,2.14,0.1c0.37,0.02,0.74,0.03,1.11,0.05c0.4,0.01,0.81,0.07,1.19-0.07c0.08-0.03,0.15-0.07,0.2-0.11
	c0.19,0,0.38,0.01,0.56,0.01c1.55,0.03,3.1,0.16,4.65,0.18c1.1,0.01,2.56,0.07,3.64-0.42c0.83-0.02,1.67,0.04,2.51-0.02
	c1.14-0.07,2.29-0.12,3.43-0.22c0.97-0.08,1.93-0.23,2.89-0.37c0.01,0,0.03,0.01,0.04,0.01c0.07,0.02,0.15,0.03,0.23,0.02
	c0.55-0.09,1.13-0.12,1.71-0.17c0.07,0.05,0.16,0.09,0.27,0.08c1.05-0.12,2.11-0.16,3.17-0.18c0.43-0.01,0.85,0.02,1.28,0.01
	c0.46-0.02,1.03-0.07,1.43-0.33c0.01-0.01,0.02-0.02,0.03-0.02c0.24,0,0.47,0,0.71-0.01c0.69-0.02,1.72,0.01,2.35-0.38
	c0.33-0.02,0.67-0.03,1-0.06c1.69-0.15,3.37-0.39,5.04-0.66c1.7-0.27,3.53-0.4,5.17-0.95c0.17-0.06,0.28-0.17,0.34-0.3
	c0.91-0.15,1.81-0.37,2.71-0.55c0.23-0.04,0.36-0.18,0.42-0.35c1.11-0.26,2.21-0.54,3.3-0.86c0.32-0.09,0.71-0.15,1.1-0.22
	c0.08,0.23,0.29,0.41,0.59,0.31c1.09-0.33,2.22-0.51,3.34-0.71c1.02-0.18,2.24-0.04,3.12-0.66c0.06-0.04,0.08-0.1,0.11-0.15
	c0.16-0.03,0.33-0.05,0.49-0.08c1.74,0.05,3.46-0.02,5.2-0.2c0.76-0.08,1.5-0.21,2.25-0.33c0.03,0.26,0.32,0.51,0.64,0.35
	c0.9-0.44,1.88-0.72,2.81-1.09c0.18-0.07,0.37-0.15,0.55-0.22c0.07,0.02,0.15,0.03,0.24,0c0.71-0.24,1.43-0.47,2.13-0.76
	c0.65-0.27,1.21-0.65,1.82-0.98c1.07-0.57,2.47-0.97,2.88-2.24C1051.45,283.7,1050.83,283.35,1050.5,283.69z"/>
<path d="M989.41,299.92c-0.38,0.22-0.77,0.22-1.2,0.19c-0.52-0.03-1.05-0.06-1.57-0.13c-1.06-0.14-2.04-0.59-3.04-0.93
	c-0.61-0.21-0.87,0.76-0.27,0.96c1.14,0.39,2.21,0.84,3.42,0.98c0.54,0.06,1.1,0.11,1.64,0.13c0.54,0.02,1.04-0.06,1.51-0.34
	C990.47,300.46,989.96,299.59,989.41,299.92z"/>
<path d="M1095.26,1141.08c-0.26-0.51-0.75-0.97-1.18-1.35c-0.43-0.38-0.88-0.74-1.32-1.11c-0.87-0.73-1.79-1.46-2.49-2.36
	c-0.18-0.23-0.57-0.21-0.78-0.05c-0.2,0.16-0.3,0.47-0.18,0.71c-0.35-0.18-0.73-0.32-1.1-0.45c-0.09-0.03-0.17-0.06-0.26-0.09
	c-0.01,0-0.02-0.01-0.04-0.01c-0.08-0.03-0.16-0.07-0.24-0.1c-0.28-0.12-0.56-0.23-0.85-0.32c-0.59-0.2-1.19-0.36-1.78-0.56
	c-0.23-0.08-0.48,0.03-0.63,0.21c-0.25-0.14-0.53-0.21-0.81-0.31c-0.39-0.13-0.79-0.26-1.18-0.39c-0.74-0.24-1.49-0.48-2.24-0.69
	c-1.55-0.44-3.12-0.72-4.72-0.92c-0.16-0.02-0.29,0.04-0.38,0.14c-2-0.59-3.98-1.21-6.02-1.68c-0.39-0.09-0.65,0.18-0.71,0.48
	c-0.13-0.03-0.27-0.06-0.39-0.09c-0.98-0.24-1.98-0.44-2.97-0.63c-2.15-0.41-4.3-0.81-6.47-1.12c-0.12-0.02-0.24-0.03-0.36-0.05
	c-2.25-0.45-4.5-0.85-6.79-1.09c-2.53-0.26-5.07-0.34-7.61-0.47c-0.81-0.04-1.62-0.12-2.42-0.21c-1.14-0.19-2.25-0.54-3.38-0.78
	c-0.23-0.05-0.42,0.03-0.56,0.16c-0.03-0.01-0.06-0.02-0.08-0.03c-0.39-0.24-0.76-0.04-0.93,0.27c-0.53-0.06-1.06-0.11-1.59-0.16
	c-1.88-0.18-3.77-0.21-5.66-0.29c-0.35-0.02-0.69-0.03-1.04-0.05c-0.58-0.27-1.17-0.28-1.88-0.3c-0.93-0.03-1.85-0.09-2.78-0.1
	c-0.56-0.01-1.12,0-1.69,0.01c-0.04-0.04-0.07-0.08-0.13-0.11c-0.69-0.44-1.58-0.48-2.39-0.45c-0.97,0.03-1.95,0.1-2.91,0.19
	c-0.24,0.02-0.48,0.05-0.73,0.08c-1.6-0.38-3.42-0.19-5.02-0.06c-1.94,0.17-3.86,0.45-5.8,0.67c-3.85,0.43-7.67,0.75-11.47,1.54
	c-0.19,0.04-0.3,0.15-0.35,0.29c-0.47,0.05-0.93,0.11-1.39,0.15c-1.3,0.11-2.59,0.2-3.89,0.33c-2.62,0.26-5.19,0.75-7.78,1.21
	c-0.02,0-0.05,0.01-0.07,0.01c0.09-0.31-0.13-0.74-0.5-0.71c-1.99,0.15-3.97,0.77-5.92,1.21c-2.04,0.46-4.09,0.91-6.14,1.34
	c-1.98,0.42-3.96,0.89-5.96,1.21c-0.7,0.11-1.39,0.21-2.09,0.33c-0.37-0.12-0.8,0.03-1.15,0.15c-0.65,0.22-1.32,0.35-1.99,0.5
	c-1.74,0.39-3.48,0.79-5.21,1.21c-2.54,0.61-5.03,1.31-7.49,2.15c-0.98,0.12-1.92,0.57-2.81,1.03c-1.94,0.67-3.87,1.37-5.77,2.14
	c-0.19,0.08-0.29,0.23-0.34,0.39c-0.4,0.2-0.8,0.4-1.19,0.61c-0.15-0.09-0.33-0.14-0.52-0.09c-1.63,0.42-3.17,1.15-4.6,2.03
	c-1.29,0.79-2.57,1.74-3.57,2.9c-0.73,0.46-1.46,0.92-2.17,1.4c-0.96,0.65-1.91,1.31-2.86,1.98c0.12-0.12,0.25-0.24,0.37-0.37
	c0.62-0.65-0.37-1.64-0.99-0.99c-1.95,2.06-4.19,3.82-6.21,5.8c-1.46,1.43-2.87,2.9-4.19,4.45c-0.17-0.17-0.49-0.22-0.65,0.05
	c-0.5,0.84-1.09,1.63-1.71,2.38c-0.11,0-0.22,0.03-0.33,0.1c-0.88,0.55-1.51,1.35-2.2,2.1c-0.35,0.38-0.73,0.73-1.11,1.08
	c-0.12,0.02-0.24,0.07-0.35,0.18c-0.36,0.38-0.69,0.78-1.06,1.14c-0.1,0.1-0.15,0.22-0.18,0.33c-0.12,0.16-0.25,0.32-0.37,0.48
	c-0.55,0.68-1.2,1.26-1.84,1.86c-1.32,1.21-2.68,2.38-3.98,3.61c-1.22,1.15-2.54,2.19-3.67,3.43c-1.19,1.3-2.13,2.84-3.02,4.35
	c-0.42,0.72,0.51,1.34,1.1,0.85c1-0.84,1.75-1.9,2.65-2.83c1.04-1.08,2.15-2.09,3.26-3.1c2.27-2.07,4.58-4.1,6.87-6.15
	c1.07-0.96,2.11-1.91,3.03-3.01c0.52-0.62,1.02-1.26,1.5-1.91c1.35-1.05,2.63-2.19,3.96-3.26c2.24-1.79,4.47-3.58,6.67-5.41
	c2.09-1.74,4.12-3.55,6.26-5.24c2.18-1.72,4.53-3.23,6.87-4.72c1.32-0.84,2.65-1.66,4.03-2.38c0.29-0.15,0.58-0.29,0.88-0.43
	c0.07,0.01,0.14,0.01,0.21-0.01c2.07-0.45,4.07-1.3,6.07-1.98c2.12-0.72,4.25-1.39,6.4-2c3.01-0.86,6.04-1.63,9.1-2.32
	c0.03,0,0.05,0.01,0.08,0c2.41-0.39,4.78-1,7.2-1.39c2.46-0.4,4.93-0.74,7.39-1.16c4.72-0.81,9.42-2.1,14.21-2.41
	c2.14-0.14,4.45-0.15,6.43-1.09c0.94-0.06,1.89-0.14,2.8-0.34c2.44-0.17,4.89-0.37,7.32-0.67c1.1-0.13,2.21-0.26,3.31-0.39
	c0.66,0.1,1.31,0.02,1.98-0.08c0.9-0.13,1.81-0.09,2.71-0.12c2.06-0.07,4.12-0.27,6.18-0.39c1.12-0.07,2.24-0.13,3.36-0.19
	c1.15,0.02,2.3,0.03,3.45,0.06c1.85,0.04,3.68,0.21,5.52,0.29c1.81,0.08,3.63,0.1,5.43,0.26c0.87,0.08,1.73,0.18,2.59,0.27
	c0.85,0.09,1.75,0.29,2.59,0.25c0.13-0.01,0.24-0.05,0.32-0.11c0.58,0.07,1.16,0.15,1.74,0.22c0.77,0.11,1.56,0.19,2.33,0.25
	c2.27,0.17,4.52,0.35,6.78,0.6c2.58,0.28,5.15,0.6,7.71,0.97c0.02,0,0.03,0.01,0.05,0.01c1.24,0.25,2.49,0.43,3.71,0.72
	c1.15,0.27,2.45,0.79,3.64,0.66c0.07-0.01,0.12-0.03,0.18-0.05c0.04,0.01,0.07,0.03,0.12,0.04c0.19,0.02,0.37,0.06,0.56,0.1
	c0.05,0.01,0.11,0.02,0.16,0.03c0.62,0.15,1.23,0.36,1.83,0.55c0.8,0.25,1.59,0.49,2.4,0.69c0.74,0.18,1.48,0.32,2.22,0.45
	c0.35,0.06,0.69,0.12,1.03,0.21c0.35,0.09,0.7,0.29,1.06,0.34c0.24,0.04,0.45-0.04,0.6-0.18c1.95,0.47,3.91,0.86,5.85,1.31
	c0.12,0.07,0.25,0.15,0.16,0.09c0.16,0.11,0.34,0.12,0.49,0.06c0.13,0.03,0.26,0.06,0.38,0.1c0.01,0.13,0.08,0.26,0.23,0.36
	c0.31,0.21,0.61,0.44,0.97,0.56c0.4,0.13,0.83,0.18,1.24,0.26c0.86,0.17,1.71,0.36,2.56,0.58c1.52,0.38,3.07,0.8,4.53,1.39
	c0.23,0.2,0.46,0.39,0.69,0.59c0.24,0.21,0.5,0.41,0.76,0.6c0.24,0.18,0.47,0.37,0.73,0.5
	C1095.02,1142.03,1095.5,1141.55,1095.26,1141.08z"/>
<path d="M948.04,1132.34c-1.93,0.56-4.01,0.28-5.99,0.45c-2.24,0.19-4.5,0.24-6.74,0.06c-0.64-0.05-0.64,0.95,0,1
	c2.33,0.19,4.66,0.12,6.99-0.08c2-0.17,4.06,0.11,6.01-0.46C948.92,1133.13,948.66,1132.16,948.04,1132.34z"/>
<rect x="933.23" y="692.04" class="st3" width="290" height="63.59"/>
<rect x="1547.03" y="1064" class="st3" width="1546.39" height="1141.23"/>
<rect x="1512.12" y="1220" class="st3" width="300.56" height="40"/>
<rect x="361.89" y="99.49" class="st3" width="1165.36" height="1103.54"/>
</svg>
